999
dxflib 2.0.4.8
  0
SECTION
  2
HEADER
  9
$ACADVER
  1
AC1015
  9
$HANDSEED
  5
FFFF
  9
$DIMASZ
 40
0.1
  9
$DIMGAP
 40
0.025
  9
$DIMEXO
 40
0.025
  9
$INSUNITS
 70
1
  9
$DIMTXT
 40
0.1
  9
$DIMSTYLE
  2
Standard
  9
$PLIMMAX
 10
8.2677165354330722
 20
11.6929133858267722
  9
$PLIMMIN
 10
0.0
 20
0.0
  9
$DIMEXE
 40
0.05
  0
ENDSEC
  0
SECTION
  2
TABLES
  0
TABLE
  2
VPORT
  5
8
100
AcDbSymbolTable
 70
1
  0
VPORT
  5
30
100
AcDbSymbolTableRecord
100
AcDbViewportTableRecord
  2
*Active
 70
0
 10
0.0
 20
0.0
 11
1.0
 21
1.0
 12
286.3055555555554861
 22
148.5
 13
0.0
 23
0.0
 14
10.0
 24
10.0
 15
10.0
 25
10.0
 16
0.0
 26
0.0
 36
1.0
 17
0.0
 27
0.0
 37
0.0
 40
297.0
 41
1.92798353909465
 42
50.0
 43
0.0
 44
0.0
 50
0.0
 51
0.0
 71
0
 72
100
 73
1
 74
3
 75
1
 76
1
 77
0
 78
0
281
0
 65
1
110
0.0
120
0.0
130
0.0
111
1.0
121
0.0
131
0.0
112
0.0
122
1.0
132
0.0
 79
0
146
0.0
  0
ENDTAB
  0
TABLE
  2
LTYPE
  5
5
100
AcDbSymbolTable
 70
21
  0
LTYPE
  5
14
100
AcDbSymbolTableRecord
100
AcDbLinetypeTableRecord
  2
ByBlock
 70
0
  3

 72
65
 73
0
 40
0.0
  0
LTYPE
  5
15
100
AcDbSymbolTableRecord
100
AcDbLinetypeTableRecord
  2
ByLayer
 70
0
  3

 72
65
 73
0
 40
0.0
  0
LTYPE
  5
16
100
AcDbSymbolTableRecord
100
AcDbLinetypeTableRecord
  2
CONTINUOUS
 70
0
  3
Solid line
 72
65
 73
0
 40
0.0
  0
LTYPE
  5
31
100
AcDbSymbolTableRecord
100
AcDbLinetypeTableRecord
  2
DOT
 70
0
  3
Dot . . . . . . . . . . . . . . . . . . . . . .
 72
65
 73
2
 40
6.3499999999999996
 49
0.0
 74
0
 49
-6.3499999999999996
 74
0
  0
LTYPE
  5
32
100
AcDbSymbolTableRecord
100
AcDbLinetypeTableRecord
  2
DOT2
 70
0
  3
Dot (.5x) .....................................
 72
65
 73
2
 40
3.1749999999999998
 49
0.0
 74
0
 49
-3.1749999999999998
 74
0
  0
LTYPE
  5
33
100
AcDbSymbolTableRecord
100
AcDbLinetypeTableRecord
  2
DOTX2
 70
0
  3
Dot (2x) .  .  .  .  .  .  .  .  .  .  .  .  .
 72
65
 73
2
 40
12.6999999999999993
 49
0.0
 74
0
 49
-12.6999999999999993
 74
0
  0
LTYPE
  5
34
100
AcDbSymbolTableRecord
100
AcDbLinetypeTableRecord
  2
DASHED
 70
0
  3
Dashed __ __ __ __ __ __ __ __ __ __ __ __ __ _
 72
65
 73
2
 40
19.0500000000000007
 49
12.6999999999999993
 74
0
 49
-6.3499999999999996
 74
0
  0
LTYPE
  5
35
100
AcDbSymbolTableRecord
100
AcDbLinetypeTableRecord
  2
DASHED2
 70
0
  3
Dashed (.5x) _ _ _ _ _ _ _ _ _ _ _ _ _ _ _ _ _
 72
65
 73
2
 40
9.5250000000000004
 49
6.3499999999999996
 74
0
 49
-3.1749999999999998
 74
0
  0
LTYPE
  5
36
100
AcDbSymbolTableRecord
100
AcDbLinetypeTableRecord
  2
DASHEDX2
 70
0
  3
Dashed (2x) ____  ____  ____  ____  ____  ___
 72
65
 73
2
 40
38.1000000000000014
 49
25.3999999999999986
 74
0
 49
-12.6999999999999993
 74
0
  0
LTYPE
  5
37
100
AcDbSymbolTableRecord
100
AcDbLinetypeTableRecord
  2
DASHDOT
 70
0
  3
Dash dot __ . __ . __ . __ . __ . __ . __ . __
 72
65
 73
4
 40
25.3999999999999986
 49
12.6999999999999993
 74
0
 49
-6.3499999999999996
 74
0
 49
0.0
 74
0
 49
-6.3499999999999996
 74
0
  0
LTYPE
  5
38
100
AcDbSymbolTableRecord
100
AcDbLinetypeTableRecord
  2
DASHDOT2
 70
0
  3
Dash dot (.5x) _._._._._._._._._._._._._._._.
 72
65
 73
4
 40
12.6999999999999993
 49
6.3499999999999996
 74
0
 49
-3.1749999999999998
 74
0
 49
0.0
 74
0
 49
-3.1749999999999998
 74
0
  0
LTYPE
  5
39
100
AcDbSymbolTableRecord
100
AcDbLinetypeTableRecord
  2
DASHDOTX2
 70
0
  3
Dash dot (2x) ____  .  ____  .  ____  .  ___
 72
65
 73
4
 40
50.7999999999999972
 49
25.3999999999999986
 74
0
 49
-12.6999999999999993
 74
0
 49
0.0
 74
0
 49
-12.6999999999999993
 74
0
  0
LTYPE
  5
3A
100
AcDbSymbolTableRecord
100
AcDbLinetypeTableRecord
  2
DIVIDE
 70
0
  3
Divide ____ . . ____ . . ____ . . ____ . . ____
 72
65
 73
6
 40
31.75
 49
12.6999999999999993
 74
0
 49
-6.3499999999999996
 74
0
 49
0.0
 74
0
 49
-6.3499999999999996
 74
0
 49
0.0
 74
0
 49
-6.3499999999999996
 74
0
  0
LTYPE
  5
3B
100
AcDbSymbolTableRecord
100
AcDbLinetypeTableRecord
  2
DIVIDE2
 70
0
  3
Divide (.5x) __..__..__..__..__..__..__..__.._
 72
65
 73
6
 40
15.875
 49
6.3499999999999996
 74
0
 49
-3.1749999999999998
 74
0
 49
0.0
 74
0
 49
-3.1749999999999998
 74
0
 49
0.0
 74
0
 49
-3.1749999999999998
 74
0
  0
LTYPE
  5
3C
100
AcDbSymbolTableRecord
100
AcDbLinetypeTableRecord
  2
DIVIDEX2
 70
0
  3
Divide (2x) ________  .  .  ________  .  .  _
 72
65
 73
6
 40
63.5
 49
25.3999999999999986
 74
0
 49
-12.6999999999999993
 74
0
 49
0.0
 74
0
 49
-12.6999999999999993
 74
0
 49
0.0
 74
0
 49
-12.6999999999999993
 74
0
  0
LTYPE
  5
3D
100
AcDbSymbolTableRecord
100
AcDbLinetypeTableRecord
  2
CENTER
 70
0
  3
Center ____ _ ____ _ ____ _ ____ _ ____ _ ____
 72
65
 73
4
 40
50.7999999999999972
 49
31.75
 74
0
 49
-6.3499999999999996
 74
0
 49
6.3499999999999996
 74
0
 49
-6.3499999999999996
 74
0
  0
LTYPE
  5
3E
100
AcDbSymbolTableRecord
100
AcDbLinetypeTableRecord
  2
CENTER2
 70
0
  3
Center (.5x) ___ _ ___ _ ___ _ ___ _ ___ _ ___
 72
65
 73
4
 40
28.5749999999999993
 49
19.0500000000000007
 74
0
 49
-3.1749999999999998
 74
0
 49
3.1749999999999998
 74
0
 49
-3.1749999999999998
 74
0
  0
LTYPE
  5
3F
100
AcDbSymbolTableRecord
100
AcDbLinetypeTableRecord
  2
CENTERX2
 70
0
  3
Center (2x) ________  __  ________  __  _____
 72
65
 73
4
 40
101.5999999999999943
 49
63.5
 74
0
 49
-12.6999999999999993
 74
0
 49
12.6999999999999993
 74
0
 49
-12.6999999999999993
 74
0
  0
LTYPE
  5
40
100
AcDbSymbolTableRecord
100
AcDbLinetypeTableRecord
  2
BORDER
 70
0
  3
Border __ __ . __ __ . __ __ . __ __ . __ __ .
 72
65
 73
6
 40
44.4500000000000028
 49
12.6999999999999993
 74
0
 49
-6.3499999999999996
 74
0
 49
12.6999999999999993
 74
0
 49
-6.3499999999999996
 74
0
 49
0.0
 74
0
 49
-6.3499999999999996
 74
0
  0
LTYPE
  5
41
100
AcDbSymbolTableRecord
100
AcDbLinetypeTableRecord
  2
BORDER2
 70
0
  3
Border (.5x) __.__.__.__.__.__.__.__.__.__.__.
 72
65
 73
6
 40
22.2250000000000014
 49
6.3499999999999996
 74
0
 49
-3.1749999999999998
 74
0
 49
6.3499999999999996
 74
0
 49
-3.1749999999999998
 74
0
 49
0.0
 74
0
 49
-3.1749999999999998
 74
0
  0
LTYPE
  5
42
100
AcDbSymbolTableRecord
100
AcDbLinetypeTableRecord
  2
BORDERX2
 70
0
  3
Border (2x) ____  ____  .  ____  ____  .  ___
 72
65
 73
6
 40
88.9000000000000057
 49
25.3999999999999986
 74
0
 49
-12.6999999999999993
 74
0
 49
25.3999999999999986
 74
0
 49
-12.6999999999999993
 74
0
 49
0.0
 74
0
 49
-12.6999999999999993
 74
0
  0
ENDTAB
  0
TABLE
  2
LAYER
  5
2
100
AcDbSymbolTable
 70
1
  0
LAYER
  5
10
100
AcDbSymbolTableRecord
100
AcDbLayerTableRecord
  2
0
 70
0
 62
7
  6
CONTINUOUS
370
0
390
F
  0
ENDTAB
  0
TABLE
  2
STYLE
  5
3
100
AcDbSymbolTable
 70
1
  0
STYLE
  5
11
100
AcDbSymbolTableRecord
100
AcDbTextStyleTableRecord
  2
Standard
 70
0
 40
0.0
 41
0.75
 50
0.0
 71
0
 42
2.5
  3
txt
  4

  0
ENDTAB
  0
TABLE
  2
VIEW
  5
6
100
AcDbSymbolTable
 70
0
  0
ENDTAB
  0
TABLE
  2
UCS
  5
7
100
AcDbSymbolTable
 70
0
  0
ENDTAB
  0
TABLE
  2
APPID
  5
9
100
AcDbSymbolTable
 70
1
  0
APPID
  5
12
100
AcDbSymbolTableRecord
100
AcDbRegAppTableRecord
  2
ACAD
 70
0
  0
ENDTAB
  0
TABLE
  2
DIMSTYLE
  5
A
100
AcDbSymbolTable
 70
1
100
AcDbDimStyleTable
 71
0
  0
DIMSTYLE
105
27
100
AcDbSymbolTableRecord
100
AcDbDimStyleTableRecord
  2
Standard
 41
0.1
 42
0.025
 43
3.75
 44
0.05
 70
0
 73
0
 74
0
 77
1
 78
8
140
0.1
141
2.5
143
0.03937007874016
147
0.025
171
3
172
1
271
2
272
2
274
3
278
44
283
0
284
8
340
11
  0
ENDTAB
  0
TABLE
  2
BLOCK_RECORD
  5
1
100
AcDbSymbolTable
 70
1
  0
BLOCK_RECORD
  5
1F
100
AcDbSymbolTableRecord
100
AcDbBlockTableRecord
  2
*Model_Space
340
22
  0
BLOCK_RECORD
  5
1B
100
AcDbSymbolTableRecord
100
AcDbBlockTableRecord
  2
*Paper_Space
340
1E
  0
BLOCK_RECORD
  5
23
100
AcDbSymbolTableRecord
100
AcDbBlockTableRecord
  2
*Paper_Space0
340
26
  0
ENDTAB
  0
ENDSEC
  0
SECTION
  2
BLOCKS
  0
BLOCK
  5
20
100
AcDbEntity
  8
0
100
AcDbBlockBegin
  2
*Model_Space
 70
0
 10
0.0
 20
0.0
 30
0.0
  3
*Model_Space
  1

  0
ENDBLK
  5
21
100
AcDbEntity
  8
0
100
AcDbBlockEnd
  0
BLOCK
  5
1C
100
AcDbEntity
 67
1
  8
0
100
AcDbBlockBegin
  2
*Paper_Space
 70
0
 10
0.0
 20
0.0
 30
0.0
  3
*Paper_Space
  1

  0
ENDBLK
  5
1D
100
AcDbEntity
 67
1
  8
0
100
AcDbBlockEnd
  0
BLOCK
  5
24
100
AcDbEntity
  8
0
100
AcDbBlockBegin
  2
*Paper_Space0
 70
0
 10
0.0
 20
0.0
 30
0.0
  3
*Paper_Space0
  1

  0
ENDBLK
  5
25
100
AcDbEntity
  8
0
100
AcDbBlockEnd
  0
ENDSEC
  0
SECTION
  2
ENTITIES
  0
LINE
  5
43
100
AcDbEntity
100
AcDbLine
  8
0
 62
256
370
-1
  6
ByLayer
 10
-116.25
 20
-33.25
 30
0.0
 11
-116.25
 21
-14.1999999999999993
 31
0.0
  0
LINE
  5
44
100
AcDbEntity
100
AcDbLine
  8
0
 62
256
370
-1
  6
ByLayer
 10
-116.25
 20
-14.1999999999999993
 30
0.0
 11
-113.25
 21
-14.1999999999999993
 31
0.0
  0
LINE
  5
45
100
AcDbEntity
100
AcDbLine
  8
0
 62
256
370
-1
  6
ByLayer
 10
-113.25
 20
-14.1999999999999993
 30
0.0
 11
-113.25
 21
14.1999999999999993
 31
0.0
  0
LINE
  5
46
100
AcDbEntity
100
AcDbLine
  8
0
 62
256
370
-1
  6
ByLayer
 10
-113.25
 20
14.1999999999999993
 30
0.0
 11
-116.25
 21
14.1999999999999993
 31
0.0
  0
LINE
  5
47
100
AcDbEntity
100
AcDbLine
  8
0
 62
256
370
-1
  6
ByLayer
 10
-116.25
 20
14.1999999999999993
 30
0.0
 11
-116.25
 21
33.25
 31
0.0
  0
LINE
  5
48
100
AcDbEntity
100
AcDbLine
  8
0
 62
256
370
-1
  6
ByLayer
 10
-116.25
 20
33.25
 30
0.0
 11
-113.25
 21
33.25
 31
0.0
  0
LINE
  5
49
100
AcDbEntity
100
AcDbLine
  8
0
 62
256
370
-1
  6
ByLayer
 10
-113.25
 20
33.25
 30
0.0
 11
-113.25
 21
47.4500000000000028
 31
0.0
  0
LINE
  5
4A
100
AcDbEntity
100
AcDbLine
  8
0
 62
256
370
-1
  6
ByLayer
 10
-113.25
 20
47.4500000000000028
 30
0.0
 11
-97.375
 21
47.4500000000000028
 31
0.0
  0
LINE
  5
4B
100
AcDbEntity
100
AcDbLine
  8
0
 62
256
370
-1
  6
ByLayer
 10
-97.375
 20
47.4500000000000028
 30
0.0
 11
-97.375
 21
44.4500000000000028
 31
0.0
  0
LINE
  5
4C
100
AcDbEntity
100
AcDbLine
  8
0
 62
256
370
-1
  6
ByLayer
 10
-97.375
 20
44.4500000000000028
 30
0.0
 11
-84.6749999999999972
 21
44.4500000000000028
 31
0.0
  0
LINE
  5
4D
100
AcDbEntity
100
AcDbLine
  8
0
 62
256
370
-1
  6
ByLayer
 10
-84.6749999999999972
 20
44.4500000000000028
 30
0.0
 11
-84.6749999999999972
 21
47.4500000000000028
 31
0.0
  0
LINE
  5
4E
100
AcDbEntity
100
AcDbLine
  8
0
 62
256
370
-1
  6
ByLayer
 10
-84.6749999999999972
 20
47.4500000000000028
 30
0.0
 11
-68.7999999999999972
 21
47.4500000000000028
 31
0.0
  0
LINE
  5
4F
100
AcDbEntity
100
AcDbLine
  8
0
 62
256
370
-1
  6
ByLayer
 10
-68.7999999999999972
 20
47.4500000000000028
 30
0.0
 11
-68.7999999999999972
 21
33.25
 31
0.0
  0
LINE
  5
50
100
AcDbEntity
100
AcDbLine
  8
0
 62
256
370
-1
  6
ByLayer
 10
-68.7999999999999972
 20
33.25
 30
0.0
 11
-65.7999999999999972
 21
33.25
 31
0.0
  0
LINE
  5
51
100
AcDbEntity
100
AcDbLine
  8
0
 62
256
370
-1
  6
ByLayer
 10
-65.7999999999999972
 20
33.25
 30
0.0
 11
-65.7999999999999972
 21
14.1999999999999993
 31
0.0
  0
LINE
  5
52
100
AcDbEntity
100
AcDbLine
  8
0
 62
256
370
-1
  6
ByLayer
 10
-65.7999999999999972
 20
14.1999999999999993
 30
0.0
 11
-68.7999999999999972
 21
14.1999999999999993
 31
0.0
  0
LINE
  5
53
100
AcDbEntity
100
AcDbLine
  8
0
 62
256
370
-1
  6
ByLayer
 10
-68.7999999999999972
 20
14.1999999999999993
 30
0.0
 11
-68.7999999999999972
 21
-14.1999999999999993
 31
0.0
  0
LINE
  5
54
100
AcDbEntity
100
AcDbLine
  8
0
 62
256
370
-1
  6
ByLayer
 10
-68.7999999999999972
 20
-14.1999999999999993
 30
0.0
 11
-65.7999999999999972
 21
-14.1999999999999993
 31
0.0
  0
LINE
  5
55
100
AcDbEntity
100
AcDbLine
  8
0
 62
256
370
-1
  6
ByLayer
 10
-65.7999999999999972
 20
-14.1999999999999993
 30
0.0
 11
-65.7999999999999972
 21
-33.25
 31
0.0
  0
LINE
  5
56
100
AcDbEntity
100
AcDbLine
  8
0
 62
256
370
-1
  6
ByLayer
 10
-65.7999999999999972
 20
-33.25
 30
0.0
 11
-68.7999999999999972
 21
-33.25
 31
0.0
  0
LINE
  5
57
100
AcDbEntity
100
AcDbLine
  8
0
 62
256
370
-1
  6
ByLayer
 10
-68.7999999999999972
 20
-33.25
 30
0.0
 11
-68.7999999999999972
 21
-47.4500000000000028
 31
0.0
  0
LINE
  5
58
100
AcDbEntity
100
AcDbLine
  8
0
 62
256
370
-1
  6
ByLayer
 10
-68.7999999999999972
 20
-47.4500000000000028
 30
0.0
 11
-84.6749999999999972
 21
-47.4500000000000028
 31
0.0
  0
LINE
  5
59
100
AcDbEntity
100
AcDbLine
  8
0
 62
256
370
-1
  6
ByLayer
 10
-84.6749999999999972
 20
-47.4500000000000028
 30
0.0
 11
-84.6749999999999972
 21
-44.4500000000000028
 31
0.0
  0
LINE
  5
5A
100
AcDbEntity
100
AcDbLine
  8
0
 62
256
370
-1
  6
ByLayer
 10
-84.6749999999999972
 20
-44.4500000000000028
 30
0.0
 11
-97.375
 21
-44.4500000000000028
 31
0.0
  0
LINE
  5
5B
100
AcDbEntity
100
AcDbLine
  8
0
 62
256
370
-1
  6
ByLayer
 10
-97.375
 20
-44.4500000000000028
 30
0.0
 11
-97.375
 21
-47.4500000000000028
 31
0.0
  0
LINE
  5
5C
100
AcDbEntity
100
AcDbLine
  8
0
 62
256
370
-1
  6
ByLayer
 10
-97.375
 20
-47.4500000000000028
 30
0.0
 11
-113.25
 21
-47.4500000000000028
 31
0.0
  0
LINE
  5
5D
100
AcDbEntity
100
AcDbLine
  8
0
 62
256
370
-1
  6
ByLayer
 10
-113.25
 20
-47.4500000000000028
 30
0.0
 11
-113.25
 21
-33.25
 31
0.0
  0
LINE
  5
5E
100
AcDbEntity
100
AcDbLine
  8
0
 62
256
370
-1
  6
ByLayer
 10
-113.25
 20
-33.25
 30
0.0
 11
-116.25
 21
-33.25
 31
0.0
  0
LINE
  5
5F
100
AcDbEntity
100
AcDbLine
  8
0
 62
256
370
-1
  6
ByLayer
 10
-53.7999999999999972
 20
-229.5
 30
0.0
 11
-53.7999999999999972
 21
-134.5999999999999943
 31
0.0
  0
LINE
  5
60
100
AcDbEntity
100
AcDbLine
  8
0
 62
256
370
-1
  6
ByLayer
 10
-53.7999999999999972
 20
-134.5999999999999943
 30
0.0
 11
-53.75
 21
-133.804000000000002
 31
0.0
  0
LINE
  5
61
100
AcDbEntity
100
AcDbLine
  8
0
 62
256
370
-1
  6
ByLayer
 10
-53.75
 20
-133.804000000000002
 30
0.0
 11
-53.6009999999999991
 21
-133.0209999999999866
 31
0.0
  0
LINE
  5
62
100
AcDbEntity
100
AcDbLine
  8
0
 62
256
370
-1
  6
ByLayer
 10
-53.6009999999999991
 20
-133.0209999999999866
 30
0.0
 11
-53.3539999999999992
 21
-132.2620000000000005
 31
0.0
  0
LINE
  5
63
100
AcDbEntity
100
AcDbLine
  8
0
 62
256
370
-1
  6
ByLayer
 10
-53.3539999999999992
 20
-132.2620000000000005
 30
0.0
 11
-53.0150000000000006
 21
-131.5409999999999968
 31
0.0
  0
LINE
  5
64
100
AcDbEntity
100
AcDbLine
  8
0
 62
256
370
-1
  6
ByLayer
 10
-53.0150000000000006
 20
-131.5409999999999968
 30
0.0
 11
-52.5870000000000033
 21
-130.867999999999995
 31
0.0
  0
LINE
  5
65
100
AcDbEntity
100
AcDbLine
  8
0
 62
256
370
-1
  6
ByLayer
 10
-52.5870000000000033
 20
-130.867999999999995
 30
0.0
 11
-52.0790000000000006
 21
-130.2529999999999859
 31
0.0
  0
LINE
  5
66
100
AcDbEntity
100
AcDbLine
  8
0
 62
256
370
-1
  6
ByLayer
 10
-52.0790000000000006
 20
-130.2529999999999859
 30
0.0
 11
-51.4979999999999976
 21
-129.7069999999999936
 31
0.0
  0
LINE
  5
67
100
AcDbEntity
100
AcDbLine
  8
0
 62
256
370
-1
  6
ByLayer
 10
-51.4979999999999976
 20
-129.7069999999999936
 30
0.0
 11
-50.8530000000000015
 21
-129.2390000000000043
 31
0.0
  0
LINE
  5
68
100
AcDbEntity
100
AcDbLine
  8
0
 62
256
370
-1
  6
ByLayer
 10
-50.8530000000000015
 20
-129.2390000000000043
 30
0.0
 11
-50.1540000000000035
 21
-128.8540000000000134
 31
0.0
  0
LINE
  5
69
100
AcDbEntity
100
AcDbLine
  8
0
 62
256
370
-1
  6
ByLayer
 10
-50.1540000000000035
 20
-128.8540000000000134
 30
0.0
 11
-49.411999999999999
 21
-128.561000000000007
 31
0.0
  0
LINE
  5
6A
100
AcDbEntity
100
AcDbLine
  8
0
 62
256
370
-1
  6
ByLayer
 10
-49.411999999999999
 20
-128.561000000000007
 30
0.0
 11
-48.6400000000000006
 21
-128.3619999999999948
 31
0.0
  0
LINE
  5
6B
100
AcDbEntity
100
AcDbLine
  8
0
 62
256
370
-1
  6
ByLayer
 10
-48.6400000000000006
 20
-128.3619999999999948
 30
0.0
 11
-47.8489999999999966
 21
-128.2630000000000052
 31
0.0
  0
LINE
  5
6C
100
AcDbEntity
100
AcDbLine
  8
0
 62
256
370
-1
  6
ByLayer
 10
-47.8489999999999966
 20
-128.2630000000000052
 30
0.0
 11
-47.4500000000000028
 21
-128.2630000000000052
 31
0.0
  0
LINE
  5
6D
100
AcDbEntity
100
AcDbLine
  8
0
 62
256
370
-1
  6
ByLayer
 10
-47.4500000000000028
 20
-128.2630000000000052
 30
0.0
 11
-47.4500000000000028
 21
-128.25
 31
0.0
  0
LINE
  5
6E
100
AcDbEntity
100
AcDbLine
  8
0
 62
256
370
-1
  6
ByLayer
 10
-47.4500000000000028
 20
-128.25
 30
0.0
 11
47.4500000000000028
 21
-128.25
 31
0.0
  0
LINE
  5
6F
100
AcDbEntity
100
AcDbLine
  8
0
 62
256
370
-1
  6
ByLayer
 10
47.4500000000000028
 20
-128.25
 30
0.0
 11
47.4500000000000028
 21
-128.2630000000000052
 31
0.0
  0
LINE
  5
70
100
AcDbEntity
100
AcDbLine
  8
0
 62
256
370
-1
  6
ByLayer
 10
47.4500000000000028
 20
-128.2630000000000052
 30
0.0
 11
47.8489999999999966
 21
-128.2630000000000052
 31
0.0
  0
LINE
  5
71
100
AcDbEntity
100
AcDbLine
  8
0
 62
256
370
-1
  6
ByLayer
 10
47.8489999999999966
 20
-128.2630000000000052
 30
0.0
 11
48.6400000000000006
 21
-128.3619999999999948
 31
0.0
  0
LINE
  5
72
100
AcDbEntity
100
AcDbLine
  8
0
 62
256
370
-1
  6
ByLayer
 10
48.6400000000000006
 20
-128.3619999999999948
 30
0.0
 11
49.411999999999999
 21
-128.561000000000007
 31
0.0
  0
LINE
  5
73
100
AcDbEntity
100
AcDbLine
  8
0
 62
256
370
-1
  6
ByLayer
 10
49.411999999999999
 20
-128.561000000000007
 30
0.0
 11
50.1540000000000035
 21
-128.8540000000000134
 31
0.0
  0
LINE
  5
74
100
AcDbEntity
100
AcDbLine
  8
0
 62
256
370
-1
  6
ByLayer
 10
50.1540000000000035
 20
-128.8540000000000134
 30
0.0
 11
50.8530000000000015
 21
-129.2390000000000043
 31
0.0
  0
LINE
  5
75
100
AcDbEntity
100
AcDbLine
  8
0
 62
256
370
-1
  6
ByLayer
 10
50.8530000000000015
 20
-129.2390000000000043
 30
0.0
 11
51.4979999999999976
 21
-129.7069999999999936
 31
0.0
  0
LINE
  5
76
100
AcDbEntity
100
AcDbLine
  8
0
 62
256
370
-1
  6
ByLayer
 10
51.4979999999999976
 20
-129.7069999999999936
 30
0.0
 11
52.0790000000000006
 21
-130.2529999999999859
 31
0.0
  0
LINE
  5
77
100
AcDbEntity
100
AcDbLine
  8
0
 62
256
370
-1
  6
ByLayer
 10
52.0790000000000006
 20
-130.2529999999999859
 30
0.0
 11
52.5870000000000033
 21
-130.867999999999995
 31
0.0
  0
LINE
  5
78
100
AcDbEntity
100
AcDbLine
  8
0
 62
256
370
-1
  6
ByLayer
 10
52.5870000000000033
 20
-130.867999999999995
 30
0.0
 11
53.0150000000000006
 21
-131.5409999999999968
 31
0.0
  0
LINE
  5
79
100
AcDbEntity
100
AcDbLine
  8
0
 62
256
370
-1
  6
ByLayer
 10
53.0150000000000006
 20
-131.5409999999999968
 30
0.0
 11
53.3539999999999992
 21
-132.2620000000000005
 31
0.0
  0
LINE
  5
7A
100
AcDbEntity
100
AcDbLine
  8
0
 62
256
370
-1
  6
ByLayer
 10
53.3539999999999992
 20
-132.2620000000000005
 30
0.0
 11
53.6009999999999991
 21
-133.0209999999999866
 31
0.0
  0
LINE
  5
7B
100
AcDbEntity
100
AcDbLine
  8
0
 62
256
370
-1
  6
ByLayer
 10
53.6009999999999991
 20
-133.0209999999999866
 30
0.0
 11
53.75
 21
-133.804000000000002
 31
0.0
  0
LINE
  5
7C
100
AcDbEntity
100
AcDbLine
  8
0
 62
256
370
-1
  6
ByLayer
 10
53.75
 20
-133.804000000000002
 30
0.0
 11
53.7999999999999972
 21
-134.5999999999999943
 31
0.0
  0
LINE
  5
7D
100
AcDbEntity
100
AcDbLine
  8
0
 62
256
370
-1
  6
ByLayer
 10
53.7999999999999972
 20
-134.5999999999999943
 30
0.0
 11
53.7999999999999972
 21
-229.5
 31
0.0
  0
LINE
  5
7E
100
AcDbEntity
100
AcDbLine
  8
0
 62
256
370
-1
  6
ByLayer
 10
53.7999999999999972
 20
-229.5
 30
0.0
 11
53.75
 21
-230.2959999999999923
 31
0.0
  0
LINE
  5
7F
100
AcDbEntity
100
AcDbLine
  8
0
 62
256
370
-1
  6
ByLayer
 10
53.75
 20
-230.2959999999999923
 30
0.0
 11
53.6009999999999991
 21
-231.0790000000000077
 31
0.0
  0
LINE
  5
80
100
AcDbEntity
100
AcDbLine
  8
0
 62
256
370
-1
  6
ByLayer
 10
53.6009999999999991
 20
-231.0790000000000077
 30
0.0
 11
53.3539999999999992
 21
-231.8379999999999939
 31
0.0
  0
LINE
  5
81
100
AcDbEntity
100
AcDbLine
  8
0
 62
256
370
-1
  6
ByLayer
 10
53.3539999999999992
 20
-231.8379999999999939
 30
0.0
 11
53.0150000000000006
 21
-232.5589999999999975
 31
0.0
  0
LINE
  5
82
100
AcDbEntity
100
AcDbLine
  8
0
 62
256
370
-1
  6
ByLayer
 10
53.0150000000000006
 20
-232.5589999999999975
 30
0.0
 11
52.5870000000000033
 21
-233.2319999999999993
 31
0.0
  0
LINE
  5
83
100
AcDbEntity
100
AcDbLine
  8
0
 62
256
370
-1
  6
ByLayer
 10
52.5870000000000033
 20
-233.2319999999999993
 30
0.0
 11
52.0790000000000006
 21
-233.8470000000000084
 31
0.0
  0
LINE
  5
84
100
AcDbEntity
100
AcDbLine
  8
0
 62
256
370
-1
  6
ByLayer
 10
52.0790000000000006
 20
-233.8470000000000084
 30
0.0
 11
51.4979999999999976
 21
-234.3930000000000007
 31
0.0
  0
LINE
  5
85
100
AcDbEntity
100
AcDbLine
  8
0
 62
256
370
-1
  6
ByLayer
 10
51.4979999999999976
 20
-234.3930000000000007
 30
0.0
 11
50.8530000000000015
 21
-234.86099999999999
 31
0.0
  0
LINE
  5
86
100
AcDbEntity
100
AcDbLine
  8
0
 62
256
370
-1
  6
ByLayer
 10
50.8530000000000015
 20
-234.86099999999999
 30
0.0
 11
50.1540000000000035
 21
-235.2460000000000093
 31
0.0
  0
LINE
  5
87
100
AcDbEntity
100
AcDbLine
  8
0
 62
256
370
-1
  6
ByLayer
 10
50.1540000000000035
 20
-235.2460000000000093
 30
0.0
 11
49.411999999999999
 21
-235.5389999999999873
 31
0.0
  0
LINE
  5
88
100
AcDbEntity
100
AcDbLine
  8
0
 62
256
370
-1
  6
ByLayer
 10
49.411999999999999
 20
-235.5389999999999873
 30
0.0
 11
48.6400000000000006
 21
-235.7379999999999995
 31
0.0
  0
LINE
  5
89
100
AcDbEntity
100
AcDbLine
  8
0
 62
256
370
-1
  6
ByLayer
 10
48.6400000000000006
 20
-235.7379999999999995
 30
0.0
 11
47.8489999999999966
 21
-235.8369999999999891
 31
0.0
  0
LINE
  5
8A
100
AcDbEntity
100
AcDbLine
  8
0
 62
256
370
-1
  6
ByLayer
 10
47.8489999999999966
 20
-235.8369999999999891
 30
0.0
 11
47.4500000000000028
 21
-235.8369999999999891
 31
0.0
  0
LINE
  5
8B
100
AcDbEntity
100
AcDbLine
  8
0
 62
256
370
-1
  6
ByLayer
 10
47.4500000000000028
 20
-235.8369999999999891
 30
0.0
 11
47.4500000000000028
 21
-235.8499999999999943
 31
0.0
  0
LINE
  5
8C
100
AcDbEntity
100
AcDbLine
  8
0
 62
256
370
-1
  6
ByLayer
 10
47.4500000000000028
 20
-235.8499999999999943
 30
0.0
 11
-47.4500000000000028
 21
-235.8499999999999943
 31
0.0
  0
LINE
  5
8D
100
AcDbEntity
100
AcDbLine
  8
0
 62
256
370
-1
  6
ByLayer
 10
-47.4500000000000028
 20
-235.8499999999999943
 30
0.0
 11
-47.4500000000000028
 21
-235.8369999999999891
 31
0.0
  0
LINE
  5
8E
100
AcDbEntity
100
AcDbLine
  8
0
 62
256
370
-1
  6
ByLayer
 10
-47.4500000000000028
 20
-235.8369999999999891
 30
0.0
 11
-47.8489999999999966
 21
-235.8369999999999891
 31
0.0
  0
LINE
  5
8F
100
AcDbEntity
100
AcDbLine
  8
0
 62
256
370
-1
  6
ByLayer
 10
-47.8489999999999966
 20
-235.8369999999999891
 30
0.0
 11
-48.6400000000000006
 21
-235.7379999999999995
 31
0.0
  0
LINE
  5
90
100
AcDbEntity
100
AcDbLine
  8
0
 62
256
370
-1
  6
ByLayer
 10
-48.6400000000000006
 20
-235.7379999999999995
 30
0.0
 11
-49.411999999999999
 21
-235.5389999999999873
 31
0.0
  0
LINE
  5
91
100
AcDbEntity
100
AcDbLine
  8
0
 62
256
370
-1
  6
ByLayer
 10
-49.411999999999999
 20
-235.5389999999999873
 30
0.0
 11
-50.1540000000000035
 21
-235.2460000000000093
 31
0.0
  0
LINE
  5
92
100
AcDbEntity
100
AcDbLine
  8
0
 62
256
370
-1
  6
ByLayer
 10
-50.1540000000000035
 20
-235.2460000000000093
 30
0.0
 11
-50.8530000000000015
 21
-234.86099999999999
 31
0.0
  0
LINE
  5
93
100
AcDbEntity
100
AcDbLine
  8
0
 62
256
370
-1
  6
ByLayer
 10
-50.8530000000000015
 20
-234.86099999999999
 30
0.0
 11
-51.4979999999999976
 21
-234.3930000000000007
 31
0.0
  0
LINE
  5
94
100
AcDbEntity
100
AcDbLine
  8
0
 62
256
370
-1
  6
ByLayer
 10
-51.4979999999999976
 20
-234.3930000000000007
 30
0.0
 11
-52.0790000000000006
 21
-233.8470000000000084
 31
0.0
  0
LINE
  5
95
100
AcDbEntity
100
AcDbLine
  8
0
 62
256
370
-1
  6
ByLayer
 10
-52.0790000000000006
 20
-233.8470000000000084
 30
0.0
 11
-52.5870000000000033
 21
-233.2319999999999993
 31
0.0
  0
LINE
  5
96
100
AcDbEntity
100
AcDbLine
  8
0
 62
256
370
-1
  6
ByLayer
 10
-52.5870000000000033
 20
-233.2319999999999993
 30
0.0
 11
-53.0150000000000006
 21
-232.5589999999999975
 31
0.0
  0
LINE
  5
97
100
AcDbEntity
100
AcDbLine
  8
0
 62
256
370
-1
  6
ByLayer
 10
-53.0150000000000006
 20
-232.5589999999999975
 30
0.0
 11
-53.3539999999999992
 21
-231.8379999999999939
 31
0.0
  0
LINE
  5
98
100
AcDbEntity
100
AcDbLine
  8
0
 62
256
370
-1
  6
ByLayer
 10
-53.3539999999999992
 20
-231.8379999999999939
 30
0.0
 11
-53.6009999999999991
 21
-231.0790000000000077
 31
0.0
  0
LINE
  5
99
100
AcDbEntity
100
AcDbLine
  8
0
 62
256
370
-1
  6
ByLayer
 10
-53.6009999999999991
 20
-231.0790000000000077
 30
0.0
 11
-53.75
 21
-230.2959999999999923
 31
0.0
  0
LINE
  5
9A
100
AcDbEntity
100
AcDbLine
  8
0
 62
256
370
-1
  6
ByLayer
 10
-53.75
 20
-230.2959999999999923
 30
0.0
 11
-53.7999999999999972
 21
-229.5
 31
0.0
  0
LINE
  5
9B
100
AcDbEntity
100
AcDbLine
  8
0
 62
256
370
-1
  6
ByLayer
 10
-53.7999999999999972
 20
-47.4500000000000028
 30
0.0
 11
-53.7999999999999972
 21
47.4500000000000028
 31
0.0
  0
LINE
  5
9C
100
AcDbEntity
100
AcDbLine
  8
0
 62
256
370
-1
  6
ByLayer
 10
-53.7999999999999972
 20
47.4500000000000028
 30
0.0
 11
-53.75
 21
48.2460000000000022
 31
0.0
  0
LINE
  5
9D
100
AcDbEntity
100
AcDbLine
  8
0
 62
256
370
-1
  6
ByLayer
 10
-53.75
 20
48.2460000000000022
 30
0.0
 11
-53.6009999999999991
 21
49.0290000000000035
 31
0.0
  0
LINE
  5
9E
100
AcDbEntity
100
AcDbLine
  8
0
 62
256
370
-1
  6
ByLayer
 10
-53.6009999999999991
 20
49.0290000000000035
 30
0.0
 11
-53.3539999999999992
 21
49.7879999999999967
 31
0.0
  0
LINE
  5
9F
100
AcDbEntity
100
AcDbLine
  8
0
 62
256
370
-1
  6
ByLayer
 10
-53.3539999999999992
 20
49.7879999999999967
 30
0.0
 11
-53.0150000000000006
 21
50.5090000000000003
 31
0.0
  0
LINE
  5
A0
100
AcDbEntity
100
AcDbLine
  8
0
 62
256
370
-1
  6
ByLayer
 10
-53.0150000000000006
 20
50.5090000000000003
 30
0.0
 11
-52.5870000000000033
 21
51.1820000000000022
 31
0.0
  0
LINE
  5
A1
100
AcDbEntity
100
AcDbLine
  8
0
 62
256
370
-1
  6
ByLayer
 10
-52.5870000000000033
 20
51.1820000000000022
 30
0.0
 11
-52.0790000000000006
 21
51.796999999999997
 31
0.0
  0
LINE
  5
A2
100
AcDbEntity
100
AcDbLine
  8
0
 62
256
370
-1
  6
ByLayer
 10
-52.0790000000000006
 20
51.796999999999997
 30
0.0
 11
-51.4979999999999976
 21
52.3430000000000035
 31
0.0
  0
LINE
  5
A3
100
AcDbEntity
100
AcDbLine
  8
0
 62
256
370
-1
  6
ByLayer
 10
-51.4979999999999976
 20
52.3430000000000035
 30
0.0
 11
-50.8530000000000015
 21
52.8109999999999999
 31
0.0
  0
LINE
  5
A4
100
AcDbEntity
100
AcDbLine
  8
0
 62
256
370
-1
  6
ByLayer
 10
-50.8530000000000015
 20
52.8109999999999999
 30
0.0
 11
-50.1540000000000035
 21
53.195999999999998
 31
0.0
  0
LINE
  5
A5
100
AcDbEntity
100
AcDbLine
  8
0
 62
256
370
-1
  6
ByLayer
 10
-50.1540000000000035
 20
53.195999999999998
 30
0.0
 11
-49.411999999999999
 21
53.4889999999999972
 31
0.0
  0
LINE
  5
A6
100
AcDbEntity
100
AcDbLine
  8
0
 62
256
370
-1
  6
ByLayer
 10
-49.411999999999999
 20
53.4889999999999972
 30
0.0
 11
-48.6400000000000006
 21
53.6880000000000024
 31
0.0
  0
LINE
  5
A7
100
AcDbEntity
100
AcDbLine
  8
0
 62
256
370
-1
  6
ByLayer
 10
-48.6400000000000006
 20
53.6880000000000024
 30
0.0
 11
-47.8489999999999966
 21
53.786999999999999
 31
0.0
  0
LINE
  5
A8
100
AcDbEntity
100
AcDbLine
  8
0
 62
256
370
-1
  6
ByLayer
 10
-47.8489999999999966
 20
53.786999999999999
 30
0.0
 11
-47.4500000000000028
 21
53.786999999999999
 31
0.0
  0
LINE
  5
A9
100
AcDbEntity
100
AcDbLine
  8
0
 62
256
370
-1
  6
ByLayer
 10
-47.4500000000000028
 20
53.786999999999999
 30
0.0
 11
-47.4500000000000028
 21
53.7999999999999972
 31
0.0
  0
LINE
  5
AA
100
AcDbEntity
100
AcDbLine
  8
0
 62
256
370
-1
  6
ByLayer
 10
-47.4500000000000028
 20
53.7999999999999972
 30
0.0
 11
47.4500000000000028
 21
53.7999999999999972
 31
0.0
  0
LINE
  5
AB
100
AcDbEntity
100
AcDbLine
  8
0
 62
256
370
-1
  6
ByLayer
 10
47.4500000000000028
 20
53.7999999999999972
 30
0.0
 11
47.4500000000000028
 21
53.786999999999999
 31
0.0
  0
LINE
  5
AC
100
AcDbEntity
100
AcDbLine
  8
0
 62
256
370
-1
  6
ByLayer
 10
47.4500000000000028
 20
53.786999999999999
 30
0.0
 11
47.8489999999999966
 21
53.786999999999999
 31
0.0
  0
LINE
  5
AD
100
AcDbEntity
100
AcDbLine
  8
0
 62
256
370
-1
  6
ByLayer
 10
47.8489999999999966
 20
53.786999999999999
 30
0.0
 11
48.6400000000000006
 21
53.6880000000000024
 31
0.0
  0
LINE
  5
AE
100
AcDbEntity
100
AcDbLine
  8
0
 62
256
370
-1
  6
ByLayer
 10
48.6400000000000006
 20
53.6880000000000024
 30
0.0
 11
49.411999999999999
 21
53.4889999999999972
 31
0.0
  0
LINE
  5
AF
100
AcDbEntity
100
AcDbLine
  8
0
 62
256
370
-1
  6
ByLayer
 10
49.411999999999999
 20
53.4889999999999972
 30
0.0
 11
50.1540000000000035
 21
53.195999999999998
 31
0.0
  0
LINE
  5
B0
100
AcDbEntity
100
AcDbLine
  8
0
 62
256
370
-1
  6
ByLayer
 10
50.1540000000000035
 20
53.195999999999998
 30
0.0
 11
50.8530000000000015
 21
52.8109999999999999
 31
0.0
  0
LINE
  5
B1
100
AcDbEntity
100
AcDbLine
  8
0
 62
256
370
-1
  6
ByLayer
 10
50.8530000000000015
 20
52.8109999999999999
 30
0.0
 11
51.4979999999999976
 21
52.3430000000000035
 31
0.0
  0
LINE
  5
B2
100
AcDbEntity
100
AcDbLine
  8
0
 62
256
370
-1
  6
ByLayer
 10
51.4979999999999976
 20
52.3430000000000035
 30
0.0
 11
52.0790000000000006
 21
51.796999999999997
 31
0.0
  0
LINE
  5
B3
100
AcDbEntity
100
AcDbLine
  8
0
 62
256
370
-1
  6
ByLayer
 10
52.0790000000000006
 20
51.796999999999997
 30
0.0
 11
52.5870000000000033
 21
51.1820000000000022
 31
0.0
  0
LINE
  5
B4
100
AcDbEntity
100
AcDbLine
  8
0
 62
256
370
-1
  6
ByLayer
 10
52.5870000000000033
 20
51.1820000000000022
 30
0.0
 11
53.0150000000000006
 21
50.5090000000000003
 31
0.0
  0
LINE
  5
B5
100
AcDbEntity
100
AcDbLine
  8
0
 62
256
370
-1
  6
ByLayer
 10
53.0150000000000006
 20
50.5090000000000003
 30
0.0
 11
53.3539999999999992
 21
49.7879999999999967
 31
0.0
  0
LINE
  5
B6
100
AcDbEntity
100
AcDbLine
  8
0
 62
256
370
-1
  6
ByLayer
 10
53.3539999999999992
 20
49.7879999999999967
 30
0.0
 11
53.6009999999999991
 21
49.0290000000000035
 31
0.0
  0
LINE
  5
B7
100
AcDbEntity
100
AcDbLine
  8
0
 62
256
370
-1
  6
ByLayer
 10
53.6009999999999991
 20
49.0290000000000035
 30
0.0
 11
53.75
 21
48.2460000000000022
 31
0.0
  0
LINE
  5
B8
100
AcDbEntity
100
AcDbLine
  8
0
 62
256
370
-1
  6
ByLayer
 10
53.75
 20
48.2460000000000022
 30
0.0
 11
53.7999999999999972
 21
47.4500000000000028
 31
0.0
  0
LINE
  5
B9
100
AcDbEntity
100
AcDbLine
  8
0
 62
256
370
-1
  6
ByLayer
 10
53.7999999999999972
 20
47.4500000000000028
 30
0.0
 11
53.7999999999999972
 21
-47.4500000000000028
 31
0.0
  0
LINE
  5
BA
100
AcDbEntity
100
AcDbLine
  8
0
 62
256
370
-1
  6
ByLayer
 10
53.7999999999999972
 20
-47.4500000000000028
 30
0.0
 11
53.75
 21
-48.2460000000000022
 31
0.0
  0
LINE
  5
BB
100
AcDbEntity
100
AcDbLine
  8
0
 62
256
370
-1
  6
ByLayer
 10
53.75
 20
-48.2460000000000022
 30
0.0
 11
53.6009999999999991
 21
-49.0290000000000035
 31
0.0
  0
LINE
  5
BC
100
AcDbEntity
100
AcDbLine
  8
0
 62
256
370
-1
  6
ByLayer
 10
53.6009999999999991
 20
-49.0290000000000035
 30
0.0
 11
53.3539999999999992
 21
-49.7879999999999967
 31
0.0
  0
LINE
  5
BD
100
AcDbEntity
100
AcDbLine
  8
0
 62
256
370
-1
  6
ByLayer
 10
53.3539999999999992
 20
-49.7879999999999967
 30
0.0
 11
53.0150000000000006
 21
-50.5090000000000003
 31
0.0
  0
LINE
  5
BE
100
AcDbEntity
100
AcDbLine
  8
0
 62
256
370
-1
  6
ByLayer
 10
53.0150000000000006
 20
-50.5090000000000003
 30
0.0
 11
52.5870000000000033
 21
-51.1820000000000022
 31
0.0
  0
LINE
  5
BF
100
AcDbEntity
100
AcDbLine
  8
0
 62
256
370
-1
  6
ByLayer
 10
52.5870000000000033
 20
-51.1820000000000022
 30
0.0
 11
52.0790000000000006
 21
-51.796999999999997
 31
0.0
  0
LINE
  5
C0
100
AcDbEntity
100
AcDbLine
  8
0
 62
256
370
-1
  6
ByLayer
 10
52.0790000000000006
 20
-51.796999999999997
 30
0.0
 11
51.4979999999999976
 21
-52.3430000000000035
 31
0.0
  0
LINE
  5
C1
100
AcDbEntity
100
AcDbLine
  8
0
 62
256
370
-1
  6
ByLayer
 10
51.4979999999999976
 20
-52.3430000000000035
 30
0.0
 11
50.8530000000000015
 21
-52.8109999999999999
 31
0.0
  0
LINE
  5
C2
100
AcDbEntity
100
AcDbLine
  8
0
 62
256
370
-1
  6
ByLayer
 10
50.8530000000000015
 20
-52.8109999999999999
 30
0.0
 11
50.1540000000000035
 21
-53.195999999999998
 31
0.0
  0
LINE
  5
C3
100
AcDbEntity
100
AcDbLine
  8
0
 62
256
370
-1
  6
ByLayer
 10
50.1540000000000035
 20
-53.195999999999998
 30
0.0
 11
49.411999999999999
 21
-53.4889999999999972
 31
0.0
  0
LINE
  5
C4
100
AcDbEntity
100
AcDbLine
  8
0
 62
256
370
-1
  6
ByLayer
 10
49.411999999999999
 20
-53.4889999999999972
 30
0.0
 11
48.6400000000000006
 21
-53.6880000000000024
 31
0.0
  0
LINE
  5
C5
100
AcDbEntity
100
AcDbLine
  8
0
 62
256
370
-1
  6
ByLayer
 10
48.6400000000000006
 20
-53.6880000000000024
 30
0.0
 11
47.8489999999999966
 21
-53.786999999999999
 31
0.0
  0
LINE
  5
C6
100
AcDbEntity
100
AcDbLine
  8
0
 62
256
370
-1
  6
ByLayer
 10
47.8489999999999966
 20
-53.786999999999999
 30
0.0
 11
47.4500000000000028
 21
-53.786999999999999
 31
0.0
  0
LINE
  5
C7
100
AcDbEntity
100
AcDbLine
  8
0
 62
256
370
-1
  6
ByLayer
 10
47.4500000000000028
 20
-53.786999999999999
 30
0.0
 11
47.4500000000000028
 21
-53.7999999999999972
 31
0.0
  0
LINE
  5
C8
100
AcDbEntity
100
AcDbLine
  8
0
 62
256
370
-1
  6
ByLayer
 10
47.4500000000000028
 20
-53.7999999999999972
 30
0.0
 11
-47.4500000000000028
 21
-53.7999999999999972
 31
0.0
  0
LINE
  5
C9
100
AcDbEntity
100
AcDbLine
  8
0
 62
256
370
-1
  6
ByLayer
 10
-47.4500000000000028
 20
-53.7999999999999972
 30
0.0
 11
-47.4500000000000028
 21
-53.786999999999999
 31
0.0
  0
LINE
  5
CA
100
AcDbEntity
100
AcDbLine
  8
0
 62
256
370
-1
  6
ByLayer
 10
-47.4500000000000028
 20
-53.786999999999999
 30
0.0
 11
-47.8489999999999966
 21
-53.786999999999999
 31
0.0
  0
LINE
  5
CB
100
AcDbEntity
100
AcDbLine
  8
0
 62
256
370
-1
  6
ByLayer
 10
-47.8489999999999966
 20
-53.786999999999999
 30
0.0
 11
-48.6400000000000006
 21
-53.6880000000000024
 31
0.0
  0
LINE
  5
CC
100
AcDbEntity
100
AcDbLine
  8
0
 62
256
370
-1
  6
ByLayer
 10
-48.6400000000000006
 20
-53.6880000000000024
 30
0.0
 11
-49.411999999999999
 21
-53.4889999999999972
 31
0.0
  0
LINE
  5
CD
100
AcDbEntity
100
AcDbLine
  8
0
 62
256
370
-1
  6
ByLayer
 10
-49.411999999999999
 20
-53.4889999999999972
 30
0.0
 11
-50.1540000000000035
 21
-53.195999999999998
 31
0.0
  0
LINE
  5
CE
100
AcDbEntity
100
AcDbLine
  8
0
 62
256
370
-1
  6
ByLayer
 10
-50.1540000000000035
 20
-53.195999999999998
 30
0.0
 11
-50.8530000000000015
 21
-52.8109999999999999
 31
0.0
  0
LINE
  5
CF
100
AcDbEntity
100
AcDbLine
  8
0
 62
256
370
-1
  6
ByLayer
 10
-50.8530000000000015
 20
-52.8109999999999999
 30
0.0
 11
-51.4979999999999976
 21
-52.3430000000000035
 31
0.0
  0
LINE
  5
D0
100
AcDbEntity
100
AcDbLine
  8
0
 62
256
370
-1
  6
ByLayer
 10
-51.4979999999999976
 20
-52.3430000000000035
 30
0.0
 11
-52.0790000000000006
 21
-51.796999999999997
 31
0.0
  0
LINE
  5
D1
100
AcDbEntity
100
AcDbLine
  8
0
 62
256
370
-1
  6
ByLayer
 10
-52.0790000000000006
 20
-51.796999999999997
 30
0.0
 11
-52.5870000000000033
 21
-51.1820000000000022
 31
0.0
  0
LINE
  5
D2
100
AcDbEntity
100
AcDbLine
  8
0
 62
256
370
-1
  6
ByLayer
 10
-52.5870000000000033
 20
-51.1820000000000022
 30
0.0
 11
-53.0150000000000006
 21
-50.5090000000000003
 31
0.0
  0
LINE
  5
D3
100
AcDbEntity
100
AcDbLine
  8
0
 62
256
370
-1
  6
ByLayer
 10
-53.0150000000000006
 20
-50.5090000000000003
 30
0.0
 11
-53.3539999999999992
 21
-49.7879999999999967
 31
0.0
  0
LINE
  5
D4
100
AcDbEntity
100
AcDbLine
  8
0
 62
256
370
-1
  6
ByLayer
 10
-53.3539999999999992
 20
-49.7879999999999967
 30
0.0
 11
-53.6009999999999991
 21
-49.0290000000000035
 31
0.0
  0
LINE
  5
D5
100
AcDbEntity
100
AcDbLine
  8
0
 62
256
370
-1
  6
ByLayer
 10
-53.6009999999999991
 20
-49.0290000000000035
 30
0.0
 11
-53.75
 21
-48.2460000000000022
 31
0.0
  0
LINE
  5
D6
100
AcDbEntity
100
AcDbLine
  8
0
 62
256
370
-1
  6
ByLayer
 10
-53.75
 20
-48.2460000000000022
 30
0.0
 11
-53.7999999999999972
 21
-47.4500000000000028
 31
0.0
  0
LINE
  5
D7
100
AcDbEntity
100
AcDbLine
  8
0
 62
256
370
-1
  6
ByLayer
 10
-50.9230000000000018
 20
-231.5
 30
0.0
 11
-50.911999999999999
 21
-231.3149999999999977
 31
0.0
  0
LINE
  5
D8
100
AcDbEntity
100
AcDbLine
  8
0
 62
256
370
-1
  6
ByLayer
 10
-50.911999999999999
 20
-231.3149999999999977
 30
0.0
 11
-50.8770000000000024
 21
-231.1339999999999861
 31
0.0
  0
LINE
  5
D9
100
AcDbEntity
100
AcDbLine
  8
0
 62
256
370
-1
  6
ByLayer
 10
-50.8770000000000024
 20
-231.1339999999999861
 30
0.0
 11
-50.8200000000000003
 21
-230.9579999999999984
 31
0.0
  0
LINE
  5
DA
100
AcDbEntity
100
AcDbLine
  8
0
 62
256
370
-1
  6
ByLayer
 10
-50.8200000000000003
 20
-230.9579999999999984
 30
0.0
 11
-50.7409999999999997
 21
-230.789999999999992
 31
0.0
  0
LINE
  5
DB
100
AcDbEntity
100
AcDbLine
  8
0
 62
256
370
-1
  6
ByLayer
 10
-50.7409999999999997
 20
-230.789999999999992
 30
0.0
 11
-50.642000000000003
 21
-230.6339999999999861
 31
0.0
  0
LINE
  5
DC
100
AcDbEntity
100
AcDbLine
  8
0
 62
256
370
-1
  6
ByLayer
 10
-50.642000000000003
 20
-230.6339999999999861
 30
0.0
 11
-50.5240000000000009
 21
-230.4919999999999902
 31
0.0
  0
LINE
  5
DD
100
AcDbEntity
100
AcDbLine
  8
0
 62
256
370
-1
  6
ByLayer
 10
-50.5240000000000009
 20
-230.4919999999999902
 30
0.0
 11
-50.3890000000000029
 21
-230.3650000000000091
 31
0.0
  0
LINE
  5
DE
100
AcDbEntity
100
AcDbLine
  8
0
 62
256
370
-1
  6
ByLayer
 10
-50.3890000000000029
 20
-230.3650000000000091
 30
0.0
 11
-50.2389999999999972
 21
-230.2560000000000002
 31
0.0
  0
LINE
  5
DF
100
AcDbEntity
100
AcDbLine
  8
0
 62
256
370
-1
  6
ByLayer
 10
-50.2389999999999972
 20
-230.2560000000000002
 30
0.0
 11
-50.0769999999999982
 21
-230.1670000000000016
 31
0.0
  0
LINE
  5
E0
100
AcDbEntity
100
AcDbLine
  8
0
 62
256
370
-1
  6
ByLayer
 10
-50.0769999999999982
 20
-230.1670000000000016
 30
0.0
 11
-49.9050000000000011
 21
-230.0989999999999895
 31
0.0
  0
LINE
  5
E1
100
AcDbEntity
100
AcDbLine
  8
0
 62
256
370
-1
  6
ByLayer
 10
-49.9050000000000011
 20
-230.0989999999999895
 30
0.0
 11
-49.7259999999999991
 21
-230.0529999999999973
 31
0.0
  0
LINE
  5
E2
100
AcDbEntity
100
AcDbLine
  8
0
 62
256
370
-1
  6
ByLayer
 10
-49.7259999999999991
 20
-230.0529999999999973
 30
0.0
 11
-49.5429999999999993
 21
-230.0300000000000011
 31
0.0
  0
LINE
  5
E3
100
AcDbEntity
100
AcDbLine
  8
0
 62
256
370
-1
  6
ByLayer
 10
-49.5429999999999993
 20
-230.0300000000000011
 30
0.0
 11
-49.3569999999999993
 21
-230.0300000000000011
 31
0.0
  0
LINE
  5
E4
100
AcDbEntity
100
AcDbLine
  8
0
 62
256
370
-1
  6
ByLayer
 10
-49.3569999999999993
 20
-230.0300000000000011
 30
0.0
 11
-49.1739999999999995
 21
-230.0529999999999973
 31
0.0
  0
LINE
  5
E5
100
AcDbEntity
100
AcDbLine
  8
0
 62
256
370
-1
  6
ByLayer
 10
-49.1739999999999995
 20
-230.0529999999999973
 30
0.0
 11
-48.9949999999999974
 21
-230.0989999999999895
 31
0.0
  0
LINE
  5
E6
100
AcDbEntity
100
AcDbLine
  8
0
 62
256
370
-1
  6
ByLayer
 10
-48.9949999999999974
 20
-230.0989999999999895
 30
0.0
 11
-48.8230000000000004
 21
-230.1670000000000016
 31
0.0
  0
LINE
  5
E7
100
AcDbEntity
100
AcDbLine
  8
0
 62
256
370
-1
  6
ByLayer
 10
-48.8230000000000004
 20
-230.1670000000000016
 30
0.0
 11
-48.6610000000000014
 21
-230.2560000000000002
 31
0.0
  0
LINE
  5
E8
100
AcDbEntity
100
AcDbLine
  8
0
 62
256
370
-1
  6
ByLayer
 10
-48.6610000000000014
 20
-230.2560000000000002
 30
0.0
 11
-48.5110000000000028
 21
-230.3650000000000091
 31
0.0
  0
LINE
  5
E9
100
AcDbEntity
100
AcDbLine
  8
0
 62
256
370
-1
  6
ByLayer
 10
-48.5110000000000028
 20
-230.3650000000000091
 30
0.0
 11
-48.3759999999999977
 21
-230.4919999999999902
 31
0.0
  0
LINE
  5
EA
100
AcDbEntity
100
AcDbLine
  8
0
 62
256
370
-1
  6
ByLayer
 10
-48.3759999999999977
 20
-230.4919999999999902
 30
0.0
 11
-48.2580000000000027
 21
-230.6339999999999861
 31
0.0
  0
LINE
  5
EB
100
AcDbEntity
100
AcDbLine
  8
0
 62
256
370
-1
  6
ByLayer
 10
-48.2580000000000027
 20
-230.6339999999999861
 30
0.0
 11
-48.1589999999999989
 21
-230.789999999999992
 31
0.0
  0
LINE
  5
EC
100
AcDbEntity
100
AcDbLine
  8
0
 62
256
370
-1
  6
ByLayer
 10
-48.1589999999999989
 20
-230.789999999999992
 30
0.0
 11
-48.0799999999999983
 21
-230.9579999999999984
 31
0.0
  0
LINE
  5
ED
100
AcDbEntity
100
AcDbLine
  8
0
 62
256
370
-1
  6
ByLayer
 10
-48.0799999999999983
 20
-230.9579999999999984
 30
0.0
 11
-48.0230000000000032
 21
-231.1339999999999861
 31
0.0
  0
LINE
  5
EE
100
AcDbEntity
100
AcDbLine
  8
0
 62
256
370
-1
  6
ByLayer
 10
-48.0230000000000032
 20
-231.1339999999999861
 30
0.0
 11
-47.9879999999999995
 21
-231.3149999999999977
 31
0.0
  0
LINE
  5
EF
100
AcDbEntity
100
AcDbLine
  8
0
 62
256
370
-1
  6
ByLayer
 10
-47.9879999999999995
 20
-231.3149999999999977
 30
0.0
 11
-47.9769999999999968
 21
-231.5
 31
0.0
  0
LINE
  5
F0
100
AcDbEntity
100
AcDbLine
  8
0
 62
256
370
-1
  6
ByLayer
 10
-47.9769999999999968
 20
-231.5
 30
0.0
 11
-47.9879999999999995
 21
-231.6850000000000023
 31
0.0
  0
LINE
  5
F1
100
AcDbEntity
100
AcDbLine
  8
0
 62
256
370
-1
  6
ByLayer
 10
-47.9879999999999995
 20
-231.6850000000000023
 30
0.0
 11
-48.0230000000000032
 21
-231.8660000000000139
 31
0.0
  0
LINE
  5
F2
100
AcDbEntity
100
AcDbLine
  8
0
 62
256
370
-1
  6
ByLayer
 10
-48.0230000000000032
 20
-231.8660000000000139
 30
0.0
 11
-48.0799999999999983
 21
-232.0420000000000016
 31
0.0
  0
LINE
  5
F3
100
AcDbEntity
100
AcDbLine
  8
0
 62
256
370
-1
  6
ByLayer
 10
-48.0799999999999983
 20
-232.0420000000000016
 30
0.0
 11
-48.1589999999999989
 21
-232.210000000000008
 31
0.0
  0
LINE
  5
F4
100
AcDbEntity
100
AcDbLine
  8
0
 62
256
370
-1
  6
ByLayer
 10
-48.1589999999999989
 20
-232.210000000000008
 30
0.0
 11
-48.2580000000000027
 21
-232.3660000000000139
 31
0.0
  0
LINE
  5
F5
100
AcDbEntity
100
AcDbLine
  8
0
 62
256
370
-1
  6
ByLayer
 10
-48.2580000000000027
 20
-232.3660000000000139
 30
0.0
 11
-48.3759999999999977
 21
-232.5080000000000098
 31
0.0
  0
LINE
  5
F6
100
AcDbEntity
100
AcDbLine
  8
0
 62
256
370
-1
  6
ByLayer
 10
-48.3759999999999977
 20
-232.5080000000000098
 30
0.0
 11
-48.5110000000000028
 21
-232.6349999999999909
 31
0.0
  0
LINE
  5
F7
100
AcDbEntity
100
AcDbLine
  8
0
 62
256
370
-1
  6
ByLayer
 10
-48.5110000000000028
 20
-232.6349999999999909
 30
0.0
 11
-48.6610000000000014
 21
-232.7439999999999998
 31
0.0
  0
LINE
  5
F8
100
AcDbEntity
100
AcDbLine
  8
0
 62
256
370
-1
  6
ByLayer
 10
-48.6610000000000014
 20
-232.7439999999999998
 30
0.0
 11
-48.8230000000000004
 21
-232.8329999999999984
 31
0.0
  0
LINE
  5
F9
100
AcDbEntity
100
AcDbLine
  8
0
 62
256
370
-1
  6
ByLayer
 10
-48.8230000000000004
 20
-232.8329999999999984
 30
0.0
 11
-48.9949999999999974
 21
-232.9010000000000105
 31
0.0
  0
LINE
  5
FA
100
AcDbEntity
100
AcDbLine
  8
0
 62
256
370
-1
  6
ByLayer
 10
-48.9949999999999974
 20
-232.9010000000000105
 30
0.0
 11
-49.1739999999999995
 21
-232.9470000000000027
 31
0.0
  0
LINE
  5
FB
100
AcDbEntity
100
AcDbLine
  8
0
 62
256
370
-1
  6
ByLayer
 10
-49.1739999999999995
 20
-232.9470000000000027
 30
0.0
 11
-49.3569999999999993
 21
-232.9699999999999989
 31
0.0
  0
LINE
  5
FC
100
AcDbEntity
100
AcDbLine
  8
0
 62
256
370
-1
  6
ByLayer
 10
-49.3569999999999993
 20
-232.9699999999999989
 30
0.0
 11
-49.5429999999999993
 21
-232.9699999999999989
 31
0.0
  0
LINE
  5
FD
100
AcDbEntity
100
AcDbLine
  8
0
 62
256
370
-1
  6
ByLayer
 10
-49.5429999999999993
 20
-232.9699999999999989
 30
0.0
 11
-49.7259999999999991
 21
-232.9470000000000027
 31
0.0
  0
LINE
  5
FE
100
AcDbEntity
100
AcDbLine
  8
0
 62
256
370
-1
  6
ByLayer
 10
-49.7259999999999991
 20
-232.9470000000000027
 30
0.0
 11
-49.9050000000000011
 21
-232.9010000000000105
 31
0.0
  0
LINE
  5
FF
100
AcDbEntity
100
AcDbLine
  8
0
 62
256
370
-1
  6
ByLayer
 10
-49.9050000000000011
 20
-232.9010000000000105
 30
0.0
 11
-50.0769999999999982
 21
-232.8329999999999984
 31
0.0
  0
LINE
  5
100
100
AcDbEntity
100
AcDbLine
  8
0
 62
256
370
-1
  6
ByLayer
 10
-50.0769999999999982
 20
-232.8329999999999984
 30
0.0
 11
-50.2389999999999972
 21
-232.7439999999999998
 31
0.0
  0
LINE
  5
101
100
AcDbEntity
100
AcDbLine
  8
0
 62
256
370
-1
  6
ByLayer
 10
-50.2389999999999972
 20
-232.7439999999999998
 30
0.0
 11
-50.3890000000000029
 21
-232.6349999999999909
 31
0.0
  0
LINE
  5
102
100
AcDbEntity
100
AcDbLine
  8
0
 62
256
370
-1
  6
ByLayer
 10
-50.3890000000000029
 20
-232.6349999999999909
 30
0.0
 11
-50.5240000000000009
 21
-232.5080000000000098
 31
0.0
  0
LINE
  5
103
100
AcDbEntity
100
AcDbLine
  8
0
 62
256
370
-1
  6
ByLayer
 10
-50.5240000000000009
 20
-232.5080000000000098
 30
0.0
 11
-50.642000000000003
 21
-232.3660000000000139
 31
0.0
  0
LINE
  5
104
100
AcDbEntity
100
AcDbLine
  8
0
 62
256
370
-1
  6
ByLayer
 10
-50.642000000000003
 20
-232.3660000000000139
 30
0.0
 11
-50.7409999999999997
 21
-232.210000000000008
 31
0.0
  0
LINE
  5
105
100
AcDbEntity
100
AcDbLine
  8
0
 62
256
370
-1
  6
ByLayer
 10
-50.7409999999999997
 20
-232.210000000000008
 30
0.0
 11
-50.8200000000000003
 21
-232.0420000000000016
 31
0.0
  0
LINE
  5
106
100
AcDbEntity
100
AcDbLine
  8
0
 62
256
370
-1
  6
ByLayer
 10
-50.8200000000000003
 20
-232.0420000000000016
 30
0.0
 11
-50.8770000000000024
 21
-231.8660000000000139
 31
0.0
  0
LINE
  5
107
100
AcDbEntity
100
AcDbLine
  8
0
 62
256
370
-1
  6
ByLayer
 10
-50.8770000000000024
 20
-231.8660000000000139
 30
0.0
 11
-50.911999999999999
 21
-231.6850000000000023
 31
0.0
  0
LINE
  5
108
100
AcDbEntity
100
AcDbLine
  8
0
 62
256
370
-1
  6
ByLayer
 10
-50.911999999999999
 20
-231.6850000000000023
 30
0.0
 11
-50.9230000000000018
 21
-231.5
 31
0.0
  0
LINE
  5
109
100
AcDbEntity
100
AcDbLine
  8
0
 62
256
370
-1
  6
ByLayer
 10
-50.9230000000000018
 20
-132.5999999999999943
 30
0.0
 11
-50.911999999999999
 21
-132.414999999999992
 31
0.0
  0
LINE
  5
10A
100
AcDbEntity
100
AcDbLine
  8
0
 62
256
370
-1
  6
ByLayer
 10
-50.911999999999999
 20
-132.414999999999992
 30
0.0
 11
-50.8770000000000024
 21
-132.2340000000000089
 31
0.0
  0
LINE
  5
10B
100
AcDbEntity
100
AcDbLine
  8
0
 62
256
370
-1
  6
ByLayer
 10
-50.8770000000000024
 20
-132.2340000000000089
 30
0.0
 11
-50.8200000000000003
 21
-132.0579999999999927
 31
0.0
  0
LINE
  5
10C
100
AcDbEntity
100
AcDbLine
  8
0
 62
256
370
-1
  6
ByLayer
 10
-50.8200000000000003
 20
-132.0579999999999927
 30
0.0
 11
-50.7409999999999997
 21
-131.8899999999999864
 31
0.0
  0
LINE
  5
10D
100
AcDbEntity
100
AcDbLine
  8
0
 62
256
370
-1
  6
ByLayer
 10
-50.7409999999999997
 20
-131.8899999999999864
 30
0.0
 11
-50.642000000000003
 21
-131.7340000000000089
 31
0.0
  0
LINE
  5
10E
100
AcDbEntity
100
AcDbLine
  8
0
 62
256
370
-1
  6
ByLayer
 10
-50.642000000000003
 20
-131.7340000000000089
 30
0.0
 11
-50.5240000000000009
 21
-131.592000000000013
 31
0.0
  0
LINE
  5
10F
100
AcDbEntity
100
AcDbLine
  8
0
 62
256
370
-1
  6
ByLayer
 10
-50.5240000000000009
 20
-131.592000000000013
 30
0.0
 11
-50.3890000000000029
 21
-131.4650000000000034
 31
0.0
  0
LINE
  5
110
100
AcDbEntity
100
AcDbLine
  8
0
 62
256
370
-1
  6
ByLayer
 10
-50.3890000000000029
 20
-131.4650000000000034
 30
0.0
 11
-50.2389999999999972
 21
-131.3559999999999945
 31
0.0
  0
LINE
  5
111
100
AcDbEntity
100
AcDbLine
  8
0
 62
256
370
-1
  6
ByLayer
 10
-50.2389999999999972
 20
-131.3559999999999945
 30
0.0
 11
-50.0769999999999982
 21
-131.2669999999999959
 31
0.0
  0
LINE
  5
112
100
AcDbEntity
100
AcDbLine
  8
0
 62
256
370
-1
  6
ByLayer
 10
-50.0769999999999982
 20
-131.2669999999999959
 30
0.0
 11
-49.9050000000000011
 21
-131.1990000000000123
 31
0.0
  0
LINE
  5
113
100
AcDbEntity
100
AcDbLine
  8
0
 62
256
370
-1
  6
ByLayer
 10
-49.9050000000000011
 20
-131.1990000000000123
 30
0.0
 11
-49.7259999999999991
 21
-131.1529999999999916
 31
0.0
  0
LINE
  5
114
100
AcDbEntity
100
AcDbLine
  8
0
 62
256
370
-1
  6
ByLayer
 10
-49.7259999999999991
 20
-131.1529999999999916
 30
0.0
 11
-49.5429999999999993
 21
-131.1299999999999955
 31
0.0
  0
LINE
  5
115
100
AcDbEntity
100
AcDbLine
  8
0
 62
256
370
-1
  6
ByLayer
 10
-49.5429999999999993
 20
-131.1299999999999955
 30
0.0
 11
-49.3569999999999993
 21
-131.1299999999999955
 31
0.0
  0
LINE
  5
116
100
AcDbEntity
100
AcDbLine
  8
0
 62
256
370
-1
  6
ByLayer
 10
-49.3569999999999993
 20
-131.1299999999999955
 30
0.0
 11
-49.1739999999999995
 21
-131.1529999999999916
 31
0.0
  0
LINE
  5
117
100
AcDbEntity
100
AcDbLine
  8
0
 62
256
370
-1
  6
ByLayer
 10
-49.1739999999999995
 20
-131.1529999999999916
 30
0.0
 11
-48.9949999999999974
 21
-131.1990000000000123
 31
0.0
  0
LINE
  5
118
100
AcDbEntity
100
AcDbLine
  8
0
 62
256
370
-1
  6
ByLayer
 10
-48.9949999999999974
 20
-131.1990000000000123
 30
0.0
 11
-48.8230000000000004
 21
-131.2669999999999959
 31
0.0
  0
LINE
  5
119
100
AcDbEntity
100
AcDbLine
  8
0
 62
256
370
-1
  6
ByLayer
 10
-48.8230000000000004
 20
-131.2669999999999959
 30
0.0
 11
-48.6610000000000014
 21
-131.3559999999999945
 31
0.0
  0
LINE
  5
11A
100
AcDbEntity
100
AcDbLine
  8
0
 62
256
370
-1
  6
ByLayer
 10
-48.6610000000000014
 20
-131.3559999999999945
 30
0.0
 11
-48.5110000000000028
 21
-131.4650000000000034
 31
0.0
  0
LINE
  5
11B
100
AcDbEntity
100
AcDbLine
  8
0
 62
256
370
-1
  6
ByLayer
 10
-48.5110000000000028
 20
-131.4650000000000034
 30
0.0
 11
-48.3759999999999977
 21
-131.592000000000013
 31
0.0
  0
LINE
  5
11C
100
AcDbEntity
100
AcDbLine
  8
0
 62
256
370
-1
  6
ByLayer
 10
-48.3759999999999977
 20
-131.592000000000013
 30
0.0
 11
-48.2580000000000027
 21
-131.7340000000000089
 31
0.0
  0
LINE
  5
11D
100
AcDbEntity
100
AcDbLine
  8
0
 62
256
370
-1
  6
ByLayer
 10
-48.2580000000000027
 20
-131.7340000000000089
 30
0.0
 11
-48.1589999999999989
 21
-131.8899999999999864
 31
0.0
  0
LINE
  5
11E
100
AcDbEntity
100
AcDbLine
  8
0
 62
256
370
-1
  6
ByLayer
 10
-48.1589999999999989
 20
-131.8899999999999864
 30
0.0
 11
-48.0799999999999983
 21
-132.0579999999999927
 31
0.0
  0
LINE
  5
11F
100
AcDbEntity
100
AcDbLine
  8
0
 62
256
370
-1
  6
ByLayer
 10
-48.0799999999999983
 20
-132.0579999999999927
 30
0.0
 11
-48.0230000000000032
 21
-132.2340000000000089
 31
0.0
  0
LINE
  5
120
100
AcDbEntity
100
AcDbLine
  8
0
 62
256
370
-1
  6
ByLayer
 10
-48.0230000000000032
 20
-132.2340000000000089
 30
0.0
 11
-47.9879999999999995
 21
-132.414999999999992
 31
0.0
  0
LINE
  5
121
100
AcDbEntity
100
AcDbLine
  8
0
 62
256
370
-1
  6
ByLayer
 10
-47.9879999999999995
 20
-132.414999999999992
 30
0.0
 11
-47.9769999999999968
 21
-132.5999999999999943
 31
0.0
  0
LINE
  5
122
100
AcDbEntity
100
AcDbLine
  8
0
 62
256
370
-1
  6
ByLayer
 10
-47.9769999999999968
 20
-132.5999999999999943
 30
0.0
 11
-47.9879999999999995
 21
-132.7849999999999966
 31
0.0
  0
LINE
  5
123
100
AcDbEntity
100
AcDbLine
  8
0
 62
256
370
-1
  6
ByLayer
 10
-47.9879999999999995
 20
-132.7849999999999966
 30
0.0
 11
-48.0230000000000032
 21
-132.9660000000000082
 31
0.0
  0
LINE
  5
124
100
AcDbEntity
100
AcDbLine
  8
0
 62
256
370
-1
  6
ByLayer
 10
-48.0230000000000032
 20
-132.9660000000000082
 30
0.0
 11
-48.0799999999999983
 21
-133.1419999999999959
 31
0.0
  0
LINE
  5
125
100
AcDbEntity
100
AcDbLine
  8
0
 62
256
370
-1
  6
ByLayer
 10
-48.0799999999999983
 20
-133.1419999999999959
 30
0.0
 11
-48.1589999999999989
 21
-133.3100000000000023
 31
0.0
  0
LINE
  5
126
100
AcDbEntity
100
AcDbLine
  8
0
 62
256
370
-1
  6
ByLayer
 10
-48.1589999999999989
 20
-133.3100000000000023
 30
0.0
 11
-48.2580000000000027
 21
-133.4660000000000082
 31
0.0
  0
LINE
  5
127
100
AcDbEntity
100
AcDbLine
  8
0
 62
256
370
-1
  6
ByLayer
 10
-48.2580000000000027
 20
-133.4660000000000082
 30
0.0
 11
-48.3759999999999977
 21
-133.6080000000000041
 31
0.0
  0
LINE
  5
128
100
AcDbEntity
100
AcDbLine
  8
0
 62
256
370
-1
  6
ByLayer
 10
-48.3759999999999977
 20
-133.6080000000000041
 30
0.0
 11
-48.5110000000000028
 21
-133.7350000000000136
 31
0.0
  0
LINE
  5
129
100
AcDbEntity
100
AcDbLine
  8
0
 62
256
370
-1
  6
ByLayer
 10
-48.5110000000000028
 20
-133.7350000000000136
 30
0.0
 11
-48.6610000000000014
 21
-133.8439999999999941
 31
0.0
  0
LINE
  5
12A
100
AcDbEntity
100
AcDbLine
  8
0
 62
256
370
-1
  6
ByLayer
 10
-48.6610000000000014
 20
-133.8439999999999941
 30
0.0
 11
-48.8230000000000004
 21
-133.9329999999999927
 31
0.0
  0
LINE
  5
12B
100
AcDbEntity
100
AcDbLine
  8
0
 62
256
370
-1
  6
ByLayer
 10
-48.8230000000000004
 20
-133.9329999999999927
 30
0.0
 11
-48.9949999999999974
 21
-134.0010000000000048
 31
0.0
  0
LINE
  5
12C
100
AcDbEntity
100
AcDbLine
  8
0
 62
256
370
-1
  6
ByLayer
 10
-48.9949999999999974
 20
-134.0010000000000048
 30
0.0
 11
-49.1739999999999995
 21
-134.046999999999997
 31
0.0
  0
LINE
  5
12D
100
AcDbEntity
100
AcDbLine
  8
0
 62
256
370
-1
  6
ByLayer
 10
-49.1739999999999995
 20
-134.046999999999997
 30
0.0
 11
-49.3569999999999993
 21
-134.0699999999999932
 31
0.0
  0
LINE
  5
12E
100
AcDbEntity
100
AcDbLine
  8
0
 62
256
370
-1
  6
ByLayer
 10
-49.3569999999999993
 20
-134.0699999999999932
 30
0.0
 11
-49.5429999999999993
 21
-134.0699999999999932
 31
0.0
  0
LINE
  5
12F
100
AcDbEntity
100
AcDbLine
  8
0
 62
256
370
-1
  6
ByLayer
 10
-49.5429999999999993
 20
-134.0699999999999932
 30
0.0
 11
-49.7259999999999991
 21
-134.046999999999997
 31
0.0
  0
LINE
  5
130
100
AcDbEntity
100
AcDbLine
  8
0
 62
256
370
-1
  6
ByLayer
 10
-49.7259999999999991
 20
-134.046999999999997
 30
0.0
 11
-49.9050000000000011
 21
-134.0010000000000048
 31
0.0
  0
LINE
  5
131
100
AcDbEntity
100
AcDbLine
  8
0
 62
256
370
-1
  6
ByLayer
 10
-49.9050000000000011
 20
-134.0010000000000048
 30
0.0
 11
-50.0769999999999982
 21
-133.9329999999999927
 31
0.0
  0
LINE
  5
132
100
AcDbEntity
100
AcDbLine
  8
0
 62
256
370
-1
  6
ByLayer
 10
-50.0769999999999982
 20
-133.9329999999999927
 30
0.0
 11
-50.2389999999999972
 21
-133.8439999999999941
 31
0.0
  0
LINE
  5
133
100
AcDbEntity
100
AcDbLine
  8
0
 62
256
370
-1
  6
ByLayer
 10
-50.2389999999999972
 20
-133.8439999999999941
 30
0.0
 11
-50.3890000000000029
 21
-133.7350000000000136
 31
0.0
  0
LINE
  5
134
100
AcDbEntity
100
AcDbLine
  8
0
 62
256
370
-1
  6
ByLayer
 10
-50.3890000000000029
 20
-133.7350000000000136
 30
0.0
 11
-50.5240000000000009
 21
-133.6080000000000041
 31
0.0
  0
LINE
  5
135
100
AcDbEntity
100
AcDbLine
  8
0
 62
256
370
-1
  6
ByLayer
 10
-50.5240000000000009
 20
-133.6080000000000041
 30
0.0
 11
-50.642000000000003
 21
-133.4660000000000082
 31
0.0
  0
LINE
  5
136
100
AcDbEntity
100
AcDbLine
  8
0
 62
256
370
-1
  6
ByLayer
 10
-50.642000000000003
 20
-133.4660000000000082
 30
0.0
 11
-50.7409999999999997
 21
-133.3100000000000023
 31
0.0
  0
LINE
  5
137
100
AcDbEntity
100
AcDbLine
  8
0
 62
256
370
-1
  6
ByLayer
 10
-50.7409999999999997
 20
-133.3100000000000023
 30
0.0
 11
-50.8200000000000003
 21
-133.1419999999999959
 31
0.0
  0
LINE
  5
138
100
AcDbEntity
100
AcDbLine
  8
0
 62
256
370
-1
  6
ByLayer
 10
-50.8200000000000003
 20
-133.1419999999999959
 30
0.0
 11
-50.8770000000000024
 21
-132.9660000000000082
 31
0.0
  0
LINE
  5
139
100
AcDbEntity
100
AcDbLine
  8
0
 62
256
370
-1
  6
ByLayer
 10
-50.8770000000000024
 20
-132.9660000000000082
 30
0.0
 11
-50.911999999999999
 21
-132.7849999999999966
 31
0.0
  0
LINE
  5
13A
100
AcDbEntity
100
AcDbLine
  8
0
 62
256
370
-1
  6
ByLayer
 10
-50.911999999999999
 20
-132.7849999999999966
 30
0.0
 11
-50.9230000000000018
 21
-132.5999999999999943
 31
0.0
  0
LINE
  5
13B
100
AcDbEntity
100
AcDbLine
  8
0
 62
256
370
-1
  6
ByLayer
 10
-47.4500000000000028
 20
-215.3000000000000114
 30
0.0
 11
-47.4500000000000028
 21
-196.25
 31
0.0
  0
LINE
  5
13C
100
AcDbEntity
100
AcDbLine
  8
0
 62
256
370
-1
  6
ByLayer
 10
-47.4500000000000028
 20
-196.25
 30
0.0
 11
-44.4500000000000028
 21
-196.25
 31
0.0
  0
LINE
  5
13D
100
AcDbEntity
100
AcDbLine
  8
0
 62
256
370
-1
  6
ByLayer
 10
-44.4500000000000028
 20
-196.25
 30
0.0
 11
-44.4500000000000028
 21
-215.3000000000000114
 31
0.0
  0
LINE
  5
13E
100
AcDbEntity
100
AcDbLine
  8
0
 62
256
370
-1
  6
ByLayer
 10
-44.4500000000000028
 20
-215.3000000000000114
 30
0.0
 11
-47.4500000000000028
 21
-215.3000000000000114
 31
0.0
  0
LINE
  5
13F
100
AcDbEntity
100
AcDbLine
  8
0
 62
256
370
-1
  6
ByLayer
 10
-47.4500000000000028
 20
-167.8499999999999943
 30
0.0
 11
-47.4500000000000028
 21
-148.8000000000000114
 31
0.0
  0
LINE
  5
140
100
AcDbEntity
100
AcDbLine
  8
0
 62
256
370
-1
  6
ByLayer
 10
-47.4500000000000028
 20
-148.8000000000000114
 30
0.0
 11
-44.4500000000000028
 21
-148.8000000000000114
 31
0.0
  0
LINE
  5
141
100
AcDbEntity
100
AcDbLine
  8
0
 62
256
370
-1
  6
ByLayer
 10
-44.4500000000000028
 20
-148.8000000000000114
 30
0.0
 11
-44.4500000000000028
 21
-167.8499999999999943
 31
0.0
  0
LINE
  5
142
100
AcDbEntity
100
AcDbLine
  8
0
 62
256
370
-1
  6
ByLayer
 10
-44.4500000000000028
 20
-167.8499999999999943
 30
0.0
 11
-47.4500000000000028
 21
-167.8499999999999943
 31
0.0
  0
LINE
  5
143
100
AcDbEntity
100
AcDbLine
  8
0
 62
256
370
-1
  6
ByLayer
 10
-47.4500000000000028
 20
-97.375
 30
0.0
 11
-47.4500000000000028
 21
-84.6749999999999972
 31
0.0
  0
LINE
  5
144
100
AcDbEntity
100
AcDbLine
  8
0
 62
256
370
-1
  6
ByLayer
 10
-47.4500000000000028
 20
-84.6749999999999972
 30
0.0
 11
-44.4500000000000028
 21
-84.6749999999999972
 31
0.0
  0
LINE
  5
145
100
AcDbEntity
100
AcDbLine
  8
0
 62
256
370
-1
  6
ByLayer
 10
-44.4500000000000028
 20
-84.6749999999999972
 30
0.0
 11
-44.4500000000000028
 21
-68.7999999999999972
 31
0.0
  0
LINE
  5
146
100
AcDbEntity
100
AcDbLine
  8
0
 62
256
370
-1
  6
ByLayer
 10
-44.4500000000000028
 20
-68.7999999999999972
 30
0.0
 11
-31.75
 21
-68.7999999999999972
 31
0.0
  0
LINE
  5
147
100
AcDbEntity
100
AcDbLine
  8
0
 62
256
370
-1
  6
ByLayer
 10
-31.75
 20
-68.7999999999999972
 30
0.0
 11
-31.75
 21
-65.7999999999999972
 31
0.0
  0
LINE
  5
148
100
AcDbEntity
100
AcDbLine
  8
0
 62
256
370
-1
  6
ByLayer
 10
-31.75
 20
-65.7999999999999972
 30
0.0
 11
-12.6999999999999993
 21
-65.7999999999999972
 31
0.0
  0
LINE
  5
149
100
AcDbEntity
100
AcDbLine
  8
0
 62
256
370
-1
  6
ByLayer
 10
-12.6999999999999993
 20
-65.7999999999999972
 30
0.0
 11
-12.6999999999999993
 21
-68.7999999999999972
 31
0.0
  0
LINE
  5
14A
100
AcDbEntity
100
AcDbLine
  8
0
 62
256
370
-1
  6
ByLayer
 10
-12.6999999999999993
 20
-68.7999999999999972
 30
0.0
 11
12.6999999999999993
 21
-68.7999999999999972
 31
0.0
  0
LINE
  5
14B
100
AcDbEntity
100
AcDbLine
  8
0
 62
256
370
-1
  6
ByLayer
 10
12.6999999999999993
 20
-68.7999999999999972
 30
0.0
 11
12.6999999999999993
 21
-65.7999999999999972
 31
0.0
  0
LINE
  5
14C
100
AcDbEntity
100
AcDbLine
  8
0
 62
256
370
-1
  6
ByLayer
 10
12.6999999999999993
 20
-65.7999999999999972
 30
0.0
 11
31.75
 21
-65.7999999999999972
 31
0.0
  0
LINE
  5
14D
100
AcDbEntity
100
AcDbLine
  8
0
 62
256
370
-1
  6
ByLayer
 10
31.75
 20
-65.7999999999999972
 30
0.0
 11
31.75
 21
-68.7999999999999972
 31
0.0
  0
LINE
  5
14E
100
AcDbEntity
100
AcDbLine
  8
0
 62
256
370
-1
  6
ByLayer
 10
31.75
 20
-68.7999999999999972
 30
0.0
 11
44.4500000000000028
 21
-68.7999999999999972
 31
0.0
  0
LINE
  5
14F
100
AcDbEntity
100
AcDbLine
  8
0
 62
256
370
-1
  6
ByLayer
 10
44.4500000000000028
 20
-68.7999999999999972
 30
0.0
 11
44.4500000000000028
 21
-84.6749999999999972
 31
0.0
  0
LINE
  5
150
100
AcDbEntity
100
AcDbLine
  8
0
 62
256
370
-1
  6
ByLayer
 10
44.4500000000000028
 20
-84.6749999999999972
 30
0.0
 11
47.4500000000000028
 21
-84.6749999999999972
 31
0.0
  0
LINE
  5
151
100
AcDbEntity
100
AcDbLine
  8
0
 62
256
370
-1
  6
ByLayer
 10
47.4500000000000028
 20
-84.6749999999999972
 30
0.0
 11
47.4500000000000028
 21
-97.375
 31
0.0
  0
LINE
  5
152
100
AcDbEntity
100
AcDbLine
  8
0
 62
256
370
-1
  6
ByLayer
 10
47.4500000000000028
 20
-97.375
 30
0.0
 11
44.4500000000000028
 21
-97.375
 31
0.0
  0
LINE
  5
153
100
AcDbEntity
100
AcDbLine
  8
0
 62
256
370
-1
  6
ByLayer
 10
44.4500000000000028
 20
-97.375
 30
0.0
 11
44.4500000000000028
 21
-113.25
 31
0.0
  0
LINE
  5
154
100
AcDbEntity
100
AcDbLine
  8
0
 62
256
370
-1
  6
ByLayer
 10
44.4500000000000028
 20
-113.25
 30
0.0
 11
31.75
 21
-113.25
 31
0.0
  0
LINE
  5
155
100
AcDbEntity
100
AcDbLine
  8
0
 62
256
370
-1
  6
ByLayer
 10
31.75
 20
-113.25
 30
0.0
 11
31.75
 21
-116.25
 31
0.0
  0
LINE
  5
156
100
AcDbEntity
100
AcDbLine
  8
0
 62
256
370
-1
  6
ByLayer
 10
31.75
 20
-116.25
 30
0.0
 11
12.6999999999999993
 21
-116.25
 31
0.0
  0
LINE
  5
157
100
AcDbEntity
100
AcDbLine
  8
0
 62
256
370
-1
  6
ByLayer
 10
12.6999999999999993
 20
-116.25
 30
0.0
 11
12.6999999999999993
 21
-113.25
 31
0.0
  0
LINE
  5
158
100
AcDbEntity
100
AcDbLine
  8
0
 62
256
370
-1
  6
ByLayer
 10
12.6999999999999993
 20
-113.25
 30
0.0
 11
-12.6999999999999993
 21
-113.25
 31
0.0
  0
LINE
  5
159
100
AcDbEntity
100
AcDbLine
  8
0
 62
256
370
-1
  6
ByLayer
 10
-12.6999999999999993
 20
-113.25
 30
0.0
 11
-12.6999999999999993
 21
-116.25
 31
0.0
  0
LINE
  5
15A
100
AcDbEntity
100
AcDbLine
  8
0
 62
256
370
-1
  6
ByLayer
 10
-12.6999999999999993
 20
-116.25
 30
0.0
 11
-31.75
 21
-116.25
 31
0.0
  0
LINE
  5
15B
100
AcDbEntity
100
AcDbLine
  8
0
 62
256
370
-1
  6
ByLayer
 10
-31.75
 20
-116.25
 30
0.0
 11
-31.75
 21
-113.25
 31
0.0
  0
LINE
  5
15C
100
AcDbEntity
100
AcDbLine
  8
0
 62
256
370
-1
  6
ByLayer
 10
-31.75
 20
-113.25
 30
0.0
 11
-44.4500000000000028
 21
-113.25
 31
0.0
  0
LINE
  5
15D
100
AcDbEntity
100
AcDbLine
  8
0
 62
256
370
-1
  6
ByLayer
 10
-44.4500000000000028
 20
-113.25
 30
0.0
 11
-44.4500000000000028
 21
-97.375
 31
0.0
  0
LINE
  5
15E
100
AcDbEntity
100
AcDbLine
  8
0
 62
256
370
-1
  6
ByLayer
 10
-44.4500000000000028
 20
-97.375
 30
0.0
 11
-47.4500000000000028
 21
-97.375
 31
0.0
  0
LINE
  5
15F
100
AcDbEntity
100
AcDbLine
  8
0
 62
256
370
-1
  6
ByLayer
 10
-47.4500000000000028
 20
-33.25
 30
0.0
 11
-47.4500000000000028
 21
-14.1999999999999993
 31
0.0
  0
LINE
  5
160
100
AcDbEntity
100
AcDbLine
  8
0
 62
256
370
-1
  6
ByLayer
 10
-47.4500000000000028
 20
-14.1999999999999993
 30
0.0
 11
-44.4500000000000028
 21
-14.1999999999999993
 31
0.0
  0
LINE
  5
161
100
AcDbEntity
100
AcDbLine
  8
0
 62
256
370
-1
  6
ByLayer
 10
-44.4500000000000028
 20
-14.1999999999999993
 30
0.0
 11
-44.4500000000000028
 21
-33.25
 31
0.0
  0
LINE
  5
162
100
AcDbEntity
100
AcDbLine
  8
0
 62
256
370
-1
  6
ByLayer
 10
-44.4500000000000028
 20
-33.25
 30
0.0
 11
-47.4500000000000028
 21
-33.25
 31
0.0
  0
LINE
  5
163
100
AcDbEntity
100
AcDbLine
  8
0
 62
256
370
-1
  6
ByLayer
 10
-47.4500000000000028
 20
14.1999999999999993
 30
0.0
 11
-47.4500000000000028
 21
33.25
 31
0.0
  0
LINE
  5
164
100
AcDbEntity
100
AcDbLine
  8
0
 62
256
370
-1
  6
ByLayer
 10
-47.4500000000000028
 20
33.25
 30
0.0
 11
-44.4500000000000028
 21
33.25
 31
0.0
  0
LINE
  5
165
100
AcDbEntity
100
AcDbLine
  8
0
 62
256
370
-1
  6
ByLayer
 10
-44.4500000000000028
 20
33.25
 30
0.0
 11
-44.4500000000000028
 21
14.1999999999999993
 31
0.0
  0
LINE
  5
166
100
AcDbEntity
100
AcDbLine
  8
0
 62
256
370
-1
  6
ByLayer
 10
-44.4500000000000028
 20
14.1999999999999993
 30
0.0
 11
-47.4500000000000028
 21
14.1999999999999993
 31
0.0
  0
LINE
  5
167
100
AcDbEntity
100
AcDbLine
  8
0
 62
256
370
-1
  6
ByLayer
 10
-47.4500000000000028
 20
84.6749999999999972
 30
0.0
 11
-47.4500000000000028
 21
97.375
 31
0.0
  0
LINE
  5
168
100
AcDbEntity
100
AcDbLine
  8
0
 62
256
370
-1
  6
ByLayer
 10
-47.4500000000000028
 20
97.375
 30
0.0
 11
-44.4500000000000028
 21
97.375
 31
0.0
  0
LINE
  5
169
100
AcDbEntity
100
AcDbLine
  8
0
 62
256
370
-1
  6
ByLayer
 10
-44.4500000000000028
 20
97.375
 30
0.0
 11
-44.4500000000000028
 21
113.25
 31
0.0
  0
LINE
  5
16A
100
AcDbEntity
100
AcDbLine
  8
0
 62
256
370
-1
  6
ByLayer
 10
-44.4500000000000028
 20
113.25
 30
0.0
 11
-31.75
 21
113.25
 31
0.0
  0
LINE
  5
16B
100
AcDbEntity
100
AcDbLine
  8
0
 62
256
370
-1
  6
ByLayer
 10
-31.75
 20
113.25
 30
0.0
 11
-31.75
 21
116.25
 31
0.0
  0
LINE
  5
16C
100
AcDbEntity
100
AcDbLine
  8
0
 62
256
370
-1
  6
ByLayer
 10
-31.75
 20
116.25
 30
0.0
 11
-12.6999999999999993
 21
116.25
 31
0.0
  0
LINE
  5
16D
100
AcDbEntity
100
AcDbLine
  8
0
 62
256
370
-1
  6
ByLayer
 10
-12.6999999999999993
 20
116.25
 30
0.0
 11
-12.6999999999999993
 21
113.25
 31
0.0
  0
LINE
  5
16E
100
AcDbEntity
100
AcDbLine
  8
0
 62
256
370
-1
  6
ByLayer
 10
-12.6999999999999993
 20
113.25
 30
0.0
 11
12.6999999999999993
 21
113.25
 31
0.0
  0
LINE
  5
16F
100
AcDbEntity
100
AcDbLine
  8
0
 62
256
370
-1
  6
ByLayer
 10
12.6999999999999993
 20
113.25
 30
0.0
 11
12.6999999999999993
 21
116.25
 31
0.0
  0
LINE
  5
170
100
AcDbEntity
100
AcDbLine
  8
0
 62
256
370
-1
  6
ByLayer
 10
12.6999999999999993
 20
116.25
 30
0.0
 11
31.75
 21
116.25
 31
0.0
  0
LINE
  5
171
100
AcDbEntity
100
AcDbLine
  8
0
 62
256
370
-1
  6
ByLayer
 10
31.75
 20
116.25
 30
0.0
 11
31.75
 21
113.25
 31
0.0
  0
LINE
  5
172
100
AcDbEntity
100
AcDbLine
  8
0
 62
256
370
-1
  6
ByLayer
 10
31.75
 20
113.25
 30
0.0
 11
44.4500000000000028
 21
113.25
 31
0.0
  0
LINE
  5
173
100
AcDbEntity
100
AcDbLine
  8
0
 62
256
370
-1
  6
ByLayer
 10
44.4500000000000028
 20
113.25
 30
0.0
 11
44.4500000000000028
 21
97.375
 31
0.0
  0
LINE
  5
174
100
AcDbEntity
100
AcDbLine
  8
0
 62
256
370
-1
  6
ByLayer
 10
44.4500000000000028
 20
97.375
 30
0.0
 11
47.4500000000000028
 21
97.375
 31
0.0
  0
LINE
  5
175
100
AcDbEntity
100
AcDbLine
  8
0
 62
256
370
-1
  6
ByLayer
 10
47.4500000000000028
 20
97.375
 30
0.0
 11
47.4500000000000028
 21
84.6749999999999972
 31
0.0
  0
LINE
  5
176
100
AcDbEntity
100
AcDbLine
  8
0
 62
256
370
-1
  6
ByLayer
 10
47.4500000000000028
 20
84.6749999999999972
 30
0.0
 11
44.4500000000000028
 21
84.6749999999999972
 31
0.0
  0
LINE
  5
177
100
AcDbEntity
100
AcDbLine
  8
0
 62
256
370
-1
  6
ByLayer
 10
44.4500000000000028
 20
84.6749999999999972
 30
0.0
 11
44.4500000000000028
 21
68.7999999999999972
 31
0.0
  0
LINE
  5
178
100
AcDbEntity
100
AcDbLine
  8
0
 62
256
370
-1
  6
ByLayer
 10
44.4500000000000028
 20
68.7999999999999972
 30
0.0
 11
31.75
 21
68.7999999999999972
 31
0.0
  0
LINE
  5
179
100
AcDbEntity
100
AcDbLine
  8
0
 62
256
370
-1
  6
ByLayer
 10
31.75
 20
68.7999999999999972
 30
0.0
 11
31.75
 21
65.7999999999999972
 31
0.0
  0
LINE
  5
17A
100
AcDbEntity
100
AcDbLine
  8
0
 62
256
370
-1
  6
ByLayer
 10
31.75
 20
65.7999999999999972
 30
0.0
 11
12.6999999999999993
 21
65.7999999999999972
 31
0.0
  0
LINE
  5
17B
100
AcDbEntity
100
AcDbLine
  8
0
 62
256
370
-1
  6
ByLayer
 10
12.6999999999999993
 20
65.7999999999999972
 30
0.0
 11
12.6999999999999993
 21
68.7999999999999972
 31
0.0
  0
LINE
  5
17C
100
AcDbEntity
100
AcDbLine
  8
0
 62
256
370
-1
  6
ByLayer
 10
12.6999999999999993
 20
68.7999999999999972
 30
0.0
 11
-12.6999999999999993
 21
68.7999999999999972
 31
0.0
  0
LINE
  5
17D
100
AcDbEntity
100
AcDbLine
  8
0
 62
256
370
-1
  6
ByLayer
 10
-12.6999999999999993
 20
68.7999999999999972
 30
0.0
 11
-12.6999999999999993
 21
65.7999999999999972
 31
0.0
  0
LINE
  5
17E
100
AcDbEntity
100
AcDbLine
  8
0
 62
256
370
-1
  6
ByLayer
 10
-12.6999999999999993
 20
65.7999999999999972
 30
0.0
 11
-31.75
 21
65.7999999999999972
 31
0.0
  0
LINE
  5
17F
100
AcDbEntity
100
AcDbLine
  8
0
 62
256
370
-1
  6
ByLayer
 10
-31.75
 20
65.7999999999999972
 30
0.0
 11
-31.75
 21
68.7999999999999972
 31
0.0
  0
LINE
  5
180
100
AcDbEntity
100
AcDbLine
  8
0
 62
256
370
-1
  6
ByLayer
 10
-31.75
 20
68.7999999999999972
 30
0.0
 11
-44.4500000000000028
 21
68.7999999999999972
 31
0.0
  0
LINE
  5
181
100
AcDbEntity
100
AcDbLine
  8
0
 62
256
370
-1
  6
ByLayer
 10
-44.4500000000000028
 20
68.7999999999999972
 30
0.0
 11
-44.4500000000000028
 21
84.6749999999999972
 31
0.0
  0
LINE
  5
182
100
AcDbEntity
100
AcDbLine
  8
0
 62
256
370
-1
  6
ByLayer
 10
-44.4500000000000028
 20
84.6749999999999972
 30
0.0
 11
-47.4500000000000028
 21
84.6749999999999972
 31
0.0
  0
LINE
  5
183
100
AcDbEntity
100
AcDbLine
  8
0
 62
256
370
-1
  6
ByLayer
 10
-41.4780000000000015
 20
-222.0550000000000068
 30
0.0
 11
-41.4669999999999987
 21
-221.8700000000000045
 31
0.0
  0
LINE
  5
184
100
AcDbEntity
100
AcDbLine
  8
0
 62
256
370
-1
  6
ByLayer
 10
-41.4669999999999987
 20
-221.8700000000000045
 30
0.0
 11
-41.4320000000000022
 21
-221.688999999999993
 31
0.0
  0
LINE
  5
185
100
AcDbEntity
100
AcDbLine
  8
0
 62
256
370
-1
  6
ByLayer
 10
-41.4320000000000022
 20
-221.688999999999993
 30
0.0
 11
-41.375
 21
-221.5130000000000052
 31
0.0
  0
LINE
  5
186
100
AcDbEntity
100
AcDbLine
  8
0
 62
256
370
-1
  6
ByLayer
 10
-41.375
 20
-221.5130000000000052
 30
0.0
 11
-41.2959999999999994
 21
-221.3449999999999989
 31
0.0
  0
LINE
  5
187
100
AcDbEntity
100
AcDbLine
  8
0
 62
256
370
-1
  6
ByLayer
 10
-41.2959999999999994
 20
-221.3449999999999989
 30
0.0
 11
-41.1970000000000027
 21
-221.188999999999993
 31
0.0
  0
LINE
  5
188
100
AcDbEntity
100
AcDbLine
  8
0
 62
256
370
-1
  6
ByLayer
 10
-41.1970000000000027
 20
-221.188999999999993
 30
0.0
 11
-41.0790000000000006
 21
-221.046999999999997
 31
0.0
  0
LINE
  5
189
100
AcDbEntity
100
AcDbLine
  8
0
 62
256
370
-1
  6
ByLayer
 10
-41.0790000000000006
 20
-221.046999999999997
 30
0.0
 11
-40.9440000000000026
 21
-220.9199999999999875
 31
0.0
  0
LINE
  5
18A
100
AcDbEntity
100
AcDbLine
  8
0
 62
256
370
-1
  6
ByLayer
 10
-40.9440000000000026
 20
-220.9199999999999875
 30
0.0
 11
-40.7939999999999969
 21
-220.811000000000007
 31
0.0
  0
LINE
  5
18B
100
AcDbEntity
100
AcDbLine
  8
0
 62
256
370
-1
  6
ByLayer
 10
-40.7939999999999969
 20
-220.811000000000007
 30
0.0
 11
-40.6319999999999979
 21
-220.7220000000000084
 31
0.0
  0
LINE
  5
18C
100
AcDbEntity
100
AcDbLine
  8
0
 62
256
370
-1
  6
ByLayer
 10
-40.6319999999999979
 20
-220.7220000000000084
 30
0.0
 11
-40.4600000000000009
 21
-220.6539999999999964
 31
0.0
  0
LINE
  5
18D
100
AcDbEntity
100
AcDbLine
  8
0
 62
256
370
-1
  6
ByLayer
 10
-40.4600000000000009
 20
-220.6539999999999964
 30
0.0
 11
-40.2809999999999988
 21
-220.6080000000000041
 31
0.0
  0
LINE
  5
18E
100
AcDbEntity
100
AcDbLine
  8
0
 62
256
370
-1
  6
ByLayer
 10
-40.2809999999999988
 20
-220.6080000000000041
 30
0.0
 11
-40.097999999999999
 21
-220.585000000000008
 31
0.0
  0
LINE
  5
18F
100
AcDbEntity
100
AcDbLine
  8
0
 62
256
370
-1
  6
ByLayer
 10
-40.097999999999999
 20
-220.585000000000008
 30
0.0
 11
-39.911999999999999
 21
-220.585000000000008
 31
0.0
  0
LINE
  5
190
100
AcDbEntity
100
AcDbLine
  8
0
 62
256
370
-1
  6
ByLayer
 10
-39.911999999999999
 20
-220.585000000000008
 30
0.0
 11
-39.7289999999999992
 21
-220.6080000000000041
 31
0.0
  0
LINE
  5
191
100
AcDbEntity
100
AcDbLine
  8
0
 62
256
370
-1
  6
ByLayer
 10
-39.7289999999999992
 20
-220.6080000000000041
 30
0.0
 11
-39.5499999999999972
 21
-220.6539999999999964
 31
0.0
  0
LINE
  5
192
100
AcDbEntity
100
AcDbLine
  8
0
 62
256
370
-1
  6
ByLayer
 10
-39.5499999999999972
 20
-220.6539999999999964
 30
0.0
 11
-39.3780000000000001
 21
-220.7220000000000084
 31
0.0
  0
LINE
  5
193
100
AcDbEntity
100
AcDbLine
  8
0
 62
256
370
-1
  6
ByLayer
 10
-39.3780000000000001
 20
-220.7220000000000084
 30
0.0
 11
-39.2160000000000011
 21
-220.811000000000007
 31
0.0
  0
LINE
  5
194
100
AcDbEntity
100
AcDbLine
  8
0
 62
256
370
-1
  6
ByLayer
 10
-39.2160000000000011
 20
-220.811000000000007
 30
0.0
 11
-39.0660000000000025
 21
-220.9199999999999875
 31
0.0
  0
LINE
  5
195
100
AcDbEntity
100
AcDbLine
  8
0
 62
256
370
-1
  6
ByLayer
 10
-39.0660000000000025
 20
-220.9199999999999875
 30
0.0
 11
-38.9309999999999974
 21
-221.046999999999997
 31
0.0
  0
LINE
  5
196
100
AcDbEntity
100
AcDbLine
  8
0
 62
256
370
-1
  6
ByLayer
 10
-38.9309999999999974
 20
-221.046999999999997
 30
0.0
 11
-38.8130000000000024
 21
-221.188999999999993
 31
0.0
  0
LINE
  5
197
100
AcDbEntity
100
AcDbLine
  8
0
 62
256
370
-1
  6
ByLayer
 10
-38.8130000000000024
 20
-221.188999999999993
 30
0.0
 11
-38.7139999999999986
 21
-221.3449999999999989
 31
0.0
  0
LINE
  5
198
100
AcDbEntity
100
AcDbLine
  8
0
 62
256
370
-1
  6
ByLayer
 10
-38.7139999999999986
 20
-221.3449999999999989
 30
0.0
 11
-38.634999999999998
 21
-221.5130000000000052
 31
0.0
  0
LINE
  5
199
100
AcDbEntity
100
AcDbLine
  8
0
 62
256
370
-1
  6
ByLayer
 10
-38.634999999999998
 20
-221.5130000000000052
 30
0.0
 11
-38.578000000000003
 21
-221.688999999999993
 31
0.0
  0
LINE
  5
19A
100
AcDbEntity
100
AcDbLine
  8
0
 62
256
370
-1
  6
ByLayer
 10
-38.578000000000003
 20
-221.688999999999993
 30
0.0
 11
-38.5429999999999993
 21
-221.8700000000000045
 31
0.0
  0
LINE
  5
19B
100
AcDbEntity
100
AcDbLine
  8
0
 62
256
370
-1
  6
ByLayer
 10
-38.5429999999999993
 20
-221.8700000000000045
 30
0.0
 11
-38.5319999999999965
 21
-222.0550000000000068
 31
0.0
  0
LINE
  5
19C
100
AcDbEntity
100
AcDbLine
  8
0
 62
256
370
-1
  6
ByLayer
 10
-38.5319999999999965
 20
-222.0550000000000068
 30
0.0
 11
-38.5429999999999993
 21
-222.2400000000000091
 31
0.0
  0
LINE
  5
19D
100
AcDbEntity
100
AcDbLine
  8
0
 62
256
370
-1
  6
ByLayer
 10
-38.5429999999999993
 20
-222.2400000000000091
 30
0.0
 11
-38.578000000000003
 21
-222.4209999999999923
 31
0.0
  0
LINE
  5
19E
100
AcDbEntity
100
AcDbLine
  8
0
 62
256
370
-1
  6
ByLayer
 10
-38.578000000000003
 20
-222.4209999999999923
 30
0.0
 11
-38.634999999999998
 21
-222.5970000000000084
 31
0.0
  0
LINE
  5
19F
100
AcDbEntity
100
AcDbLine
  8
0
 62
256
370
-1
  6
ByLayer
 10
-38.634999999999998
 20
-222.5970000000000084
 30
0.0
 11
-38.7139999999999986
 21
-222.7649999999999864
 31
0.0
  0
LINE
  5
1A0
100
AcDbEntity
100
AcDbLine
  8
0
 62
256
370
-1
  6
ByLayer
 10
-38.7139999999999986
 20
-222.7649999999999864
 30
0.0
 11
-38.8130000000000024
 21
-222.9209999999999923
 31
0.0
  0
LINE
  5
1A1
100
AcDbEntity
100
AcDbLine
  8
0
 62
256
370
-1
  6
ByLayer
 10
-38.8130000000000024
 20
-222.9209999999999923
 30
0.0
 11
-38.9309999999999974
 21
-223.0629999999999882
 31
0.0
  0
LINE
  5
1A2
100
AcDbEntity
100
AcDbLine
  8
0
 62
256
370
-1
  6
ByLayer
 10
-38.9309999999999974
 20
-223.0629999999999882
 30
0.0
 11
-39.0660000000000025
 21
-223.1899999999999977
 31
0.0
  0
LINE
  5
1A3
100
AcDbEntity
100
AcDbLine
  8
0
 62
256
370
-1
  6
ByLayer
 10
-39.0660000000000025
 20
-223.1899999999999977
 30
0.0
 11
-39.2160000000000011
 21
-223.2990000000000066
 31
0.0
  0
LINE
  5
1A4
100
AcDbEntity
100
AcDbLine
  8
0
 62
256
370
-1
  6
ByLayer
 10
-39.2160000000000011
 20
-223.2990000000000066
 30
0.0
 11
-39.3780000000000001
 21
-223.3880000000000052
 31
0.0
  0
LINE
  5
1A5
100
AcDbEntity
100
AcDbLine
  8
0
 62
256
370
-1
  6
ByLayer
 10
-39.3780000000000001
 20
-223.3880000000000052
 30
0.0
 11
-39.5499999999999972
 21
-223.4559999999999889
 31
0.0
  0
LINE
  5
1A6
100
AcDbEntity
100
AcDbLine
  8
0
 62
256
370
-1
  6
ByLayer
 10
-39.5499999999999972
 20
-223.4559999999999889
 30
0.0
 11
-39.7289999999999992
 21
-223.5020000000000095
 31
0.0
  0
LINE
  5
1A7
100
AcDbEntity
100
AcDbLine
  8
0
 62
256
370
-1
  6
ByLayer
 10
-39.7289999999999992
 20
-223.5020000000000095
 30
0.0
 11
-39.911999999999999
 21
-223.5250000000000057
 31
0.0
  0
LINE
  5
1A8
100
AcDbEntity
100
AcDbLine
  8
0
 62
256
370
-1
  6
ByLayer
 10
-39.911999999999999
 20
-223.5250000000000057
 30
0.0
 11
-40.097999999999999
 21
-223.5250000000000057
 31
0.0
  0
LINE
  5
1A9
100
AcDbEntity
100
AcDbLine
  8
0
 62
256
370
-1
  6
ByLayer
 10
-40.097999999999999
 20
-223.5250000000000057
 30
0.0
 11
-40.2809999999999988
 21
-223.5020000000000095
 31
0.0
  0
LINE
  5
1AA
100
AcDbEntity
100
AcDbLine
  8
0
 62
256
370
-1
  6
ByLayer
 10
-40.2809999999999988
 20
-223.5020000000000095
 30
0.0
 11
-40.4600000000000009
 21
-223.4559999999999889
 31
0.0
  0
LINE
  5
1AB
100
AcDbEntity
100
AcDbLine
  8
0
 62
256
370
-1
  6
ByLayer
 10
-40.4600000000000009
 20
-223.4559999999999889
 30
0.0
 11
-40.6319999999999979
 21
-223.3880000000000052
 31
0.0
  0
LINE
  5
1AC
100
AcDbEntity
100
AcDbLine
  8
0
 62
256
370
-1
  6
ByLayer
 10
-40.6319999999999979
 20
-223.3880000000000052
 30
0.0
 11
-40.7939999999999969
 21
-223.2990000000000066
 31
0.0
  0
LINE
  5
1AD
100
AcDbEntity
100
AcDbLine
  8
0
 62
256
370
-1
  6
ByLayer
 10
-40.7939999999999969
 20
-223.2990000000000066
 30
0.0
 11
-40.9440000000000026
 21
-223.1899999999999977
 31
0.0
  0
LINE
  5
1AE
100
AcDbEntity
100
AcDbLine
  8
0
 62
256
370
-1
  6
ByLayer
 10
-40.9440000000000026
 20
-223.1899999999999977
 30
0.0
 11
-41.0790000000000006
 21
-223.0629999999999882
 31
0.0
  0
LINE
  5
1AF
100
AcDbEntity
100
AcDbLine
  8
0
 62
256
370
-1
  6
ByLayer
 10
-41.0790000000000006
 20
-223.0629999999999882
 30
0.0
 11
-41.1970000000000027
 21
-222.9209999999999923
 31
0.0
  0
LINE
  5
1B0
100
AcDbEntity
100
AcDbLine
  8
0
 62
256
370
-1
  6
ByLayer
 10
-41.1970000000000027
 20
-222.9209999999999923
 30
0.0
 11
-41.2959999999999994
 21
-222.7649999999999864
 31
0.0
  0
LINE
  5
1B1
100
AcDbEntity
100
AcDbLine
  8
0
 62
256
370
-1
  6
ByLayer
 10
-41.2959999999999994
 20
-222.7649999999999864
 30
0.0
 11
-41.375
 21
-222.5970000000000084
 31
0.0
  0
LINE
  5
1B2
100
AcDbEntity
100
AcDbLine
  8
0
 62
256
370
-1
  6
ByLayer
 10
-41.375
 20
-222.5970000000000084
 30
0.0
 11
-41.4320000000000022
 21
-222.4209999999999923
 31
0.0
  0
LINE
  5
1B3
100
AcDbEntity
100
AcDbLine
  8
0
 62
256
370
-1
  6
ByLayer
 10
-41.4320000000000022
 20
-222.4209999999999923
 30
0.0
 11
-41.4669999999999987
 21
-222.2400000000000091
 31
0.0
  0
LINE
  5
1B4
100
AcDbEntity
100
AcDbLine
  8
0
 62
256
370
-1
  6
ByLayer
 10
-41.4669999999999987
 20
-222.2400000000000091
 30
0.0
 11
-41.4780000000000015
 21
-222.0550000000000068
 31
0.0
  0
LINE
  5
1B5
100
AcDbEntity
100
AcDbLine
  8
0
 62
256
370
-1
  6
ByLayer
 10
-41.4780000000000015
 20
-142.0449999999999875
 30
0.0
 11
-41.4669999999999987
 21
-141.8600000000000136
 31
0.0
  0
LINE
  5
1B6
100
AcDbEntity
100
AcDbLine
  8
0
 62
256
370
-1
  6
ByLayer
 10
-41.4669999999999987
 20
-141.8600000000000136
 30
0.0
 11
-41.4320000000000022
 21
-141.679000000000002
 31
0.0
  0
LINE
  5
1B7
100
AcDbEntity
100
AcDbLine
  8
0
 62
256
370
-1
  6
ByLayer
 10
-41.4320000000000022
 20
-141.679000000000002
 30
0.0
 11
-41.375
 21
-141.5029999999999859
 31
0.0
  0
LINE
  5
1B8
100
AcDbEntity
100
AcDbLine
  8
0
 62
256
370
-1
  6
ByLayer
 10
-41.375
 20
-141.5029999999999859
 30
0.0
 11
-41.2959999999999994
 21
-141.335000000000008
 31
0.0
  0
LINE
  5
1B9
100
AcDbEntity
100
AcDbLine
  8
0
 62
256
370
-1
  6
ByLayer
 10
-41.2959999999999994
 20
-141.335000000000008
 30
0.0
 11
-41.1970000000000027
 21
-141.179000000000002
 31
0.0
  0
LINE
  5
1BA
100
AcDbEntity
100
AcDbLine
  8
0
 62
256
370
-1
  6
ByLayer
 10
-41.1970000000000027
 20
-141.179000000000002
 30
0.0
 11
-41.0790000000000006
 21
-141.0370000000000061
 31
0.0
  0
LINE
  5
1BB
100
AcDbEntity
100
AcDbLine
  8
0
 62
256
370
-1
  6
ByLayer
 10
-41.0790000000000006
 20
-141.0370000000000061
 30
0.0
 11
-40.9440000000000026
 21
-140.9099999999999966
 31
0.0
  0
LINE
  5
1BC
100
AcDbEntity
100
AcDbLine
  8
0
 62
256
370
-1
  6
ByLayer
 10
-40.9440000000000026
 20
-140.9099999999999966
 30
0.0
 11
-40.7939999999999969
 21
-140.8009999999999877
 31
0.0
  0
LINE
  5
1BD
100
AcDbEntity
100
AcDbLine
  8
0
 62
256
370
-1
  6
ByLayer
 10
-40.7939999999999969
 20
-140.8009999999999877
 30
0.0
 11
-40.6319999999999979
 21
-140.7119999999999891
 31
0.0
  0
LINE
  5
1BE
100
AcDbEntity
100
AcDbLine
  8
0
 62
256
370
-1
  6
ByLayer
 10
-40.6319999999999979
 20
-140.7119999999999891
 30
0.0
 11
-40.4600000000000009
 21
-140.6440000000000055
 31
0.0
  0
LINE
  5
1BF
100
AcDbEntity
100
AcDbLine
  8
0
 62
256
370
-1
  6
ByLayer
 10
-40.4600000000000009
 20
-140.6440000000000055
 30
0.0
 11
-40.2809999999999988
 21
-140.5980000000000132
 31
0.0
  0
LINE
  5
1C0
100
AcDbEntity
100
AcDbLine
  8
0
 62
256
370
-1
  6
ByLayer
 10
-40.2809999999999988
 20
-140.5980000000000132
 30
0.0
 11
-40.097999999999999
 21
-140.5749999999999886
 31
0.0
  0
LINE
  5
1C1
100
AcDbEntity
100
AcDbLine
  8
0
 62
256
370
-1
  6
ByLayer
 10
-40.097999999999999
 20
-140.5749999999999886
 30
0.0
 11
-39.911999999999999
 21
-140.5749999999999886
 31
0.0
  0
LINE
  5
1C2
100
AcDbEntity
100
AcDbLine
  8
0
 62
256
370
-1
  6
ByLayer
 10
-39.911999999999999
 20
-140.5749999999999886
 30
0.0
 11
-39.7289999999999992
 21
-140.5980000000000132
 31
0.0
  0
LINE
  5
1C3
100
AcDbEntity
100
AcDbLine
  8
0
 62
256
370
-1
  6
ByLayer
 10
-39.7289999999999992
 20
-140.5980000000000132
 30
0.0
 11
-39.5499999999999972
 21
-140.6440000000000055
 31
0.0
  0
LINE
  5
1C4
100
AcDbEntity
100
AcDbLine
  8
0
 62
256
370
-1
  6
ByLayer
 10
-39.5499999999999972
 20
-140.6440000000000055
 30
0.0
 11
-39.3780000000000001
 21
-140.7119999999999891
 31
0.0
  0
LINE
  5
1C5
100
AcDbEntity
100
AcDbLine
  8
0
 62
256
370
-1
  6
ByLayer
 10
-39.3780000000000001
 20
-140.7119999999999891
 30
0.0
 11
-39.2160000000000011
 21
-140.8009999999999877
 31
0.0
  0
LINE
  5
1C6
100
AcDbEntity
100
AcDbLine
  8
0
 62
256
370
-1
  6
ByLayer
 10
-39.2160000000000011
 20
-140.8009999999999877
 30
0.0
 11
-39.0660000000000025
 21
-140.9099999999999966
 31
0.0
  0
LINE
  5
1C7
100
AcDbEntity
100
AcDbLine
  8
0
 62
256
370
-1
  6
ByLayer
 10
-39.0660000000000025
 20
-140.9099999999999966
 30
0.0
 11
-38.9309999999999974
 21
-141.0370000000000061
 31
0.0
  0
LINE
  5
1C8
100
AcDbEntity
100
AcDbLine
  8
0
 62
256
370
-1
  6
ByLayer
 10
-38.9309999999999974
 20
-141.0370000000000061
 30
0.0
 11
-38.8130000000000024
 21
-141.179000000000002
 31
0.0
  0
LINE
  5
1C9
100
AcDbEntity
100
AcDbLine
  8
0
 62
256
370
-1
  6
ByLayer
 10
-38.8130000000000024
 20
-141.179000000000002
 30
0.0
 11
-38.7139999999999986
 21
-141.335000000000008
 31
0.0
  0
LINE
  5
1CA
100
AcDbEntity
100
AcDbLine
  8
0
 62
256
370
-1
  6
ByLayer
 10
-38.7139999999999986
 20
-141.335000000000008
 30
0.0
 11
-38.634999999999998
 21
-141.5029999999999859
 31
0.0
  0
LINE
  5
1CB
100
AcDbEntity
100
AcDbLine
  8
0
 62
256
370
-1
  6
ByLayer
 10
-38.634999999999998
 20
-141.5029999999999859
 30
0.0
 11
-38.578000000000003
 21
-141.679000000000002
 31
0.0
  0
LINE
  5
1CC
100
AcDbEntity
100
AcDbLine
  8
0
 62
256
370
-1
  6
ByLayer
 10
-38.578000000000003
 20
-141.679000000000002
 30
0.0
 11
-38.5429999999999993
 21
-141.8600000000000136
 31
0.0
  0
LINE
  5
1CD
100
AcDbEntity
100
AcDbLine
  8
0
 62
256
370
-1
  6
ByLayer
 10
-38.5429999999999993
 20
-141.8600000000000136
 30
0.0
 11
-38.5319999999999965
 21
-142.0449999999999875
 31
0.0
  0
LINE
  5
1CE
100
AcDbEntity
100
AcDbLine
  8
0
 62
256
370
-1
  6
ByLayer
 10
-38.5319999999999965
 20
-142.0449999999999875
 30
0.0
 11
-38.5429999999999993
 21
-142.2299999999999898
 31
0.0
  0
LINE
  5
1CF
100
AcDbEntity
100
AcDbLine
  8
0
 62
256
370
-1
  6
ByLayer
 10
-38.5429999999999993
 20
-142.2299999999999898
 30
0.0
 11
-38.578000000000003
 21
-142.4110000000000014
 31
0.0
  0
LINE
  5
1D0
100
AcDbEntity
100
AcDbLine
  8
0
 62
256
370
-1
  6
ByLayer
 10
-38.578000000000003
 20
-142.4110000000000014
 30
0.0
 11
-38.634999999999998
 21
-142.5869999999999891
 31
0.0
  0
LINE
  5
1D1
100
AcDbEntity
100
AcDbLine
  8
0
 62
256
370
-1
  6
ByLayer
 10
-38.634999999999998
 20
-142.5869999999999891
 30
0.0
 11
-38.7139999999999986
 21
-142.7549999999999955
 31
0.0
  0
LINE
  5
1D2
100
AcDbEntity
100
AcDbLine
  8
0
 62
256
370
-1
  6
ByLayer
 10
-38.7139999999999986
 20
-142.7549999999999955
 30
0.0
 11
-38.8130000000000024
 21
-142.9110000000000014
 31
0.0
  0
LINE
  5
1D3
100
AcDbEntity
100
AcDbLine
  8
0
 62
256
370
-1
  6
ByLayer
 10
-38.8130000000000024
 20
-142.9110000000000014
 30
0.0
 11
-38.9309999999999974
 21
-143.0529999999999973
 31
0.0
  0
LINE
  5
1D4
100
AcDbEntity
100
AcDbLine
  8
0
 62
256
370
-1
  6
ByLayer
 10
-38.9309999999999974
 20
-143.0529999999999973
 30
0.0
 11
-39.0660000000000025
 21
-143.1800000000000068
 31
0.0
  0
LINE
  5
1D5
100
AcDbEntity
100
AcDbLine
  8
0
 62
256
370
-1
  6
ByLayer
 10
-39.0660000000000025
 20
-143.1800000000000068
 30
0.0
 11
-39.2160000000000011
 21
-143.2889999999999873
 31
0.0
  0
LINE
  5
1D6
100
AcDbEntity
100
AcDbLine
  8
0
 62
256
370
-1
  6
ByLayer
 10
-39.2160000000000011
 20
-143.2889999999999873
 30
0.0
 11
-39.3780000000000001
 21
-143.3779999999999859
 31
0.0
  0
LINE
  5
1D7
100
AcDbEntity
100
AcDbLine
  8
0
 62
256
370
-1
  6
ByLayer
 10
-39.3780000000000001
 20
-143.3779999999999859
 30
0.0
 11
-39.5499999999999972
 21
-143.445999999999998
 31
0.0
  0
LINE
  5
1D8
100
AcDbEntity
100
AcDbLine
  8
0
 62
256
370
-1
  6
ByLayer
 10
-39.5499999999999972
 20
-143.445999999999998
 30
0.0
 11
-39.7289999999999992
 21
-143.4919999999999902
 31
0.0
  0
LINE
  5
1D9
100
AcDbEntity
100
AcDbLine
  8
0
 62
256
370
-1
  6
ByLayer
 10
-39.7289999999999992
 20
-143.4919999999999902
 30
0.0
 11
-39.911999999999999
 21
-143.5149999999999864
 31
0.0
  0
LINE
  5
1DA
100
AcDbEntity
100
AcDbLine
  8
0
 62
256
370
-1
  6
ByLayer
 10
-39.911999999999999
 20
-143.5149999999999864
 30
0.0
 11
-40.097999999999999
 21
-143.5149999999999864
 31
0.0
  0
LINE
  5
1DB
100
AcDbEntity
100
AcDbLine
  8
0
 62
256
370
-1
  6
ByLayer
 10
-40.097999999999999
 20
-143.5149999999999864
 30
0.0
 11
-40.2809999999999988
 21
-143.4919999999999902
 31
0.0
  0
LINE
  5
1DC
100
AcDbEntity
100
AcDbLine
  8
0
 62
256
370
-1
  6
ByLayer
 10
-40.2809999999999988
 20
-143.4919999999999902
 30
0.0
 11
-40.4600000000000009
 21
-143.445999999999998
 31
0.0
  0
LINE
  5
1DD
100
AcDbEntity
100
AcDbLine
  8
0
 62
256
370
-1
  6
ByLayer
 10
-40.4600000000000009
 20
-143.445999999999998
 30
0.0
 11
-40.6319999999999979
 21
-143.3779999999999859
 31
0.0
  0
LINE
  5
1DE
100
AcDbEntity
100
AcDbLine
  8
0
 62
256
370
-1
  6
ByLayer
 10
-40.6319999999999979
 20
-143.3779999999999859
 30
0.0
 11
-40.7939999999999969
 21
-143.2889999999999873
 31
0.0
  0
LINE
  5
1DF
100
AcDbEntity
100
AcDbLine
  8
0
 62
256
370
-1
  6
ByLayer
 10
-40.7939999999999969
 20
-143.2889999999999873
 30
0.0
 11
-40.9440000000000026
 21
-143.1800000000000068
 31
0.0
  0
LINE
  5
1E0
100
AcDbEntity
100
AcDbLine
  8
0
 62
256
370
-1
  6
ByLayer
 10
-40.9440000000000026
 20
-143.1800000000000068
 30
0.0
 11
-41.0790000000000006
 21
-143.0529999999999973
 31
0.0
  0
LINE
  5
1E1
100
AcDbEntity
100
AcDbLine
  8
0
 62
256
370
-1
  6
ByLayer
 10
-41.0790000000000006
 20
-143.0529999999999973
 30
0.0
 11
-41.1970000000000027
 21
-142.9110000000000014
 31
0.0
  0
LINE
  5
1E2
100
AcDbEntity
100
AcDbLine
  8
0
 62
256
370
-1
  6
ByLayer
 10
-41.1970000000000027
 20
-142.9110000000000014
 30
0.0
 11
-41.2959999999999994
 21
-142.7549999999999955
 31
0.0
  0
LINE
  5
1E3
100
AcDbEntity
100
AcDbLine
  8
0
 62
256
370
-1
  6
ByLayer
 10
-41.2959999999999994
 20
-142.7549999999999955
 30
0.0
 11
-41.375
 21
-142.5869999999999891
 31
0.0
  0
LINE
  5
1E4
100
AcDbEntity
100
AcDbLine
  8
0
 62
256
370
-1
  6
ByLayer
 10
-41.375
 20
-142.5869999999999891
 30
0.0
 11
-41.4320000000000022
 21
-142.4110000000000014
 31
0.0
  0
LINE
  5
1E5
100
AcDbEntity
100
AcDbLine
  8
0
 62
256
370
-1
  6
ByLayer
 10
-41.4320000000000022
 20
-142.4110000000000014
 30
0.0
 11
-41.4669999999999987
 21
-142.2299999999999898
 31
0.0
  0
LINE
  5
1E6
100
AcDbEntity
100
AcDbLine
  8
0
 62
256
370
-1
  6
ByLayer
 10
-41.4669999999999987
 20
-142.2299999999999898
 30
0.0
 11
-41.4780000000000015
 21
-142.0449999999999875
 31
0.0
  0
LINE
  5
1E7
100
AcDbEntity
100
AcDbLine
  8
0
 62
256
370
-1
  6
ByLayer
 10
-41.4780000000000015
 20
-40.0050000000000026
 30
0.0
 11
-41.4669999999999987
 21
-39.8200000000000003
 31
0.0
  0
LINE
  5
1E8
100
AcDbEntity
100
AcDbLine
  8
0
 62
256
370
-1
  6
ByLayer
 10
-41.4669999999999987
 20
-39.8200000000000003
 30
0.0
 11
-41.4320000000000022
 21
-39.6390000000000029
 31
0.0
  0
LINE
  5
1E9
100
AcDbEntity
100
AcDbLine
  8
0
 62
256
370
-1
  6
ByLayer
 10
-41.4320000000000022
 20
-39.6390000000000029
 30
0.0
 11
-41.375
 21
-39.463000000000001
 31
0.0
  0
LINE
  5
1EA
100
AcDbEntity
100
AcDbLine
  8
0
 62
256
370
-1
  6
ByLayer
 10
-41.375
 20
-39.463000000000001
 30
0.0
 11
-41.2959999999999994
 21
-39.2950000000000017
 31
0.0
  0
LINE
  5
1EB
100
AcDbEntity
100
AcDbLine
  8
0
 62
256
370
-1
  6
ByLayer
 10
-41.2959999999999994
 20
-39.2950000000000017
 30
0.0
 11
-41.1970000000000027
 21
-39.1390000000000029
 31
0.0
  0
LINE
  5
1EC
100
AcDbEntity
100
AcDbLine
  8
0
 62
256
370
-1
  6
ByLayer
 10
-41.1970000000000027
 20
-39.1390000000000029
 30
0.0
 11
-41.0790000000000006
 21
-38.9969999999999999
 31
0.0
  0
LINE
  5
1ED
100
AcDbEntity
100
AcDbLine
  8
0
 62
256
370
-1
  6
ByLayer
 10
-41.0790000000000006
 20
-38.9969999999999999
 30
0.0
 11
-40.9440000000000026
 21
-38.8699999999999974
 31
0.0
  0
LINE
  5
1EE
100
AcDbEntity
100
AcDbLine
  8
0
 62
256
370
-1
  6
ByLayer
 10
-40.9440000000000026
 20
-38.8699999999999974
 30
0.0
 11
-40.7939999999999969
 21
-38.7610000000000028
 31
0.0
  0
LINE
  5
1EF
100
AcDbEntity
100
AcDbLine
  8
0
 62
256
370
-1
  6
ByLayer
 10
-40.7939999999999969
 20
-38.7610000000000028
 30
0.0
 11
-40.6319999999999979
 21
-38.671999999999997
 31
0.0
  0
LINE
  5
1F0
100
AcDbEntity
100
AcDbLine
  8
0
 62
256
370
-1
  6
ByLayer
 10
-40.6319999999999979
 20
-38.671999999999997
 30
0.0
 11
-40.4600000000000009
 21
-38.6039999999999992
 31
0.0
  0
LINE
  5
1F1
100
AcDbEntity
100
AcDbLine
  8
0
 62
256
370
-1
  6
ByLayer
 10
-40.4600000000000009
 20
-38.6039999999999992
 30
0.0
 11
-40.2809999999999988
 21
-38.5579999999999998
 31
0.0
  0
LINE
  5
1F2
100
AcDbEntity
100
AcDbLine
  8
0
 62
256
370
-1
  6
ByLayer
 10
-40.2809999999999988
 20
-38.5579999999999998
 30
0.0
 11
-40.097999999999999
 21
-38.5349999999999966
 31
0.0
  0
LINE
  5
1F3
100
AcDbEntity
100
AcDbLine
  8
0
 62
256
370
-1
  6
ByLayer
 10
-40.097999999999999
 20
-38.5349999999999966
 30
0.0
 11
-39.911999999999999
 21
-38.5349999999999966
 31
0.0
  0
LINE
  5
1F4
100
AcDbEntity
100
AcDbLine
  8
0
 62
256
370
-1
  6
ByLayer
 10
-39.911999999999999
 20
-38.5349999999999966
 30
0.0
 11
-39.7289999999999992
 21
-38.5579999999999998
 31
0.0
  0
LINE
  5
1F5
100
AcDbEntity
100
AcDbLine
  8
0
 62
256
370
-1
  6
ByLayer
 10
-39.7289999999999992
 20
-38.5579999999999998
 30
0.0
 11
-39.5499999999999972
 21
-38.6039999999999992
 31
0.0
  0
LINE
  5
1F6
100
AcDbEntity
100
AcDbLine
  8
0
 62
256
370
-1
  6
ByLayer
 10
-39.5499999999999972
 20
-38.6039999999999992
 30
0.0
 11
-39.3780000000000001
 21
-38.671999999999997
 31
0.0
  0
LINE
  5
1F7
100
AcDbEntity
100
AcDbLine
  8
0
 62
256
370
-1
  6
ByLayer
 10
-39.3780000000000001
 20
-38.671999999999997
 30
0.0
 11
-39.2160000000000011
 21
-38.7610000000000028
 31
0.0
  0
LINE
  5
1F8
100
AcDbEntity
100
AcDbLine
  8
0
 62
256
370
-1
  6
ByLayer
 10
-39.2160000000000011
 20
-38.7610000000000028
 30
0.0
 11
-39.0660000000000025
 21
-38.8699999999999974
 31
0.0
  0
LINE
  5
1F9
100
AcDbEntity
100
AcDbLine
  8
0
 62
256
370
-1
  6
ByLayer
 10
-39.0660000000000025
 20
-38.8699999999999974
 30
0.0
 11
-38.9309999999999974
 21
-38.9969999999999999
 31
0.0
  0
LINE
  5
1FA
100
AcDbEntity
100
AcDbLine
  8
0
 62
256
370
-1
  6
ByLayer
 10
-38.9309999999999974
 20
-38.9969999999999999
 30
0.0
 11
-38.8130000000000024
 21
-39.1390000000000029
 31
0.0
  0
LINE
  5
1FB
100
AcDbEntity
100
AcDbLine
  8
0
 62
256
370
-1
  6
ByLayer
 10
-38.8130000000000024
 20
-39.1390000000000029
 30
0.0
 11
-38.7139999999999986
 21
-39.2950000000000017
 31
0.0
  0
LINE
  5
1FC
100
AcDbEntity
100
AcDbLine
  8
0
 62
256
370
-1
  6
ByLayer
 10
-38.7139999999999986
 20
-39.2950000000000017
 30
0.0
 11
-38.634999999999998
 21
-39.463000000000001
 31
0.0
  0
LINE
  5
1FD
100
AcDbEntity
100
AcDbLine
  8
0
 62
256
370
-1
  6
ByLayer
 10
-38.634999999999998
 20
-39.463000000000001
 30
0.0
 11
-38.578000000000003
 21
-39.6390000000000029
 31
0.0
  0
LINE
  5
1FE
100
AcDbEntity
100
AcDbLine
  8
0
 62
256
370
-1
  6
ByLayer
 10
-38.578000000000003
 20
-39.6390000000000029
 30
0.0
 11
-38.5429999999999993
 21
-39.8200000000000003
 31
0.0
  0
LINE
  5
1FF
100
AcDbEntity
100
AcDbLine
  8
0
 62
256
370
-1
  6
ByLayer
 10
-38.5429999999999993
 20
-39.8200000000000003
 30
0.0
 11
-38.5319999999999965
 21
-40.0050000000000026
 31
0.0
  0
LINE
  5
200
100
AcDbEntity
100
AcDbLine
  8
0
 62
256
370
-1
  6
ByLayer
 10
-38.5319999999999965
 20
-40.0050000000000026
 30
0.0
 11
-38.5429999999999993
 21
-40.1899999999999977
 31
0.0
  0
LINE
  5
201
100
AcDbEntity
100
AcDbLine
  8
0
 62
256
370
-1
  6
ByLayer
 10
-38.5429999999999993
 20
-40.1899999999999977
 30
0.0
 11
-38.578000000000003
 21
-40.3710000000000022
 31
0.0
  0
LINE
  5
202
100
AcDbEntity
100
AcDbLine
  8
0
 62
256
370
-1
  6
ByLayer
 10
-38.578000000000003
 20
-40.3710000000000022
 30
0.0
 11
-38.634999999999998
 21
-40.546999999999997
 31
0.0
  0
LINE
  5
203
100
AcDbEntity
100
AcDbLine
  8
0
 62
256
370
-1
  6
ByLayer
 10
-38.634999999999998
 20
-40.546999999999997
 30
0.0
 11
-38.7139999999999986
 21
-40.7150000000000034
 31
0.0
  0
LINE
  5
204
100
AcDbEntity
100
AcDbLine
  8
0
 62
256
370
-1
  6
ByLayer
 10
-38.7139999999999986
 20
-40.7150000000000034
 30
0.0
 11
-38.8130000000000024
 21
-40.8710000000000022
 31
0.0
  0
LINE
  5
205
100
AcDbEntity
100
AcDbLine
  8
0
 62
256
370
-1
  6
ByLayer
 10
-38.8130000000000024
 20
-40.8710000000000022
 30
0.0
 11
-38.9309999999999974
 21
-41.0129999999999981
 31
0.0
  0
LINE
  5
206
100
AcDbEntity
100
AcDbLine
  8
0
 62
256
370
-1
  6
ByLayer
 10
-38.9309999999999974
 20
-41.0129999999999981
 30
0.0
 11
-39.0660000000000025
 21
-41.1400000000000006
 31
0.0
  0
LINE
  5
207
100
AcDbEntity
100
AcDbLine
  8
0
 62
256
370
-1
  6
ByLayer
 10
-39.0660000000000025
 20
-41.1400000000000006
 30
0.0
 11
-39.2160000000000011
 21
-41.2490000000000023
 31
0.0
  0
LINE
  5
208
100
AcDbEntity
100
AcDbLine
  8
0
 62
256
370
-1
  6
ByLayer
 10
-39.2160000000000011
 20
-41.2490000000000023
 30
0.0
 11
-39.3780000000000001
 21
-41.338000000000001
 31
0.0
  0
LINE
  5
209
100
AcDbEntity
100
AcDbLine
  8
0
 62
256
370
-1
  6
ByLayer
 10
-39.3780000000000001
 20
-41.338000000000001
 30
0.0
 11
-39.5499999999999972
 21
-41.4059999999999988
 31
0.0
  0
LINE
  5
20A
100
AcDbEntity
100
AcDbLine
  8
0
 62
256
370
-1
  6
ByLayer
 10
-39.5499999999999972
 20
-41.4059999999999988
 30
0.0
 11
-39.7289999999999992
 21
-41.4519999999999982
 31
0.0
  0
LINE
  5
20B
100
AcDbEntity
100
AcDbLine
  8
0
 62
256
370
-1
  6
ByLayer
 10
-39.7289999999999992
 20
-41.4519999999999982
 30
0.0
 11
-39.911999999999999
 21
-41.4750000000000014
 31
0.0
  0
LINE
  5
20C
100
AcDbEntity
100
AcDbLine
  8
0
 62
256
370
-1
  6
ByLayer
 10
-39.911999999999999
 20
-41.4750000000000014
 30
0.0
 11
-40.097999999999999
 21
-41.4750000000000014
 31
0.0
  0
LINE
  5
20D
100
AcDbEntity
100
AcDbLine
  8
0
 62
256
370
-1
  6
ByLayer
 10
-40.097999999999999
 20
-41.4750000000000014
 30
0.0
 11
-40.2809999999999988
 21
-41.4519999999999982
 31
0.0
  0
LINE
  5
20E
100
AcDbEntity
100
AcDbLine
  8
0
 62
256
370
-1
  6
ByLayer
 10
-40.2809999999999988
 20
-41.4519999999999982
 30
0.0
 11
-40.4600000000000009
 21
-41.4059999999999988
 31
0.0
  0
LINE
  5
20F
100
AcDbEntity
100
AcDbLine
  8
0
 62
256
370
-1
  6
ByLayer
 10
-40.4600000000000009
 20
-41.4059999999999988
 30
0.0
 11
-40.6319999999999979
 21
-41.338000000000001
 31
0.0
  0
LINE
  5
210
100
AcDbEntity
100
AcDbLine
  8
0
 62
256
370
-1
  6
ByLayer
 10
-40.6319999999999979
 20
-41.338000000000001
 30
0.0
 11
-40.7939999999999969
 21
-41.2490000000000023
 31
0.0
  0
LINE
  5
211
100
AcDbEntity
100
AcDbLine
  8
0
 62
256
370
-1
  6
ByLayer
 10
-40.7939999999999969
 20
-41.2490000000000023
 30
0.0
 11
-40.9440000000000026
 21
-41.1400000000000006
 31
0.0
  0
LINE
  5
212
100
AcDbEntity
100
AcDbLine
  8
0
 62
256
370
-1
  6
ByLayer
 10
-40.9440000000000026
 20
-41.1400000000000006
 30
0.0
 11
-41.0790000000000006
 21
-41.0129999999999981
 31
0.0
  0
LINE
  5
213
100
AcDbEntity
100
AcDbLine
  8
0
 62
256
370
-1
  6
ByLayer
 10
-41.0790000000000006
 20
-41.0129999999999981
 30
0.0
 11
-41.1970000000000027
 21
-40.8710000000000022
 31
0.0
  0
LINE
  5
214
100
AcDbEntity
100
AcDbLine
  8
0
 62
256
370
-1
  6
ByLayer
 10
-41.1970000000000027
 20
-40.8710000000000022
 30
0.0
 11
-41.2959999999999994
 21
-40.7150000000000034
 31
0.0
  0
LINE
  5
215
100
AcDbEntity
100
AcDbLine
  8
0
 62
256
370
-1
  6
ByLayer
 10
-41.2959999999999994
 20
-40.7150000000000034
 30
0.0
 11
-41.375
 21
-40.546999999999997
 31
0.0
  0
LINE
  5
216
100
AcDbEntity
100
AcDbLine
  8
0
 62
256
370
-1
  6
ByLayer
 10
-41.375
 20
-40.546999999999997
 30
0.0
 11
-41.4320000000000022
 21
-40.3710000000000022
 31
0.0
  0
LINE
  5
217
100
AcDbEntity
100
AcDbLine
  8
0
 62
256
370
-1
  6
ByLayer
 10
-41.4320000000000022
 20
-40.3710000000000022
 30
0.0
 11
-41.4669999999999987
 21
-40.1899999999999977
 31
0.0
  0
LINE
  5
218
100
AcDbEntity
100
AcDbLine
  8
0
 62
256
370
-1
  6
ByLayer
 10
-41.4669999999999987
 20
-40.1899999999999977
 30
0.0
 11
-41.4780000000000015
 21
-40.0050000000000026
 31
0.0
  0
LINE
  5
219
100
AcDbEntity
100
AcDbLine
  8
0
 62
256
370
-1
  6
ByLayer
 10
-41.4780000000000015
 20
40.0050000000000026
 30
0.0
 11
-41.4669999999999987
 21
40.1899999999999977
 31
0.0
  0
LINE
  5
21A
100
AcDbEntity
100
AcDbLine
  8
0
 62
256
370
-1
  6
ByLayer
 10
-41.4669999999999987
 20
40.1899999999999977
 30
0.0
 11
-41.4320000000000022
 21
40.3710000000000022
 31
0.0
  0
LINE
  5
21B
100
AcDbEntity
100
AcDbLine
  8
0
 62
256
370
-1
  6
ByLayer
 10
-41.4320000000000022
 20
40.3710000000000022
 30
0.0
 11
-41.375
 21
40.546999999999997
 31
0.0
  0
LINE
  5
21C
100
AcDbEntity
100
AcDbLine
  8
0
 62
256
370
-1
  6
ByLayer
 10
-41.375
 20
40.546999999999997
 30
0.0
 11
-41.2959999999999994
 21
40.7150000000000034
 31
0.0
  0
LINE
  5
21D
100
AcDbEntity
100
AcDbLine
  8
0
 62
256
370
-1
  6
ByLayer
 10
-41.2959999999999994
 20
40.7150000000000034
 30
0.0
 11
-41.1970000000000027
 21
40.8710000000000022
 31
0.0
  0
LINE
  5
21E
100
AcDbEntity
100
AcDbLine
  8
0
 62
256
370
-1
  6
ByLayer
 10
-41.1970000000000027
 20
40.8710000000000022
 30
0.0
 11
-41.0790000000000006
 21
41.0129999999999981
 31
0.0
  0
LINE
  5
21F
100
AcDbEntity
100
AcDbLine
  8
0
 62
256
370
-1
  6
ByLayer
 10
-41.0790000000000006
 20
41.0129999999999981
 30
0.0
 11
-40.9440000000000026
 21
41.1400000000000006
 31
0.0
  0
LINE
  5
220
100
AcDbEntity
100
AcDbLine
  8
0
 62
256
370
-1
  6
ByLayer
 10
-40.9440000000000026
 20
41.1400000000000006
 30
0.0
 11
-40.7939999999999969
 21
41.2490000000000023
 31
0.0
  0
LINE
  5
221
100
AcDbEntity
100
AcDbLine
  8
0
 62
256
370
-1
  6
ByLayer
 10
-40.7939999999999969
 20
41.2490000000000023
 30
0.0
 11
-40.6319999999999979
 21
41.338000000000001
 31
0.0
  0
LINE
  5
222
100
AcDbEntity
100
AcDbLine
  8
0
 62
256
370
-1
  6
ByLayer
 10
-40.6319999999999979
 20
41.338000000000001
 30
0.0
 11
-40.4600000000000009
 21
41.4059999999999988
 31
0.0
  0
LINE
  5
223
100
AcDbEntity
100
AcDbLine
  8
0
 62
256
370
-1
  6
ByLayer
 10
-40.4600000000000009
 20
41.4059999999999988
 30
0.0
 11
-40.2809999999999988
 21
41.4519999999999982
 31
0.0
  0
LINE
  5
224
100
AcDbEntity
100
AcDbLine
  8
0
 62
256
370
-1
  6
ByLayer
 10
-40.2809999999999988
 20
41.4519999999999982
 30
0.0
 11
-40.097999999999999
 21
41.4750000000000014
 31
0.0
  0
LINE
  5
225
100
AcDbEntity
100
AcDbLine
  8
0
 62
256
370
-1
  6
ByLayer
 10
-40.097999999999999
 20
41.4750000000000014
 30
0.0
 11
-39.911999999999999
 21
41.4750000000000014
 31
0.0
  0
LINE
  5
226
100
AcDbEntity
100
AcDbLine
  8
0
 62
256
370
-1
  6
ByLayer
 10
-39.911999999999999
 20
41.4750000000000014
 30
0.0
 11
-39.7289999999999992
 21
41.4519999999999982
 31
0.0
  0
LINE
  5
227
100
AcDbEntity
100
AcDbLine
  8
0
 62
256
370
-1
  6
ByLayer
 10
-39.7289999999999992
 20
41.4519999999999982
 30
0.0
 11
-39.5499999999999972
 21
41.4059999999999988
 31
0.0
  0
LINE
  5
228
100
AcDbEntity
100
AcDbLine
  8
0
 62
256
370
-1
  6
ByLayer
 10
-39.5499999999999972
 20
41.4059999999999988
 30
0.0
 11
-39.3780000000000001
 21
41.338000000000001
 31
0.0
  0
LINE
  5
229
100
AcDbEntity
100
AcDbLine
  8
0
 62
256
370
-1
  6
ByLayer
 10
-39.3780000000000001
 20
41.338000000000001
 30
0.0
 11
-39.2160000000000011
 21
41.2490000000000023
 31
0.0
  0
LINE
  5
22A
100
AcDbEntity
100
AcDbLine
  8
0
 62
256
370
-1
  6
ByLayer
 10
-39.2160000000000011
 20
41.2490000000000023
 30
0.0
 11
-39.0660000000000025
 21
41.1400000000000006
 31
0.0
  0
LINE
  5
22B
100
AcDbEntity
100
AcDbLine
  8
0
 62
256
370
-1
  6
ByLayer
 10
-39.0660000000000025
 20
41.1400000000000006
 30
0.0
 11
-38.9309999999999974
 21
41.0129999999999981
 31
0.0
  0
LINE
  5
22C
100
AcDbEntity
100
AcDbLine
  8
0
 62
256
370
-1
  6
ByLayer
 10
-38.9309999999999974
 20
41.0129999999999981
 30
0.0
 11
-38.8130000000000024
 21
40.8710000000000022
 31
0.0
  0
LINE
  5
22D
100
AcDbEntity
100
AcDbLine
  8
0
 62
256
370
-1
  6
ByLayer
 10
-38.8130000000000024
 20
40.8710000000000022
 30
0.0
 11
-38.7139999999999986
 21
40.7150000000000034
 31
0.0
  0
LINE
  5
22E
100
AcDbEntity
100
AcDbLine
  8
0
 62
256
370
-1
  6
ByLayer
 10
-38.7139999999999986
 20
40.7150000000000034
 30
0.0
 11
-38.634999999999998
 21
40.546999999999997
 31
0.0
  0
LINE
  5
22F
100
AcDbEntity
100
AcDbLine
  8
0
 62
256
370
-1
  6
ByLayer
 10
-38.634999999999998
 20
40.546999999999997
 30
0.0
 11
-38.578000000000003
 21
40.3710000000000022
 31
0.0
  0
LINE
  5
230
100
AcDbEntity
100
AcDbLine
  8
0
 62
256
370
-1
  6
ByLayer
 10
-38.578000000000003
 20
40.3710000000000022
 30
0.0
 11
-38.5429999999999993
 21
40.1899999999999977
 31
0.0
  0
LINE
  5
231
100
AcDbEntity
100
AcDbLine
  8
0
 62
256
370
-1
  6
ByLayer
 10
-38.5429999999999993
 20
40.1899999999999977
 30
0.0
 11
-38.5319999999999965
 21
40.0050000000000026
 31
0.0
  0
LINE
  5
232
100
AcDbEntity
100
AcDbLine
  8
0
 62
256
370
-1
  6
ByLayer
 10
-38.5319999999999965
 20
40.0050000000000026
 30
0.0
 11
-38.5429999999999993
 21
39.8200000000000003
 31
0.0
  0
LINE
  5
233
100
AcDbEntity
100
AcDbLine
  8
0
 62
256
370
-1
  6
ByLayer
 10
-38.5429999999999993
 20
39.8200000000000003
 30
0.0
 11
-38.578000000000003
 21
39.6390000000000029
 31
0.0
  0
LINE
  5
234
100
AcDbEntity
100
AcDbLine
  8
0
 62
256
370
-1
  6
ByLayer
 10
-38.578000000000003
 20
39.6390000000000029
 30
0.0
 11
-38.634999999999998
 21
39.463000000000001
 31
0.0
  0
LINE
  5
235
100
AcDbEntity
100
AcDbLine
  8
0
 62
256
370
-1
  6
ByLayer
 10
-38.634999999999998
 20
39.463000000000001
 30
0.0
 11
-38.7139999999999986
 21
39.2950000000000017
 31
0.0
  0
LINE
  5
236
100
AcDbEntity
100
AcDbLine
  8
0
 62
256
370
-1
  6
ByLayer
 10
-38.7139999999999986
 20
39.2950000000000017
 30
0.0
 11
-38.8130000000000024
 21
39.1390000000000029
 31
0.0
  0
LINE
  5
237
100
AcDbEntity
100
AcDbLine
  8
0
 62
256
370
-1
  6
ByLayer
 10
-38.8130000000000024
 20
39.1390000000000029
 30
0.0
 11
-38.9309999999999974
 21
38.9969999999999999
 31
0.0
  0
LINE
  5
238
100
AcDbEntity
100
AcDbLine
  8
0
 62
256
370
-1
  6
ByLayer
 10
-38.9309999999999974
 20
38.9969999999999999
 30
0.0
 11
-39.0660000000000025
 21
38.8699999999999974
 31
0.0
  0
LINE
  5
239
100
AcDbEntity
100
AcDbLine
  8
0
 62
256
370
-1
  6
ByLayer
 10
-39.0660000000000025
 20
38.8699999999999974
 30
0.0
 11
-39.2160000000000011
 21
38.7610000000000028
 31
0.0
  0
LINE
  5
23A
100
AcDbEntity
100
AcDbLine
  8
0
 62
256
370
-1
  6
ByLayer
 10
-39.2160000000000011
 20
38.7610000000000028
 30
0.0
 11
-39.3780000000000001
 21
38.671999999999997
 31
0.0
  0
LINE
  5
23B
100
AcDbEntity
100
AcDbLine
  8
0
 62
256
370
-1
  6
ByLayer
 10
-39.3780000000000001
 20
38.671999999999997
 30
0.0
 11
-39.5499999999999972
 21
38.6039999999999992
 31
0.0
  0
LINE
  5
23C
100
AcDbEntity
100
AcDbLine
  8
0
 62
256
370
-1
  6
ByLayer
 10
-39.5499999999999972
 20
38.6039999999999992
 30
0.0
 11
-39.7289999999999992
 21
38.5579999999999998
 31
0.0
  0
LINE
  5
23D
100
AcDbEntity
100
AcDbLine
  8
0
 62
256
370
-1
  6
ByLayer
 10
-39.7289999999999992
 20
38.5579999999999998
 30
0.0
 11
-39.911999999999999
 21
38.5349999999999966
 31
0.0
  0
LINE
  5
23E
100
AcDbEntity
100
AcDbLine
  8
0
 62
256
370
-1
  6
ByLayer
 10
-39.911999999999999
 20
38.5349999999999966
 30
0.0
 11
-40.097999999999999
 21
38.5349999999999966
 31
0.0
  0
LINE
  5
23F
100
AcDbEntity
100
AcDbLine
  8
0
 62
256
370
-1
  6
ByLayer
 10
-40.097999999999999
 20
38.5349999999999966
 30
0.0
 11
-40.2809999999999988
 21
38.5579999999999998
 31
0.0
  0
LINE
  5
240
100
AcDbEntity
100
AcDbLine
  8
0
 62
256
370
-1
  6
ByLayer
 10
-40.2809999999999988
 20
38.5579999999999998
 30
0.0
 11
-40.4600000000000009
 21
38.6039999999999992
 31
0.0
  0
LINE
  5
241
100
AcDbEntity
100
AcDbLine
  8
0
 62
256
370
-1
  6
ByLayer
 10
-40.4600000000000009
 20
38.6039999999999992
 30
0.0
 11
-40.6319999999999979
 21
38.671999999999997
 31
0.0
  0
LINE
  5
242
100
AcDbEntity
100
AcDbLine
  8
0
 62
256
370
-1
  6
ByLayer
 10
-40.6319999999999979
 20
38.671999999999997
 30
0.0
 11
-40.7939999999999969
 21
38.7610000000000028
 31
0.0
  0
LINE
  5
243
100
AcDbEntity
100
AcDbLine
  8
0
 62
256
370
-1
  6
ByLayer
 10
-40.7939999999999969
 20
38.7610000000000028
 30
0.0
 11
-40.9440000000000026
 21
38.8699999999999974
 31
0.0
  0
LINE
  5
244
100
AcDbEntity
100
AcDbLine
  8
0
 62
256
370
-1
  6
ByLayer
 10
-40.9440000000000026
 20
38.8699999999999974
 30
0.0
 11
-41.0790000000000006
 21
38.9969999999999999
 31
0.0
  0
LINE
  5
245
100
AcDbEntity
100
AcDbLine
  8
0
 62
256
370
-1
  6
ByLayer
 10
-41.0790000000000006
 20
38.9969999999999999
 30
0.0
 11
-41.1970000000000027
 21
39.1390000000000029
 31
0.0
  0
LINE
  5
246
100
AcDbEntity
100
AcDbLine
  8
0
 62
256
370
-1
  6
ByLayer
 10
-41.1970000000000027
 20
39.1390000000000029
 30
0.0
 11
-41.2959999999999994
 21
39.2950000000000017
 31
0.0
  0
LINE
  5
247
100
AcDbEntity
100
AcDbLine
  8
0
 62
256
370
-1
  6
ByLayer
 10
-41.2959999999999994
 20
39.2950000000000017
 30
0.0
 11
-41.375
 21
39.463000000000001
 31
0.0
  0
LINE
  5
248
100
AcDbEntity
100
AcDbLine
  8
0
 62
256
370
-1
  6
ByLayer
 10
-41.375
 20
39.463000000000001
 30
0.0
 11
-41.4320000000000022
 21
39.6390000000000029
 31
0.0
  0
LINE
  5
249
100
AcDbEntity
100
AcDbLine
  8
0
 62
256
370
-1
  6
ByLayer
 10
-41.4320000000000022
 20
39.6390000000000029
 30
0.0
 11
-41.4669999999999987
 21
39.8200000000000003
 31
0.0
  0
LINE
  5
24A
100
AcDbEntity
100
AcDbLine
  8
0
 62
256
370
-1
  6
ByLayer
 10
-41.4669999999999987
 20
39.8200000000000003
 30
0.0
 11
-41.4780000000000015
 21
40.0050000000000026
 31
0.0
  0
LINE
  5
24B
100
AcDbEntity
100
AcDbLine
  8
0
 62
256
370
-1
  6
ByLayer
 10
-31.75
 20
-229.5
 30
0.0
 11
-31.75
 21
-226.5
 31
0.0
  0
LINE
  5
24C
100
AcDbEntity
100
AcDbLine
  8
0
 62
256
370
-1
  6
ByLayer
 10
-31.75
 20
-226.5
 30
0.0
 11
-12.6999999999999993
 21
-226.5
 31
0.0
  0
LINE
  5
24D
100
AcDbEntity
100
AcDbLine
  8
0
 62
256
370
-1
  6
ByLayer
 10
-12.6999999999999993
 20
-226.5
 30
0.0
 11
-12.6999999999999993
 21
-229.5
 31
0.0
  0
LINE
  5
24E
100
AcDbEntity
100
AcDbLine
  8
0
 62
256
370
-1
  6
ByLayer
 10
-12.6999999999999993
 20
-229.5
 30
0.0
 11
-31.75
 21
-229.5
 31
0.0
  0
LINE
  5
24F
100
AcDbEntity
100
AcDbLine
  8
0
 62
256
370
-1
  6
ByLayer
 10
-31.75
 20
-137.5999999999999943
 30
0.0
 11
-31.75
 21
-134.5999999999999943
 31
0.0
  0
LINE
  5
250
100
AcDbEntity
100
AcDbLine
  8
0
 62
256
370
-1
  6
ByLayer
 10
-31.75
 20
-134.5999999999999943
 30
0.0
 11
-12.6999999999999993
 21
-134.5999999999999943
 31
0.0
  0
LINE
  5
251
100
AcDbEntity
100
AcDbLine
  8
0
 62
256
370
-1
  6
ByLayer
 10
-12.6999999999999993
 20
-134.5999999999999943
 30
0.0
 11
-12.6999999999999993
 21
-137.5999999999999943
 31
0.0
  0
LINE
  5
252
100
AcDbEntity
100
AcDbLine
  8
0
 62
256
370
-1
  6
ByLayer
 10
-12.6999999999999993
 20
-137.5999999999999943
 30
0.0
 11
-31.75
 21
-137.5999999999999943
 31
0.0
  0
LINE
  5
253
100
AcDbEntity
100
AcDbLine
  8
0
 62
256
370
-1
  6
ByLayer
 10
-31.75
 20
-47.4500000000000028
 30
0.0
 11
-31.75
 21
-44.4500000000000028
 31
0.0
  0
LINE
  5
254
100
AcDbEntity
100
AcDbLine
  8
0
 62
256
370
-1
  6
ByLayer
 10
-31.75
 20
-44.4500000000000028
 30
0.0
 11
-12.6999999999999993
 21
-44.4500000000000028
 31
0.0
  0
LINE
  5
255
100
AcDbEntity
100
AcDbLine
  8
0
 62
256
370
-1
  6
ByLayer
 10
-12.6999999999999993
 20
-44.4500000000000028
 30
0.0
 11
-12.6999999999999993
 21
-47.4500000000000028
 31
0.0
  0
LINE
  5
256
100
AcDbEntity
100
AcDbLine
  8
0
 62
256
370
-1
  6
ByLayer
 10
-12.6999999999999993
 20
-47.4500000000000028
 30
0.0
 11
-31.75
 21
-47.4500000000000028
 31
0.0
  0
LINE
  5
257
100
AcDbEntity
100
AcDbLine
  8
0
 62
256
370
-1
  6
ByLayer
 10
-31.75
 20
44.4500000000000028
 30
0.0
 11
-31.75
 21
47.4500000000000028
 31
0.0
  0
LINE
  5
258
100
AcDbEntity
100
AcDbLine
  8
0
 62
256
370
-1
  6
ByLayer
 10
-31.75
 20
47.4500000000000028
 30
0.0
 11
-12.6999999999999993
 21
47.4500000000000028
 31
0.0
  0
LINE
  5
259
100
AcDbEntity
100
AcDbLine
  8
0
 62
256
370
-1
  6
ByLayer
 10
-12.6999999999999993
 20
47.4500000000000028
 30
0.0
 11
-12.6999999999999993
 21
44.4500000000000028
 31
0.0
  0
LINE
  5
25A
100
AcDbEntity
100
AcDbLine
  8
0
 62
256
370
-1
  6
ByLayer
 10
-12.6999999999999993
 20
44.4500000000000028
 30
0.0
 11
-31.75
 21
44.4500000000000028
 31
0.0
  0
LINE
  5
25B
100
AcDbEntity
100
AcDbLine
  8
0
 62
256
370
-1
  6
ByLayer
 10
-25.3999999999999986
 20
-201.0999999999999943
 30
0.0
 11
-25.3999999999999986
 21
-163.0
 31
0.0
  0
LINE
  5
25C
100
AcDbEntity
100
AcDbLine
  8
0
 62
256
370
-1
  6
ByLayer
 10
-25.3999999999999986
 20
-163.0
 30
0.0
 11
-25.3500000000000014
 21
-162.2040000000000077
 31
0.0
  0
LINE
  5
25D
100
AcDbEntity
100
AcDbLine
  8
0
 62
256
370
-1
  6
ByLayer
 10
-25.3500000000000014
 20
-162.2040000000000077
 30
0.0
 11
-25.2010000000000005
 21
-161.4209999999999923
 31
0.0
  0
LINE
  5
25E
100
AcDbEntity
100
AcDbLine
  8
0
 62
256
370
-1
  6
ByLayer
 10
-25.2010000000000005
 20
-161.4209999999999923
 30
0.0
 11
-24.9540000000000006
 21
-160.6620000000000061
 31
0.0
  0
LINE
  5
25F
100
AcDbEntity
100
AcDbLine
  8
0
 62
256
370
-1
  6
ByLayer
 10
-24.9540000000000006
 20
-160.6620000000000061
 30
0.0
 11
-24.6149999999999984
 21
-159.9410000000000025
 31
0.0
  0
LINE
  5
260
100
AcDbEntity
100
AcDbLine
  8
0
 62
256
370
-1
  6
ByLayer
 10
-24.6149999999999984
 20
-159.9410000000000025
 30
0.0
 11
-24.1870000000000012
 21
-159.2680000000000007
 31
0.0
  0
LINE
  5
261
100
AcDbEntity
100
AcDbLine
  8
0
 62
256
370
-1
  6
ByLayer
 10
-24.1870000000000012
 20
-159.2680000000000007
 30
0.0
 11
-23.6789999999999985
 21
-158.6529999999999916
 31
0.0
  0
LINE
  5
262
100
AcDbEntity
100
AcDbLine
  8
0
 62
256
370
-1
  6
ByLayer
 10
-23.6789999999999985
 20
-158.6529999999999916
 30
0.0
 11
-23.097999999999999
 21
-158.1069999999999993
 31
0.0
  0
LINE
  5
263
100
AcDbEntity
100
AcDbLine
  8
0
 62
256
370
-1
  6
ByLayer
 10
-23.097999999999999
 20
-158.1069999999999993
 30
0.0
 11
-22.4529999999999994
 21
-157.63900000000001
 31
0.0
  0
LINE
  5
264
100
AcDbEntity
100
AcDbLine
  8
0
 62
256
370
-1
  6
ByLayer
 10
-22.4529999999999994
 20
-157.63900000000001
 30
0.0
 11
-21.7540000000000013
 21
-157.2539999999999907
 31
0.0
  0
LINE
  5
265
100
AcDbEntity
100
AcDbLine
  8
0
 62
256
370
-1
  6
ByLayer
 10
-21.7540000000000013
 20
-157.2539999999999907
 30
0.0
 11
-21.0120000000000005
 21
-156.9610000000000127
 31
0.0
  0
LINE
  5
266
100
AcDbEntity
100
AcDbLine
  8
0
 62
256
370
-1
  6
ByLayer
 10
-21.0120000000000005
 20
-156.9610000000000127
 30
0.0
 11
-20.2399999999999984
 21
-156.7620000000000005
 31
0.0
  0
LINE
  5
267
100
AcDbEntity
100
AcDbLine
  8
0
 62
256
370
-1
  6
ByLayer
 10
-20.2399999999999984
 20
-156.7620000000000005
 30
0.0
 11
-19.4490000000000016
 21
-156.6630000000000109
 31
0.0
  0
LINE
  5
268
100
AcDbEntity
100
AcDbLine
  8
0
 62
256
370
-1
  6
ByLayer
 10
-19.4490000000000016
 20
-156.6630000000000109
 30
0.0
 11
-19.0500000000000007
 21
-156.6630000000000109
 31
0.0
  0
LINE
  5
269
100
AcDbEntity
100
AcDbLine
  8
0
 62
256
370
-1
  6
ByLayer
 10
-19.0500000000000007
 20
-156.6630000000000109
 30
0.0
 11
-19.0500000000000007
 21
-156.6500000000000057
 31
0.0
  0
LINE
  5
26A
100
AcDbEntity
100
AcDbLine
  8
0
 62
256
370
-1
  6
ByLayer
 10
-19.0500000000000007
 20
-156.6500000000000057
 30
0.0
 11
19.0500000000000007
 21
-156.6500000000000057
 31
0.0
  0
LINE
  5
26B
100
AcDbEntity
100
AcDbLine
  8
0
 62
256
370
-1
  6
ByLayer
 10
19.0500000000000007
 20
-156.6500000000000057
 30
0.0
 11
19.0500000000000007
 21
-156.6630000000000109
 31
0.0
  0
LINE
  5
26C
100
AcDbEntity
100
AcDbLine
  8
0
 62
256
370
-1
  6
ByLayer
 10
19.0500000000000007
 20
-156.6630000000000109
 30
0.0
 11
19.4490000000000016
 21
-156.6630000000000109
 31
0.0
  0
LINE
  5
26D
100
AcDbEntity
100
AcDbLine
  8
0
 62
256
370
-1
  6
ByLayer
 10
19.4490000000000016
 20
-156.6630000000000109
 30
0.0
 11
20.2399999999999984
 21
-156.7620000000000005
 31
0.0
  0
LINE
  5
26E
100
AcDbEntity
100
AcDbLine
  8
0
 62
256
370
-1
  6
ByLayer
 10
20.2399999999999984
 20
-156.7620000000000005
 30
0.0
 11
21.0120000000000005
 21
-156.9610000000000127
 31
0.0
  0
LINE
  5
26F
100
AcDbEntity
100
AcDbLine
  8
0
 62
256
370
-1
  6
ByLayer
 10
21.0120000000000005
 20
-156.9610000000000127
 30
0.0
 11
21.7540000000000013
 21
-157.2539999999999907
 31
0.0
  0
LINE
  5
270
100
AcDbEntity
100
AcDbLine
  8
0
 62
256
370
-1
  6
ByLayer
 10
21.7540000000000013
 20
-157.2539999999999907
 30
0.0
 11
22.4529999999999994
 21
-157.63900000000001
 31
0.0
  0
LINE
  5
271
100
AcDbEntity
100
AcDbLine
  8
0
 62
256
370
-1
  6
ByLayer
 10
22.4529999999999994
 20
-157.63900000000001
 30
0.0
 11
23.097999999999999
 21
-158.1069999999999993
 31
0.0
  0
LINE
  5
272
100
AcDbEntity
100
AcDbLine
  8
0
 62
256
370
-1
  6
ByLayer
 10
23.097999999999999
 20
-158.1069999999999993
 30
0.0
 11
23.6789999999999985
 21
-158.6529999999999916
 31
0.0
  0
LINE
  5
273
100
AcDbEntity
100
AcDbLine
  8
0
 62
256
370
-1
  6
ByLayer
 10
23.6789999999999985
 20
-158.6529999999999916
 30
0.0
 11
24.1870000000000012
 21
-159.2680000000000007
 31
0.0
  0
LINE
  5
274
100
AcDbEntity
100
AcDbLine
  8
0
 62
256
370
-1
  6
ByLayer
 10
24.1870000000000012
 20
-159.2680000000000007
 30
0.0
 11
24.6149999999999984
 21
-159.9410000000000025
 31
0.0
  0
LINE
  5
275
100
AcDbEntity
100
AcDbLine
  8
0
 62
256
370
-1
  6
ByLayer
 10
24.6149999999999984
 20
-159.9410000000000025
 30
0.0
 11
24.9540000000000006
 21
-160.6620000000000061
 31
0.0
  0
LINE
  5
276
100
AcDbEntity
100
AcDbLine
  8
0
 62
256
370
-1
  6
ByLayer
 10
24.9540000000000006
 20
-160.6620000000000061
 30
0.0
 11
25.2010000000000005
 21
-161.4209999999999923
 31
0.0
  0
LINE
  5
277
100
AcDbEntity
100
AcDbLine
  8
0
 62
256
370
-1
  6
ByLayer
 10
25.2010000000000005
 20
-161.4209999999999923
 30
0.0
 11
25.3500000000000014
 21
-162.2040000000000077
 31
0.0
  0
LINE
  5
278
100
AcDbEntity
100
AcDbLine
  8
0
 62
256
370
-1
  6
ByLayer
 10
25.3500000000000014
 20
-162.2040000000000077
 30
0.0
 11
25.3999999999999986
 21
-163.0
 31
0.0
  0
LINE
  5
279
100
AcDbEntity
100
AcDbLine
  8
0
 62
256
370
-1
  6
ByLayer
 10
25.3999999999999986
 20
-163.0
 30
0.0
 11
25.3999999999999986
 21
-201.0999999999999943
 31
0.0
  0
LINE
  5
27A
100
AcDbEntity
100
AcDbLine
  8
0
 62
256
370
-1
  6
ByLayer
 10
25.3999999999999986
 20
-201.0999999999999943
 30
0.0
 11
25.3500000000000014
 21
-201.8959999999999866
 31
0.0
  0
LINE
  5
27B
100
AcDbEntity
100
AcDbLine
  8
0
 62
256
370
-1
  6
ByLayer
 10
25.3500000000000014
 20
-201.8959999999999866
 30
0.0
 11
25.2010000000000005
 21
-202.679000000000002
 31
0.0
  0
LINE
  5
27C
100
AcDbEntity
100
AcDbLine
  8
0
 62
256
370
-1
  6
ByLayer
 10
25.2010000000000005
 20
-202.679000000000002
 30
0.0
 11
24.9540000000000006
 21
-203.4379999999999882
 31
0.0
  0
LINE
  5
27D
100
AcDbEntity
100
AcDbLine
  8
0
 62
256
370
-1
  6
ByLayer
 10
24.9540000000000006
 20
-203.4379999999999882
 30
0.0
 11
24.6149999999999984
 21
-204.1589999999999918
 31
0.0
  0
LINE
  5
27E
100
AcDbEntity
100
AcDbLine
  8
0
 62
256
370
-1
  6
ByLayer
 10
24.6149999999999984
 20
-204.1589999999999918
 30
0.0
 11
24.1870000000000012
 21
-204.8319999999999936
 31
0.0
  0
LINE
  5
27F
100
AcDbEntity
100
AcDbLine
  8
0
 62
256
370
-1
  6
ByLayer
 10
24.1870000000000012
 20
-204.8319999999999936
 30
0.0
 11
23.6789999999999985
 21
-205.4470000000000027
 31
0.0
  0
LINE
  5
280
100
AcDbEntity
100
AcDbLine
  8
0
 62
256
370
-1
  6
ByLayer
 10
23.6789999999999985
 20
-205.4470000000000027
 30
0.0
 11
23.097999999999999
 21
-205.992999999999995
 31
0.0
  0
LINE
  5
281
100
AcDbEntity
100
AcDbLine
  8
0
 62
256
370
-1
  6
ByLayer
 10
23.097999999999999
 20
-205.992999999999995
 30
0.0
 11
22.4529999999999994
 21
-206.4610000000000127
 31
0.0
  0
LINE
  5
282
100
AcDbEntity
100
AcDbLine
  8
0
 62
256
370
-1
  6
ByLayer
 10
22.4529999999999994
 20
-206.4610000000000127
 30
0.0
 11
21.7540000000000013
 21
-206.8460000000000036
 31
0.0
  0
LINE
  5
283
100
AcDbEntity
100
AcDbLine
  8
0
 62
256
370
-1
  6
ByLayer
 10
21.7540000000000013
 20
-206.8460000000000036
 30
0.0
 11
21.0120000000000005
 21
-207.13900000000001
 31
0.0
  0
LINE
  5
284
100
AcDbEntity
100
AcDbLine
  8
0
 62
256
370
-1
  6
ByLayer
 10
21.0120000000000005
 20
-207.13900000000001
 30
0.0
 11
20.2399999999999984
 21
-207.3379999999999939
 31
0.0
  0
LINE
  5
285
100
AcDbEntity
100
AcDbLine
  8
0
 62
256
370
-1
  6
ByLayer
 10
20.2399999999999984
 20
-207.3379999999999939
 30
0.0
 11
19.4490000000000016
 21
-207.4370000000000118
 31
0.0
  0
LINE
  5
286
100
AcDbEntity
100
AcDbLine
  8
0
 62
256
370
-1
  6
ByLayer
 10
19.4490000000000016
 20
-207.4370000000000118
 30
0.0
 11
19.0500000000000007
 21
-207.4370000000000118
 31
0.0
  0
LINE
  5
287
100
AcDbEntity
100
AcDbLine
  8
0
 62
256
370
-1
  6
ByLayer
 10
19.0500000000000007
 20
-207.4370000000000118
 30
0.0
 11
19.0500000000000007
 21
-207.4499999999999886
 31
0.0
  0
LINE
  5
288
100
AcDbEntity
100
AcDbLine
  8
0
 62
256
370
-1
  6
ByLayer
 10
19.0500000000000007
 20
-207.4499999999999886
 30
0.0
 11
-19.0500000000000007
 21
-207.4499999999999886
 31
0.0
  0
LINE
  5
289
100
AcDbEntity
100
AcDbLine
  8
0
 62
256
370
-1
  6
ByLayer
 10
-19.0500000000000007
 20
-207.4499999999999886
 30
0.0
 11
-19.0500000000000007
 21
-207.4370000000000118
 31
0.0
  0
LINE
  5
28A
100
AcDbEntity
100
AcDbLine
  8
0
 62
256
370
-1
  6
ByLayer
 10
-19.0500000000000007
 20
-207.4370000000000118
 30
0.0
 11
-19.4490000000000016
 21
-207.4370000000000118
 31
0.0
  0
LINE
  5
28B
100
AcDbEntity
100
AcDbLine
  8
0
 62
256
370
-1
  6
ByLayer
 10
-19.4490000000000016
 20
-207.4370000000000118
 30
0.0
 11
-20.2399999999999984
 21
-207.3379999999999939
 31
0.0
  0
LINE
  5
28C
100
AcDbEntity
100
AcDbLine
  8
0
 62
256
370
-1
  6
ByLayer
 10
-20.2399999999999984
 20
-207.3379999999999939
 30
0.0
 11
-21.0120000000000005
 21
-207.13900000000001
 31
0.0
  0
LINE
  5
28D
100
AcDbEntity
100
AcDbLine
  8
0
 62
256
370
-1
  6
ByLayer
 10
-21.0120000000000005
 20
-207.13900000000001
 30
0.0
 11
-21.7540000000000013
 21
-206.8460000000000036
 31
0.0
  0
LINE
  5
28E
100
AcDbEntity
100
AcDbLine
  8
0
 62
256
370
-1
  6
ByLayer
 10
-21.7540000000000013
 20
-206.8460000000000036
 30
0.0
 11
-22.4529999999999994
 21
-206.4610000000000127
 31
0.0
  0
LINE
  5
28F
100
AcDbEntity
100
AcDbLine
  8
0
 62
256
370
-1
  6
ByLayer
 10
-22.4529999999999994
 20
-206.4610000000000127
 30
0.0
 11
-23.097999999999999
 21
-205.992999999999995
 31
0.0
  0
LINE
  5
290
100
AcDbEntity
100
AcDbLine
  8
0
 62
256
370
-1
  6
ByLayer
 10
-23.097999999999999
 20
-205.992999999999995
 30
0.0
 11
-23.6789999999999985
 21
-205.4470000000000027
 31
0.0
  0
LINE
  5
291
100
AcDbEntity
100
AcDbLine
  8
0
 62
256
370
-1
  6
ByLayer
 10
-23.6789999999999985
 20
-205.4470000000000027
 30
0.0
 11
-24.1870000000000012
 21
-204.8319999999999936
 31
0.0
  0
LINE
  5
292
100
AcDbEntity
100
AcDbLine
  8
0
 62
256
370
-1
  6
ByLayer
 10
-24.1870000000000012
 20
-204.8319999999999936
 30
0.0
 11
-24.6149999999999984
 21
-204.1589999999999918
 31
0.0
  0
LINE
  5
293
100
AcDbEntity
100
AcDbLine
  8
0
 62
256
370
-1
  6
ByLayer
 10
-24.6149999999999984
 20
-204.1589999999999918
 30
0.0
 11
-24.9540000000000006
 21
-203.4379999999999882
 31
0.0
  0
LINE
  5
294
100
AcDbEntity
100
AcDbLine
  8
0
 62
256
370
-1
  6
ByLayer
 10
-24.9540000000000006
 20
-203.4379999999999882
 30
0.0
 11
-25.2010000000000005
 21
-202.679000000000002
 31
0.0
  0
LINE
  5
295
100
AcDbEntity
100
AcDbLine
  8
0
 62
256
370
-1
  6
ByLayer
 10
-25.2010000000000005
 20
-202.679000000000002
 30
0.0
 11
-25.3500000000000014
 21
-201.8959999999999866
 31
0.0
  0
LINE
  5
296
100
AcDbEntity
100
AcDbLine
  8
0
 62
256
370
-1
  6
ByLayer
 10
-25.3500000000000014
 20
-201.8959999999999866
 30
0.0
 11
-25.3999999999999986
 21
-201.0999999999999943
 31
0.0
  0
LINE
  5
297
100
AcDbEntity
100
AcDbLine
  8
0
 62
256
370
-1
  6
ByLayer
 10
-12.6999999999999993
 20
128.25
 30
0.0
 11
-12.6999999999999993
 21
153.6500000000000057
 31
0.0
  0
LINE
  5
298
100
AcDbEntity
100
AcDbLine
  8
0
 62
256
370
-1
  6
ByLayer
 10
-12.6999999999999993
 20
153.6500000000000057
 30
0.0
 11
12.6999999999999993
 21
153.6500000000000057
 31
0.0
  0
LINE
  5
299
100
AcDbEntity
100
AcDbLine
  8
0
 62
256
370
-1
  6
ByLayer
 10
12.6999999999999993
 20
153.6500000000000057
 30
0.0
 11
12.6999999999999993
 21
128.25
 31
0.0
  0
LINE
  5
29A
100
AcDbEntity
100
AcDbLine
  8
0
 62
256
370
-1
  6
ByLayer
 10
12.6999999999999993
 20
128.25
 30
0.0
 11
-12.6999999999999993
 21
128.25
 31
0.0
  0
LINE
  5
29B
100
AcDbEntity
100
AcDbLine
  8
0
 62
256
370
-1
  6
ByLayer
 10
12.6999999999999993
 20
-229.5
 30
0.0
 11
12.6999999999999993
 21
-226.5
 31
0.0
  0
LINE
  5
29C
100
AcDbEntity
100
AcDbLine
  8
0
 62
256
370
-1
  6
ByLayer
 10
12.6999999999999993
 20
-226.5
 30
0.0
 11
31.75
 21
-226.5
 31
0.0
  0
LINE
  5
29D
100
AcDbEntity
100
AcDbLine
  8
0
 62
256
370
-1
  6
ByLayer
 10
31.75
 20
-226.5
 30
0.0
 11
31.75
 21
-229.5
 31
0.0
  0
LINE
  5
29E
100
AcDbEntity
100
AcDbLine
  8
0
 62
256
370
-1
  6
ByLayer
 10
31.75
 20
-229.5
 30
0.0
 11
12.6999999999999993
 21
-229.5
 31
0.0
  0
LINE
  5
29F
100
AcDbEntity
100
AcDbLine
  8
0
 62
256
370
-1
  6
ByLayer
 10
12.6999999999999993
 20
-137.5999999999999943
 30
0.0
 11
12.6999999999999993
 21
-134.5999999999999943
 31
0.0
  0
LINE
  5
2A0
100
AcDbEntity
100
AcDbLine
  8
0
 62
256
370
-1
  6
ByLayer
 10
12.6999999999999993
 20
-134.5999999999999943
 30
0.0
 11
31.75
 21
-134.5999999999999943
 31
0.0
  0
LINE
  5
2A1
100
AcDbEntity
100
AcDbLine
  8
0
 62
256
370
-1
  6
ByLayer
 10
31.75
 20
-134.5999999999999943
 30
0.0
 11
31.75
 21
-137.5999999999999943
 31
0.0
  0
LINE
  5
2A2
100
AcDbEntity
100
AcDbLine
  8
0
 62
256
370
-1
  6
ByLayer
 10
31.75
 20
-137.5999999999999943
 30
0.0
 11
12.6999999999999993
 21
-137.5999999999999943
 31
0.0
  0
LINE
  5
2A3
100
AcDbEntity
100
AcDbLine
  8
0
 62
256
370
-1
  6
ByLayer
 10
12.6999999999999993
 20
-47.4500000000000028
 30
0.0
 11
12.6999999999999993
 21
-44.4500000000000028
 31
0.0
  0
LINE
  5
2A4
100
AcDbEntity
100
AcDbLine
  8
0
 62
256
370
-1
  6
ByLayer
 10
12.6999999999999993
 20
-44.4500000000000028
 30
0.0
 11
31.75
 21
-44.4500000000000028
 31
0.0
  0
LINE
  5
2A5
100
AcDbEntity
100
AcDbLine
  8
0
 62
256
370
-1
  6
ByLayer
 10
31.75
 20
-44.4500000000000028
 30
0.0
 11
31.75
 21
-47.4500000000000028
 31
0.0
  0
LINE
  5
2A6
100
AcDbEntity
100
AcDbLine
  8
0
 62
256
370
-1
  6
ByLayer
 10
31.75
 20
-47.4500000000000028
 30
0.0
 11
12.6999999999999993
 21
-47.4500000000000028
 31
0.0
  0
LINE
  5
2A7
100
AcDbEntity
100
AcDbLine
  8
0
 62
256
370
-1
  6
ByLayer
 10
12.6999999999999993
 20
44.4500000000000028
 30
0.0
 11
12.6999999999999993
 21
47.4500000000000028
 31
0.0
  0
LINE
  5
2A8
100
AcDbEntity
100
AcDbLine
  8
0
 62
256
370
-1
  6
ByLayer
 10
12.6999999999999993
 20
47.4500000000000028
 30
0.0
 11
31.75
 21
47.4500000000000028
 31
0.0
  0
LINE
  5
2A9
100
AcDbEntity
100
AcDbLine
  8
0
 62
256
370
-1
  6
ByLayer
 10
31.75
 20
47.4500000000000028
 30
0.0
 11
31.75
 21
44.4500000000000028
 31
0.0
  0
LINE
  5
2AA
100
AcDbEntity
100
AcDbLine
  8
0
 62
256
370
-1
  6
ByLayer
 10
31.75
 20
44.4500000000000028
 30
0.0
 11
12.6999999999999993
 21
44.4500000000000028
 31
0.0
  0
LINE
  5
2AB
100
AcDbEntity
100
AcDbLine
  8
0
 62
256
370
-1
  6
ByLayer
 10
38.5319999999999965
 20
-222.0550000000000068
 30
0.0
 11
38.5429999999999993
 21
-221.8700000000000045
 31
0.0
  0
LINE
  5
2AC
100
AcDbEntity
100
AcDbLine
  8
0
 62
256
370
-1
  6
ByLayer
 10
38.5429999999999993
 20
-221.8700000000000045
 30
0.0
 11
38.578000000000003
 21
-221.688999999999993
 31
0.0
  0
LINE
  5
2AD
100
AcDbEntity
100
AcDbLine
  8
0
 62
256
370
-1
  6
ByLayer
 10
38.578000000000003
 20
-221.688999999999993
 30
0.0
 11
38.634999999999998
 21
-221.5130000000000052
 31
0.0
  0
LINE
  5
2AE
100
AcDbEntity
100
AcDbLine
  8
0
 62
256
370
-1
  6
ByLayer
 10
38.634999999999998
 20
-221.5130000000000052
 30
0.0
 11
38.7139999999999986
 21
-221.3449999999999989
 31
0.0
  0
LINE
  5
2AF
100
AcDbEntity
100
AcDbLine
  8
0
 62
256
370
-1
  6
ByLayer
 10
38.7139999999999986
 20
-221.3449999999999989
 30
0.0
 11
38.8130000000000024
 21
-221.188999999999993
 31
0.0
  0
LINE
  5
2B0
100
AcDbEntity
100
AcDbLine
  8
0
 62
256
370
-1
  6
ByLayer
 10
38.8130000000000024
 20
-221.188999999999993
 30
0.0
 11
38.9309999999999974
 21
-221.046999999999997
 31
0.0
  0
LINE
  5
2B1
100
AcDbEntity
100
AcDbLine
  8
0
 62
256
370
-1
  6
ByLayer
 10
38.9309999999999974
 20
-221.046999999999997
 30
0.0
 11
39.0660000000000025
 21
-220.9199999999999875
 31
0.0
  0
LINE
  5
2B2
100
AcDbEntity
100
AcDbLine
  8
0
 62
256
370
-1
  6
ByLayer
 10
39.0660000000000025
 20
-220.9199999999999875
 30
0.0
 11
39.2160000000000011
 21
-220.811000000000007
 31
0.0
  0
LINE
  5
2B3
100
AcDbEntity
100
AcDbLine
  8
0
 62
256
370
-1
  6
ByLayer
 10
39.2160000000000011
 20
-220.811000000000007
 30
0.0
 11
39.3780000000000001
 21
-220.7220000000000084
 31
0.0
  0
LINE
  5
2B4
100
AcDbEntity
100
AcDbLine
  8
0
 62
256
370
-1
  6
ByLayer
 10
39.3780000000000001
 20
-220.7220000000000084
 30
0.0
 11
39.5499999999999972
 21
-220.6539999999999964
 31
0.0
  0
LINE
  5
2B5
100
AcDbEntity
100
AcDbLine
  8
0
 62
256
370
-1
  6
ByLayer
 10
39.5499999999999972
 20
-220.6539999999999964
 30
0.0
 11
39.7289999999999992
 21
-220.6080000000000041
 31
0.0
  0
LINE
  5
2B6
100
AcDbEntity
100
AcDbLine
  8
0
 62
256
370
-1
  6
ByLayer
 10
39.7289999999999992
 20
-220.6080000000000041
 30
0.0
 11
39.911999999999999
 21
-220.585000000000008
 31
0.0
  0
LINE
  5
2B7
100
AcDbEntity
100
AcDbLine
  8
0
 62
256
370
-1
  6
ByLayer
 10
39.911999999999999
 20
-220.585000000000008
 30
0.0
 11
40.097999999999999
 21
-220.585000000000008
 31
0.0
  0
LINE
  5
2B8
100
AcDbEntity
100
AcDbLine
  8
0
 62
256
370
-1
  6
ByLayer
 10
40.097999999999999
 20
-220.585000000000008
 30
0.0
 11
40.2809999999999988
 21
-220.6080000000000041
 31
0.0
  0
LINE
  5
2B9
100
AcDbEntity
100
AcDbLine
  8
0
 62
256
370
-1
  6
ByLayer
 10
40.2809999999999988
 20
-220.6080000000000041
 30
0.0
 11
40.4600000000000009
 21
-220.6539999999999964
 31
0.0
  0
LINE
  5
2BA
100
AcDbEntity
100
AcDbLine
  8
0
 62
256
370
-1
  6
ByLayer
 10
40.4600000000000009
 20
-220.6539999999999964
 30
0.0
 11
40.6319999999999979
 21
-220.7220000000000084
 31
0.0
  0
LINE
  5
2BB
100
AcDbEntity
100
AcDbLine
  8
0
 62
256
370
-1
  6
ByLayer
 10
40.6319999999999979
 20
-220.7220000000000084
 30
0.0
 11
40.7939999999999969
 21
-220.811000000000007
 31
0.0
  0
LINE
  5
2BC
100
AcDbEntity
100
AcDbLine
  8
0
 62
256
370
-1
  6
ByLayer
 10
40.7939999999999969
 20
-220.811000000000007
 30
0.0
 11
40.9440000000000026
 21
-220.9199999999999875
 31
0.0
  0
LINE
  5
2BD
100
AcDbEntity
100
AcDbLine
  8
0
 62
256
370
-1
  6
ByLayer
 10
40.9440000000000026
 20
-220.9199999999999875
 30
0.0
 11
41.0790000000000006
 21
-221.046999999999997
 31
0.0
  0
LINE
  5
2BE
100
AcDbEntity
100
AcDbLine
  8
0
 62
256
370
-1
  6
ByLayer
 10
41.0790000000000006
 20
-221.046999999999997
 30
0.0
 11
41.1970000000000027
 21
-221.188999999999993
 31
0.0
  0
LINE
  5
2BF
100
AcDbEntity
100
AcDbLine
  8
0
 62
256
370
-1
  6
ByLayer
 10
41.1970000000000027
 20
-221.188999999999993
 30
0.0
 11
41.2959999999999994
 21
-221.3449999999999989
 31
0.0
  0
LINE
  5
2C0
100
AcDbEntity
100
AcDbLine
  8
0
 62
256
370
-1
  6
ByLayer
 10
41.2959999999999994
 20
-221.3449999999999989
 30
0.0
 11
41.375
 21
-221.5130000000000052
 31
0.0
  0
LINE
  5
2C1
100
AcDbEntity
100
AcDbLine
  8
0
 62
256
370
-1
  6
ByLayer
 10
41.375
 20
-221.5130000000000052
 30
0.0
 11
41.4320000000000022
 21
-221.688999999999993
 31
0.0
  0
LINE
  5
2C2
100
AcDbEntity
100
AcDbLine
  8
0
 62
256
370
-1
  6
ByLayer
 10
41.4320000000000022
 20
-221.688999999999993
 30
0.0
 11
41.4669999999999987
 21
-221.8700000000000045
 31
0.0
  0
LINE
  5
2C3
100
AcDbEntity
100
AcDbLine
  8
0
 62
256
370
-1
  6
ByLayer
 10
41.4669999999999987
 20
-221.8700000000000045
 30
0.0
 11
41.4780000000000015
 21
-222.0550000000000068
 31
0.0
  0
LINE
  5
2C4
100
AcDbEntity
100
AcDbLine
  8
0
 62
256
370
-1
  6
ByLayer
 10
41.4780000000000015
 20
-222.0550000000000068
 30
0.0
 11
41.4669999999999987
 21
-222.2400000000000091
 31
0.0
  0
LINE
  5
2C5
100
AcDbEntity
100
AcDbLine
  8
0
 62
256
370
-1
  6
ByLayer
 10
41.4669999999999987
 20
-222.2400000000000091
 30
0.0
 11
41.4320000000000022
 21
-222.4209999999999923
 31
0.0
  0
LINE
  5
2C6
100
AcDbEntity
100
AcDbLine
  8
0
 62
256
370
-1
  6
ByLayer
 10
41.4320000000000022
 20
-222.4209999999999923
 30
0.0
 11
41.375
 21
-222.5970000000000084
 31
0.0
  0
LINE
  5
2C7
100
AcDbEntity
100
AcDbLine
  8
0
 62
256
370
-1
  6
ByLayer
 10
41.375
 20
-222.5970000000000084
 30
0.0
 11
41.2959999999999994
 21
-222.7649999999999864
 31
0.0
  0
LINE
  5
2C8
100
AcDbEntity
100
AcDbLine
  8
0
 62
256
370
-1
  6
ByLayer
 10
41.2959999999999994
 20
-222.7649999999999864
 30
0.0
 11
41.1970000000000027
 21
-222.9209999999999923
 31
0.0
  0
LINE
  5
2C9
100
AcDbEntity
100
AcDbLine
  8
0
 62
256
370
-1
  6
ByLayer
 10
41.1970000000000027
 20
-222.9209999999999923
 30
0.0
 11
41.0790000000000006
 21
-223.0629999999999882
 31
0.0
  0
LINE
  5
2CA
100
AcDbEntity
100
AcDbLine
  8
0
 62
256
370
-1
  6
ByLayer
 10
41.0790000000000006
 20
-223.0629999999999882
 30
0.0
 11
40.9440000000000026
 21
-223.1899999999999977
 31
0.0
  0
LINE
  5
2CB
100
AcDbEntity
100
AcDbLine
  8
0
 62
256
370
-1
  6
ByLayer
 10
40.9440000000000026
 20
-223.1899999999999977
 30
0.0
 11
40.7939999999999969
 21
-223.2990000000000066
 31
0.0
  0
LINE
  5
2CC
100
AcDbEntity
100
AcDbLine
  8
0
 62
256
370
-1
  6
ByLayer
 10
40.7939999999999969
 20
-223.2990000000000066
 30
0.0
 11
40.6319999999999979
 21
-223.3880000000000052
 31
0.0
  0
LINE
  5
2CD
100
AcDbEntity
100
AcDbLine
  8
0
 62
256
370
-1
  6
ByLayer
 10
40.6319999999999979
 20
-223.3880000000000052
 30
0.0
 11
40.4600000000000009
 21
-223.4559999999999889
 31
0.0
  0
LINE
  5
2CE
100
AcDbEntity
100
AcDbLine
  8
0
 62
256
370
-1
  6
ByLayer
 10
40.4600000000000009
 20
-223.4559999999999889
 30
0.0
 11
40.2809999999999988
 21
-223.5020000000000095
 31
0.0
  0
LINE
  5
2CF
100
AcDbEntity
100
AcDbLine
  8
0
 62
256
370
-1
  6
ByLayer
 10
40.2809999999999988
 20
-223.5020000000000095
 30
0.0
 11
40.097999999999999
 21
-223.5250000000000057
 31
0.0
  0
LINE
  5
2D0
100
AcDbEntity
100
AcDbLine
  8
0
 62
256
370
-1
  6
ByLayer
 10
40.097999999999999
 20
-223.5250000000000057
 30
0.0
 11
39.911999999999999
 21
-223.5250000000000057
 31
0.0
  0
LINE
  5
2D1
100
AcDbEntity
100
AcDbLine
  8
0
 62
256
370
-1
  6
ByLayer
 10
39.911999999999999
 20
-223.5250000000000057
 30
0.0
 11
39.7289999999999992
 21
-223.5020000000000095
 31
0.0
  0
LINE
  5
2D2
100
AcDbEntity
100
AcDbLine
  8
0
 62
256
370
-1
  6
ByLayer
 10
39.7289999999999992
 20
-223.5020000000000095
 30
0.0
 11
39.5499999999999972
 21
-223.4559999999999889
 31
0.0
  0
LINE
  5
2D3
100
AcDbEntity
100
AcDbLine
  8
0
 62
256
370
-1
  6
ByLayer
 10
39.5499999999999972
 20
-223.4559999999999889
 30
0.0
 11
39.3780000000000001
 21
-223.3880000000000052
 31
0.0
  0
LINE
  5
2D4
100
AcDbEntity
100
AcDbLine
  8
0
 62
256
370
-1
  6
ByLayer
 10
39.3780000000000001
 20
-223.3880000000000052
 30
0.0
 11
39.2160000000000011
 21
-223.2990000000000066
 31
0.0
  0
LINE
  5
2D5
100
AcDbEntity
100
AcDbLine
  8
0
 62
256
370
-1
  6
ByLayer
 10
39.2160000000000011
 20
-223.2990000000000066
 30
0.0
 11
39.0660000000000025
 21
-223.1899999999999977
 31
0.0
  0
LINE
  5
2D6
100
AcDbEntity
100
AcDbLine
  8
0
 62
256
370
-1
  6
ByLayer
 10
39.0660000000000025
 20
-223.1899999999999977
 30
0.0
 11
38.9309999999999974
 21
-223.0629999999999882
 31
0.0
  0
LINE
  5
2D7
100
AcDbEntity
100
AcDbLine
  8
0
 62
256
370
-1
  6
ByLayer
 10
38.9309999999999974
 20
-223.0629999999999882
 30
0.0
 11
38.8130000000000024
 21
-222.9209999999999923
 31
0.0
  0
LINE
  5
2D8
100
AcDbEntity
100
AcDbLine
  8
0
 62
256
370
-1
  6
ByLayer
 10
38.8130000000000024
 20
-222.9209999999999923
 30
0.0
 11
38.7139999999999986
 21
-222.7649999999999864
 31
0.0
  0
LINE
  5
2D9
100
AcDbEntity
100
AcDbLine
  8
0
 62
256
370
-1
  6
ByLayer
 10
38.7139999999999986
 20
-222.7649999999999864
 30
0.0
 11
38.634999999999998
 21
-222.5970000000000084
 31
0.0
  0
LINE
  5
2DA
100
AcDbEntity
100
AcDbLine
  8
0
 62
256
370
-1
  6
ByLayer
 10
38.634999999999998
 20
-222.5970000000000084
 30
0.0
 11
38.578000000000003
 21
-222.4209999999999923
 31
0.0
  0
LINE
  5
2DB
100
AcDbEntity
100
AcDbLine
  8
0
 62
256
370
-1
  6
ByLayer
 10
38.578000000000003
 20
-222.4209999999999923
 30
0.0
 11
38.5429999999999993
 21
-222.2400000000000091
 31
0.0
  0
LINE
  5
2DC
100
AcDbEntity
100
AcDbLine
  8
0
 62
256
370
-1
  6
ByLayer
 10
38.5429999999999993
 20
-222.2400000000000091
 30
0.0
 11
38.5319999999999965
 21
-222.0550000000000068
 31
0.0
  0
LINE
  5
2DD
100
AcDbEntity
100
AcDbLine
  8
0
 62
256
370
-1
  6
ByLayer
 10
38.5319999999999965
 20
-142.0449999999999875
 30
0.0
 11
38.5429999999999993
 21
-141.8600000000000136
 31
0.0
  0
LINE
  5
2DE
100
AcDbEntity
100
AcDbLine
  8
0
 62
256
370
-1
  6
ByLayer
 10
38.5429999999999993
 20
-141.8600000000000136
 30
0.0
 11
38.578000000000003
 21
-141.679000000000002
 31
0.0
  0
LINE
  5
2DF
100
AcDbEntity
100
AcDbLine
  8
0
 62
256
370
-1
  6
ByLayer
 10
38.578000000000003
 20
-141.679000000000002
 30
0.0
 11
38.634999999999998
 21
-141.5029999999999859
 31
0.0
  0
LINE
  5
2E0
100
AcDbEntity
100
AcDbLine
  8
0
 62
256
370
-1
  6
ByLayer
 10
38.634999999999998
 20
-141.5029999999999859
 30
0.0
 11
38.7139999999999986
 21
-141.335000000000008
 31
0.0
  0
LINE
  5
2E1
100
AcDbEntity
100
AcDbLine
  8
0
 62
256
370
-1
  6
ByLayer
 10
38.7139999999999986
 20
-141.335000000000008
 30
0.0
 11
38.8130000000000024
 21
-141.179000000000002
 31
0.0
  0
LINE
  5
2E2
100
AcDbEntity
100
AcDbLine
  8
0
 62
256
370
-1
  6
ByLayer
 10
38.8130000000000024
 20
-141.179000000000002
 30
0.0
 11
38.9309999999999974
 21
-141.0370000000000061
 31
0.0
  0
LINE
  5
2E3
100
AcDbEntity
100
AcDbLine
  8
0
 62
256
370
-1
  6
ByLayer
 10
38.9309999999999974
 20
-141.0370000000000061
 30
0.0
 11
39.0660000000000025
 21
-140.9099999999999966
 31
0.0
  0
LINE
  5
2E4
100
AcDbEntity
100
AcDbLine
  8
0
 62
256
370
-1
  6
ByLayer
 10
39.0660000000000025
 20
-140.9099999999999966
 30
0.0
 11
39.2160000000000011
 21
-140.8009999999999877
 31
0.0
  0
LINE
  5
2E5
100
AcDbEntity
100
AcDbLine
  8
0
 62
256
370
-1
  6
ByLayer
 10
39.2160000000000011
 20
-140.8009999999999877
 30
0.0
 11
39.3780000000000001
 21
-140.7119999999999891
 31
0.0
  0
LINE
  5
2E6
100
AcDbEntity
100
AcDbLine
  8
0
 62
256
370
-1
  6
ByLayer
 10
39.3780000000000001
 20
-140.7119999999999891
 30
0.0
 11
39.5499999999999972
 21
-140.6440000000000055
 31
0.0
  0
LINE
  5
2E7
100
AcDbEntity
100
AcDbLine
  8
0
 62
256
370
-1
  6
ByLayer
 10
39.5499999999999972
 20
-140.6440000000000055
 30
0.0
 11
39.7289999999999992
 21
-140.5980000000000132
 31
0.0
  0
LINE
  5
2E8
100
AcDbEntity
100
AcDbLine
  8
0
 62
256
370
-1
  6
ByLayer
 10
39.7289999999999992
 20
-140.5980000000000132
 30
0.0
 11
39.911999999999999
 21
-140.5749999999999886
 31
0.0
  0
LINE
  5
2E9
100
AcDbEntity
100
AcDbLine
  8
0
 62
256
370
-1
  6
ByLayer
 10
39.911999999999999
 20
-140.5749999999999886
 30
0.0
 11
40.097999999999999
 21
-140.5749999999999886
 31
0.0
  0
LINE
  5
2EA
100
AcDbEntity
100
AcDbLine
  8
0
 62
256
370
-1
  6
ByLayer
 10
40.097999999999999
 20
-140.5749999999999886
 30
0.0
 11
40.2809999999999988
 21
-140.5980000000000132
 31
0.0
  0
LINE
  5
2EB
100
AcDbEntity
100
AcDbLine
  8
0
 62
256
370
-1
  6
ByLayer
 10
40.2809999999999988
 20
-140.5980000000000132
 30
0.0
 11
40.4600000000000009
 21
-140.6440000000000055
 31
0.0
  0
LINE
  5
2EC
100
AcDbEntity
100
AcDbLine
  8
0
 62
256
370
-1
  6
ByLayer
 10
40.4600000000000009
 20
-140.6440000000000055
 30
0.0
 11
40.6319999999999979
 21
-140.7119999999999891
 31
0.0
  0
LINE
  5
2ED
100
AcDbEntity
100
AcDbLine
  8
0
 62
256
370
-1
  6
ByLayer
 10
40.6319999999999979
 20
-140.7119999999999891
 30
0.0
 11
40.7939999999999969
 21
-140.8009999999999877
 31
0.0
  0
LINE
  5
2EE
100
AcDbEntity
100
AcDbLine
  8
0
 62
256
370
-1
  6
ByLayer
 10
40.7939999999999969
 20
-140.8009999999999877
 30
0.0
 11
40.9440000000000026
 21
-140.9099999999999966
 31
0.0
  0
LINE
  5
2EF
100
AcDbEntity
100
AcDbLine
  8
0
 62
256
370
-1
  6
ByLayer
 10
40.9440000000000026
 20
-140.9099999999999966
 30
0.0
 11
41.0790000000000006
 21
-141.0370000000000061
 31
0.0
  0
LINE
  5
2F0
100
AcDbEntity
100
AcDbLine
  8
0
 62
256
370
-1
  6
ByLayer
 10
41.0790000000000006
 20
-141.0370000000000061
 30
0.0
 11
41.1970000000000027
 21
-141.179000000000002
 31
0.0
  0
LINE
  5
2F1
100
AcDbEntity
100
AcDbLine
  8
0
 62
256
370
-1
  6
ByLayer
 10
41.1970000000000027
 20
-141.179000000000002
 30
0.0
 11
41.2959999999999994
 21
-141.335000000000008
 31
0.0
  0
LINE
  5
2F2
100
AcDbEntity
100
AcDbLine
  8
0
 62
256
370
-1
  6
ByLayer
 10
41.2959999999999994
 20
-141.335000000000008
 30
0.0
 11
41.375
 21
-141.5029999999999859
 31
0.0
  0
LINE
  5
2F3
100
AcDbEntity
100
AcDbLine
  8
0
 62
256
370
-1
  6
ByLayer
 10
41.375
 20
-141.5029999999999859
 30
0.0
 11
41.4320000000000022
 21
-141.679000000000002
 31
0.0
  0
LINE
  5
2F4
100
AcDbEntity
100
AcDbLine
  8
0
 62
256
370
-1
  6
ByLayer
 10
41.4320000000000022
 20
-141.679000000000002
 30
0.0
 11
41.4669999999999987
 21
-141.8600000000000136
 31
0.0
  0
LINE
  5
2F5
100
AcDbEntity
100
AcDbLine
  8
0
 62
256
370
-1
  6
ByLayer
 10
41.4669999999999987
 20
-141.8600000000000136
 30
0.0
 11
41.4780000000000015
 21
-142.0449999999999875
 31
0.0
  0
LINE
  5
2F6
100
AcDbEntity
100
AcDbLine
  8
0
 62
256
370
-1
  6
ByLayer
 10
41.4780000000000015
 20
-142.0449999999999875
 30
0.0
 11
41.4669999999999987
 21
-142.2299999999999898
 31
0.0
  0
LINE
  5
2F7
100
AcDbEntity
100
AcDbLine
  8
0
 62
256
370
-1
  6
ByLayer
 10
41.4669999999999987
 20
-142.2299999999999898
 30
0.0
 11
41.4320000000000022
 21
-142.4110000000000014
 31
0.0
  0
LINE
  5
2F8
100
AcDbEntity
100
AcDbLine
  8
0
 62
256
370
-1
  6
ByLayer
 10
41.4320000000000022
 20
-142.4110000000000014
 30
0.0
 11
41.375
 21
-142.5869999999999891
 31
0.0
  0
LINE
  5
2F9
100
AcDbEntity
100
AcDbLine
  8
0
 62
256
370
-1
  6
ByLayer
 10
41.375
 20
-142.5869999999999891
 30
0.0
 11
41.2959999999999994
 21
-142.7549999999999955
 31
0.0
  0
LINE
  5
2FA
100
AcDbEntity
100
AcDbLine
  8
0
 62
256
370
-1
  6
ByLayer
 10
41.2959999999999994
 20
-142.7549999999999955
 30
0.0
 11
41.1970000000000027
 21
-142.9110000000000014
 31
0.0
  0
LINE
  5
2FB
100
AcDbEntity
100
AcDbLine
  8
0
 62
256
370
-1
  6
ByLayer
 10
41.1970000000000027
 20
-142.9110000000000014
 30
0.0
 11
41.0790000000000006
 21
-143.0529999999999973
 31
0.0
  0
LINE
  5
2FC
100
AcDbEntity
100
AcDbLine
  8
0
 62
256
370
-1
  6
ByLayer
 10
41.0790000000000006
 20
-143.0529999999999973
 30
0.0
 11
40.9440000000000026
 21
-143.1800000000000068
 31
0.0
  0
LINE
  5
2FD
100
AcDbEntity
100
AcDbLine
  8
0
 62
256
370
-1
  6
ByLayer
 10
40.9440000000000026
 20
-143.1800000000000068
 30
0.0
 11
40.7939999999999969
 21
-143.2889999999999873
 31
0.0
  0
LINE
  5
2FE
100
AcDbEntity
100
AcDbLine
  8
0
 62
256
370
-1
  6
ByLayer
 10
40.7939999999999969
 20
-143.2889999999999873
 30
0.0
 11
40.6319999999999979
 21
-143.3779999999999859
 31
0.0
  0
LINE
  5
2FF
100
AcDbEntity
100
AcDbLine
  8
0
 62
256
370
-1
  6
ByLayer
 10
40.6319999999999979
 20
-143.3779999999999859
 30
0.0
 11
40.4600000000000009
 21
-143.445999999999998
 31
0.0
  0
LINE
  5
300
100
AcDbEntity
100
AcDbLine
  8
0
 62
256
370
-1
  6
ByLayer
 10
40.4600000000000009
 20
-143.445999999999998
 30
0.0
 11
40.2809999999999988
 21
-143.4919999999999902
 31
0.0
  0
LINE
  5
301
100
AcDbEntity
100
AcDbLine
  8
0
 62
256
370
-1
  6
ByLayer
 10
40.2809999999999988
 20
-143.4919999999999902
 30
0.0
 11
40.097999999999999
 21
-143.5149999999999864
 31
0.0
  0
LINE
  5
302
100
AcDbEntity
100
AcDbLine
  8
0
 62
256
370
-1
  6
ByLayer
 10
40.097999999999999
 20
-143.5149999999999864
 30
0.0
 11
39.911999999999999
 21
-143.5149999999999864
 31
0.0
  0
LINE
  5
303
100
AcDbEntity
100
AcDbLine
  8
0
 62
256
370
-1
  6
ByLayer
 10
39.911999999999999
 20
-143.5149999999999864
 30
0.0
 11
39.7289999999999992
 21
-143.4919999999999902
 31
0.0
  0
LINE
  5
304
100
AcDbEntity
100
AcDbLine
  8
0
 62
256
370
-1
  6
ByLayer
 10
39.7289999999999992
 20
-143.4919999999999902
 30
0.0
 11
39.5499999999999972
 21
-143.445999999999998
 31
0.0
  0
LINE
  5
305
100
AcDbEntity
100
AcDbLine
  8
0
 62
256
370
-1
  6
ByLayer
 10
39.5499999999999972
 20
-143.445999999999998
 30
0.0
 11
39.3780000000000001
 21
-143.3779999999999859
 31
0.0
  0
LINE
  5
306
100
AcDbEntity
100
AcDbLine
  8
0
 62
256
370
-1
  6
ByLayer
 10
39.3780000000000001
 20
-143.3779999999999859
 30
0.0
 11
39.2160000000000011
 21
-143.2889999999999873
 31
0.0
  0
LINE
  5
307
100
AcDbEntity
100
AcDbLine
  8
0
 62
256
370
-1
  6
ByLayer
 10
39.2160000000000011
 20
-143.2889999999999873
 30
0.0
 11
39.0660000000000025
 21
-143.1800000000000068
 31
0.0
  0
LINE
  5
308
100
AcDbEntity
100
AcDbLine
  8
0
 62
256
370
-1
  6
ByLayer
 10
39.0660000000000025
 20
-143.1800000000000068
 30
0.0
 11
38.9309999999999974
 21
-143.0529999999999973
 31
0.0
  0
LINE
  5
309
100
AcDbEntity
100
AcDbLine
  8
0
 62
256
370
-1
  6
ByLayer
 10
38.9309999999999974
 20
-143.0529999999999973
 30
0.0
 11
38.8130000000000024
 21
-142.9110000000000014
 31
0.0
  0
LINE
  5
30A
100
AcDbEntity
100
AcDbLine
  8
0
 62
256
370
-1
  6
ByLayer
 10
38.8130000000000024
 20
-142.9110000000000014
 30
0.0
 11
38.7139999999999986
 21
-142.7549999999999955
 31
0.0
  0
LINE
  5
30B
100
AcDbEntity
100
AcDbLine
  8
0
 62
256
370
-1
  6
ByLayer
 10
38.7139999999999986
 20
-142.7549999999999955
 30
0.0
 11
38.634999999999998
 21
-142.5869999999999891
 31
0.0
  0
LINE
  5
30C
100
AcDbEntity
100
AcDbLine
  8
0
 62
256
370
-1
  6
ByLayer
 10
38.634999999999998
 20
-142.5869999999999891
 30
0.0
 11
38.578000000000003
 21
-142.4110000000000014
 31
0.0
  0
LINE
  5
30D
100
AcDbEntity
100
AcDbLine
  8
0
 62
256
370
-1
  6
ByLayer
 10
38.578000000000003
 20
-142.4110000000000014
 30
0.0
 11
38.5429999999999993
 21
-142.2299999999999898
 31
0.0
  0
LINE
  5
30E
100
AcDbEntity
100
AcDbLine
  8
0
 62
256
370
-1
  6
ByLayer
 10
38.5429999999999993
 20
-142.2299999999999898
 30
0.0
 11
38.5319999999999965
 21
-142.0449999999999875
 31
0.0
  0
LINE
  5
30F
100
AcDbEntity
100
AcDbLine
  8
0
 62
256
370
-1
  6
ByLayer
 10
38.5319999999999965
 20
-40.0050000000000026
 30
0.0
 11
38.5429999999999993
 21
-39.8200000000000003
 31
0.0
  0
LINE
  5
310
100
AcDbEntity
100
AcDbLine
  8
0
 62
256
370
-1
  6
ByLayer
 10
38.5429999999999993
 20
-39.8200000000000003
 30
0.0
 11
38.578000000000003
 21
-39.6390000000000029
 31
0.0
  0
LINE
  5
311
100
AcDbEntity
100
AcDbLine
  8
0
 62
256
370
-1
  6
ByLayer
 10
38.578000000000003
 20
-39.6390000000000029
 30
0.0
 11
38.634999999999998
 21
-39.463000000000001
 31
0.0
  0
LINE
  5
312
100
AcDbEntity
100
AcDbLine
  8
0
 62
256
370
-1
  6
ByLayer
 10
38.634999999999998
 20
-39.463000000000001
 30
0.0
 11
38.7139999999999986
 21
-39.2950000000000017
 31
0.0
  0
LINE
  5
313
100
AcDbEntity
100
AcDbLine
  8
0
 62
256
370
-1
  6
ByLayer
 10
38.7139999999999986
 20
-39.2950000000000017
 30
0.0
 11
38.8130000000000024
 21
-39.1390000000000029
 31
0.0
  0
LINE
  5
314
100
AcDbEntity
100
AcDbLine
  8
0
 62
256
370
-1
  6
ByLayer
 10
38.8130000000000024
 20
-39.1390000000000029
 30
0.0
 11
38.9309999999999974
 21
-38.9969999999999999
 31
0.0
  0
LINE
  5
315
100
AcDbEntity
100
AcDbLine
  8
0
 62
256
370
-1
  6
ByLayer
 10
38.9309999999999974
 20
-38.9969999999999999
 30
0.0
 11
39.0660000000000025
 21
-38.8699999999999974
 31
0.0
  0
LINE
  5
316
100
AcDbEntity
100
AcDbLine
  8
0
 62
256
370
-1
  6
ByLayer
 10
39.0660000000000025
 20
-38.8699999999999974
 30
0.0
 11
39.2160000000000011
 21
-38.7610000000000028
 31
0.0
  0
LINE
  5
317
100
AcDbEntity
100
AcDbLine
  8
0
 62
256
370
-1
  6
ByLayer
 10
39.2160000000000011
 20
-38.7610000000000028
 30
0.0
 11
39.3780000000000001
 21
-38.671999999999997
 31
0.0
  0
LINE
  5
318
100
AcDbEntity
100
AcDbLine
  8
0
 62
256
370
-1
  6
ByLayer
 10
39.3780000000000001
 20
-38.671999999999997
 30
0.0
 11
39.5499999999999972
 21
-38.6039999999999992
 31
0.0
  0
LINE
  5
319
100
AcDbEntity
100
AcDbLine
  8
0
 62
256
370
-1
  6
ByLayer
 10
39.5499999999999972
 20
-38.6039999999999992
 30
0.0
 11
39.7289999999999992
 21
-38.5579999999999998
 31
0.0
  0
LINE
  5
31A
100
AcDbEntity
100
AcDbLine
  8
0
 62
256
370
-1
  6
ByLayer
 10
39.7289999999999992
 20
-38.5579999999999998
 30
0.0
 11
39.911999999999999
 21
-38.5349999999999966
 31
0.0
  0
LINE
  5
31B
100
AcDbEntity
100
AcDbLine
  8
0
 62
256
370
-1
  6
ByLayer
 10
39.911999999999999
 20
-38.5349999999999966
 30
0.0
 11
40.097999999999999
 21
-38.5349999999999966
 31
0.0
  0
LINE
  5
31C
100
AcDbEntity
100
AcDbLine
  8
0
 62
256
370
-1
  6
ByLayer
 10
40.097999999999999
 20
-38.5349999999999966
 30
0.0
 11
40.2809999999999988
 21
-38.5579999999999998
 31
0.0
  0
LINE
  5
31D
100
AcDbEntity
100
AcDbLine
  8
0
 62
256
370
-1
  6
ByLayer
 10
40.2809999999999988
 20
-38.5579999999999998
 30
0.0
 11
40.4600000000000009
 21
-38.6039999999999992
 31
0.0
  0
LINE
  5
31E
100
AcDbEntity
100
AcDbLine
  8
0
 62
256
370
-1
  6
ByLayer
 10
40.4600000000000009
 20
-38.6039999999999992
 30
0.0
 11
40.6319999999999979
 21
-38.671999999999997
 31
0.0
  0
LINE
  5
31F
100
AcDbEntity
100
AcDbLine
  8
0
 62
256
370
-1
  6
ByLayer
 10
40.6319999999999979
 20
-38.671999999999997
 30
0.0
 11
40.7939999999999969
 21
-38.7610000000000028
 31
0.0
  0
LINE
  5
320
100
AcDbEntity
100
AcDbLine
  8
0
 62
256
370
-1
  6
ByLayer
 10
40.7939999999999969
 20
-38.7610000000000028
 30
0.0
 11
40.9440000000000026
 21
-38.8699999999999974
 31
0.0
  0
LINE
  5
321
100
AcDbEntity
100
AcDbLine
  8
0
 62
256
370
-1
  6
ByLayer
 10
40.9440000000000026
 20
-38.8699999999999974
 30
0.0
 11
41.0790000000000006
 21
-38.9969999999999999
 31
0.0
  0
LINE
  5
322
100
AcDbEntity
100
AcDbLine
  8
0
 62
256
370
-1
  6
ByLayer
 10
41.0790000000000006
 20
-38.9969999999999999
 30
0.0
 11
41.1970000000000027
 21
-39.1390000000000029
 31
0.0
  0
LINE
  5
323
100
AcDbEntity
100
AcDbLine
  8
0
 62
256
370
-1
  6
ByLayer
 10
41.1970000000000027
 20
-39.1390000000000029
 30
0.0
 11
41.2959999999999994
 21
-39.2950000000000017
 31
0.0
  0
LINE
  5
324
100
AcDbEntity
100
AcDbLine
  8
0
 62
256
370
-1
  6
ByLayer
 10
41.2959999999999994
 20
-39.2950000000000017
 30
0.0
 11
41.375
 21
-39.463000000000001
 31
0.0
  0
LINE
  5
325
100
AcDbEntity
100
AcDbLine
  8
0
 62
256
370
-1
  6
ByLayer
 10
41.375
 20
-39.463000000000001
 30
0.0
 11
41.4320000000000022
 21
-39.6390000000000029
 31
0.0
  0
LINE
  5
326
100
AcDbEntity
100
AcDbLine
  8
0
 62
256
370
-1
  6
ByLayer
 10
41.4320000000000022
 20
-39.6390000000000029
 30
0.0
 11
41.4669999999999987
 21
-39.8200000000000003
 31
0.0
  0
LINE
  5
327
100
AcDbEntity
100
AcDbLine
  8
0
 62
256
370
-1
  6
ByLayer
 10
41.4669999999999987
 20
-39.8200000000000003
 30
0.0
 11
41.4780000000000015
 21
-40.0050000000000026
 31
0.0
  0
LINE
  5
328
100
AcDbEntity
100
AcDbLine
  8
0
 62
256
370
-1
  6
ByLayer
 10
41.4780000000000015
 20
-40.0050000000000026
 30
0.0
 11
41.4669999999999987
 21
-40.1899999999999977
 31
0.0
  0
LINE
  5
329
100
AcDbEntity
100
AcDbLine
  8
0
 62
256
370
-1
  6
ByLayer
 10
41.4669999999999987
 20
-40.1899999999999977
 30
0.0
 11
41.4320000000000022
 21
-40.3710000000000022
 31
0.0
  0
LINE
  5
32A
100
AcDbEntity
100
AcDbLine
  8
0
 62
256
370
-1
  6
ByLayer
 10
41.4320000000000022
 20
-40.3710000000000022
 30
0.0
 11
41.375
 21
-40.546999999999997
 31
0.0
  0
LINE
  5
32B
100
AcDbEntity
100
AcDbLine
  8
0
 62
256
370
-1
  6
ByLayer
 10
41.375
 20
-40.546999999999997
 30
0.0
 11
41.2959999999999994
 21
-40.7150000000000034
 31
0.0
  0
LINE
  5
32C
100
AcDbEntity
100
AcDbLine
  8
0
 62
256
370
-1
  6
ByLayer
 10
41.2959999999999994
 20
-40.7150000000000034
 30
0.0
 11
41.1970000000000027
 21
-40.8710000000000022
 31
0.0
  0
LINE
  5
32D
100
AcDbEntity
100
AcDbLine
  8
0
 62
256
370
-1
  6
ByLayer
 10
41.1970000000000027
 20
-40.8710000000000022
 30
0.0
 11
41.0790000000000006
 21
-41.0129999999999981
 31
0.0
  0
LINE
  5
32E
100
AcDbEntity
100
AcDbLine
  8
0
 62
256
370
-1
  6
ByLayer
 10
41.0790000000000006
 20
-41.0129999999999981
 30
0.0
 11
40.9440000000000026
 21
-41.1400000000000006
 31
0.0
  0
LINE
  5
32F
100
AcDbEntity
100
AcDbLine
  8
0
 62
256
370
-1
  6
ByLayer
 10
40.9440000000000026
 20
-41.1400000000000006
 30
0.0
 11
40.7939999999999969
 21
-41.2490000000000023
 31
0.0
  0
LINE
  5
330
100
AcDbEntity
100
AcDbLine
  8
0
 62
256
370
-1
  6
ByLayer
 10
40.7939999999999969
 20
-41.2490000000000023
 30
0.0
 11
40.6319999999999979
 21
-41.338000000000001
 31
0.0
  0
LINE
  5
331
100
AcDbEntity
100
AcDbLine
  8
0
 62
256
370
-1
  6
ByLayer
 10
40.6319999999999979
 20
-41.338000000000001
 30
0.0
 11
40.4600000000000009
 21
-41.4059999999999988
 31
0.0
  0
LINE
  5
332
100
AcDbEntity
100
AcDbLine
  8
0
 62
256
370
-1
  6
ByLayer
 10
40.4600000000000009
 20
-41.4059999999999988
 30
0.0
 11
40.2809999999999988
 21
-41.4519999999999982
 31
0.0
  0
LINE
  5
333
100
AcDbEntity
100
AcDbLine
  8
0
 62
256
370
-1
  6
ByLayer
 10
40.2809999999999988
 20
-41.4519999999999982
 30
0.0
 11
40.097999999999999
 21
-41.4750000000000014
 31
0.0
  0
LINE
  5
334
100
AcDbEntity
100
AcDbLine
  8
0
 62
256
370
-1
  6
ByLayer
 10
40.097999999999999
 20
-41.4750000000000014
 30
0.0
 11
39.911999999999999
 21
-41.4750000000000014
 31
0.0
  0
LINE
  5
335
100
AcDbEntity
100
AcDbLine
  8
0
 62
256
370
-1
  6
ByLayer
 10
39.911999999999999
 20
-41.4750000000000014
 30
0.0
 11
39.7289999999999992
 21
-41.4519999999999982
 31
0.0
  0
LINE
  5
336
100
AcDbEntity
100
AcDbLine
  8
0
 62
256
370
-1
  6
ByLayer
 10
39.7289999999999992
 20
-41.4519999999999982
 30
0.0
 11
39.5499999999999972
 21
-41.4059999999999988
 31
0.0
  0
LINE
  5
337
100
AcDbEntity
100
AcDbLine
  8
0
 62
256
370
-1
  6
ByLayer
 10
39.5499999999999972
 20
-41.4059999999999988
 30
0.0
 11
39.3780000000000001
 21
-41.338000000000001
 31
0.0
  0
LINE
  5
338
100
AcDbEntity
100
AcDbLine
  8
0
 62
256
370
-1
  6
ByLayer
 10
39.3780000000000001
 20
-41.338000000000001
 30
0.0
 11
39.2160000000000011
 21
-41.2490000000000023
 31
0.0
  0
LINE
  5
339
100
AcDbEntity
100
AcDbLine
  8
0
 62
256
370
-1
  6
ByLayer
 10
39.2160000000000011
 20
-41.2490000000000023
 30
0.0
 11
39.0660000000000025
 21
-41.1400000000000006
 31
0.0
  0
LINE
  5
33A
100
AcDbEntity
100
AcDbLine
  8
0
 62
256
370
-1
  6
ByLayer
 10
39.0660000000000025
 20
-41.1400000000000006
 30
0.0
 11
38.9309999999999974
 21
-41.0129999999999981
 31
0.0
  0
LINE
  5
33B
100
AcDbEntity
100
AcDbLine
  8
0
 62
256
370
-1
  6
ByLayer
 10
38.9309999999999974
 20
-41.0129999999999981
 30
0.0
 11
38.8130000000000024
 21
-40.8710000000000022
 31
0.0
  0
LINE
  5
33C
100
AcDbEntity
100
AcDbLine
  8
0
 62
256
370
-1
  6
ByLayer
 10
38.8130000000000024
 20
-40.8710000000000022
 30
0.0
 11
38.7139999999999986
 21
-40.7150000000000034
 31
0.0
  0
LINE
  5
33D
100
AcDbEntity
100
AcDbLine
  8
0
 62
256
370
-1
  6
ByLayer
 10
38.7139999999999986
 20
-40.7150000000000034
 30
0.0
 11
38.634999999999998
 21
-40.546999999999997
 31
0.0
  0
LINE
  5
33E
100
AcDbEntity
100
AcDbLine
  8
0
 62
256
370
-1
  6
ByLayer
 10
38.634999999999998
 20
-40.546999999999997
 30
0.0
 11
38.578000000000003
 21
-40.3710000000000022
 31
0.0
  0
LINE
  5
33F
100
AcDbEntity
100
AcDbLine
  8
0
 62
256
370
-1
  6
ByLayer
 10
38.578000000000003
 20
-40.3710000000000022
 30
0.0
 11
38.5429999999999993
 21
-40.1899999999999977
 31
0.0
  0
LINE
  5
340
100
AcDbEntity
100
AcDbLine
  8
0
 62
256
370
-1
  6
ByLayer
 10
38.5429999999999993
 20
-40.1899999999999977
 30
0.0
 11
38.5319999999999965
 21
-40.0050000000000026
 31
0.0
  0
LINE
  5
341
100
AcDbEntity
100
AcDbLine
  8
0
 62
256
370
-1
  6
ByLayer
 10
38.5319999999999965
 20
40.0050000000000026
 30
0.0
 11
38.5429999999999993
 21
40.1899999999999977
 31
0.0
  0
LINE
  5
342
100
AcDbEntity
100
AcDbLine
  8
0
 62
256
370
-1
  6
ByLayer
 10
38.5429999999999993
 20
40.1899999999999977
 30
0.0
 11
38.578000000000003
 21
40.3710000000000022
 31
0.0
  0
LINE
  5
343
100
AcDbEntity
100
AcDbLine
  8
0
 62
256
370
-1
  6
ByLayer
 10
38.578000000000003
 20
40.3710000000000022
 30
0.0
 11
38.634999999999998
 21
40.546999999999997
 31
0.0
  0
LINE
  5
344
100
AcDbEntity
100
AcDbLine
  8
0
 62
256
370
-1
  6
ByLayer
 10
38.634999999999998
 20
40.546999999999997
 30
0.0
 11
38.7139999999999986
 21
40.7150000000000034
 31
0.0
  0
LINE
  5
345
100
AcDbEntity
100
AcDbLine
  8
0
 62
256
370
-1
  6
ByLayer
 10
38.7139999999999986
 20
40.7150000000000034
 30
0.0
 11
38.8130000000000024
 21
40.8710000000000022
 31
0.0
  0
LINE
  5
346
100
AcDbEntity
100
AcDbLine
  8
0
 62
256
370
-1
  6
ByLayer
 10
38.8130000000000024
 20
40.8710000000000022
 30
0.0
 11
38.9309999999999974
 21
41.0129999999999981
 31
0.0
  0
LINE
  5
347
100
AcDbEntity
100
AcDbLine
  8
0
 62
256
370
-1
  6
ByLayer
 10
38.9309999999999974
 20
41.0129999999999981
 30
0.0
 11
39.0660000000000025
 21
41.1400000000000006
 31
0.0
  0
LINE
  5
348
100
AcDbEntity
100
AcDbLine
  8
0
 62
256
370
-1
  6
ByLayer
 10
39.0660000000000025
 20
41.1400000000000006
 30
0.0
 11
39.2160000000000011
 21
41.2490000000000023
 31
0.0
  0
LINE
  5
349
100
AcDbEntity
100
AcDbLine
  8
0
 62
256
370
-1
  6
ByLayer
 10
39.2160000000000011
 20
41.2490000000000023
 30
0.0
 11
39.3780000000000001
 21
41.338000000000001
 31
0.0
  0
LINE
  5
34A
100
AcDbEntity
100
AcDbLine
  8
0
 62
256
370
-1
  6
ByLayer
 10
39.3780000000000001
 20
41.338000000000001
 30
0.0
 11
39.5499999999999972
 21
41.4059999999999988
 31
0.0
  0
LINE
  5
34B
100
AcDbEntity
100
AcDbLine
  8
0
 62
256
370
-1
  6
ByLayer
 10
39.5499999999999972
 20
41.4059999999999988
 30
0.0
 11
39.7289999999999992
 21
41.4519999999999982
 31
0.0
  0
LINE
  5
34C
100
AcDbEntity
100
AcDbLine
  8
0
 62
256
370
-1
  6
ByLayer
 10
39.7289999999999992
 20
41.4519999999999982
 30
0.0
 11
39.911999999999999
 21
41.4750000000000014
 31
0.0
  0
LINE
  5
34D
100
AcDbEntity
100
AcDbLine
  8
0
 62
256
370
-1
  6
ByLayer
 10
39.911999999999999
 20
41.4750000000000014
 30
0.0
 11
40.097999999999999
 21
41.4750000000000014
 31
0.0
  0
LINE
  5
34E
100
AcDbEntity
100
AcDbLine
  8
0
 62
256
370
-1
  6
ByLayer
 10
40.097999999999999
 20
41.4750000000000014
 30
0.0
 11
40.2809999999999988
 21
41.4519999999999982
 31
0.0
  0
LINE
  5
34F
100
AcDbEntity
100
AcDbLine
  8
0
 62
256
370
-1
  6
ByLayer
 10
40.2809999999999988
 20
41.4519999999999982
 30
0.0
 11
40.4600000000000009
 21
41.4059999999999988
 31
0.0
  0
LINE
  5
350
100
AcDbEntity
100
AcDbLine
  8
0
 62
256
370
-1
  6
ByLayer
 10
40.4600000000000009
 20
41.4059999999999988
 30
0.0
 11
40.6319999999999979
 21
41.338000000000001
 31
0.0
  0
LINE
  5
351
100
AcDbEntity
100
AcDbLine
  8
0
 62
256
370
-1
  6
ByLayer
 10
40.6319999999999979
 20
41.338000000000001
 30
0.0
 11
40.7939999999999969
 21
41.2490000000000023
 31
0.0
  0
LINE
  5
352
100
AcDbEntity
100
AcDbLine
  8
0
 62
256
370
-1
  6
ByLayer
 10
40.7939999999999969
 20
41.2490000000000023
 30
0.0
 11
40.9440000000000026
 21
41.1400000000000006
 31
0.0
  0
LINE
  5
353
100
AcDbEntity
100
AcDbLine
  8
0
 62
256
370
-1
  6
ByLayer
 10
40.9440000000000026
 20
41.1400000000000006
 30
0.0
 11
41.0790000000000006
 21
41.0129999999999981
 31
0.0
  0
LINE
  5
354
100
AcDbEntity
100
AcDbLine
  8
0
 62
256
370
-1
  6
ByLayer
 10
41.0790000000000006
 20
41.0129999999999981
 30
0.0
 11
41.1970000000000027
 21
40.8710000000000022
 31
0.0
  0
LINE
  5
355
100
AcDbEntity
100
AcDbLine
  8
0
 62
256
370
-1
  6
ByLayer
 10
41.1970000000000027
 20
40.8710000000000022
 30
0.0
 11
41.2959999999999994
 21
40.7150000000000034
 31
0.0
  0
LINE
  5
356
100
AcDbEntity
100
AcDbLine
  8
0
 62
256
370
-1
  6
ByLayer
 10
41.2959999999999994
 20
40.7150000000000034
 30
0.0
 11
41.375
 21
40.546999999999997
 31
0.0
  0
LINE
  5
357
100
AcDbEntity
100
AcDbLine
  8
0
 62
256
370
-1
  6
ByLayer
 10
41.375
 20
40.546999999999997
 30
0.0
 11
41.4320000000000022
 21
40.3710000000000022
 31
0.0
  0
LINE
  5
358
100
AcDbEntity
100
AcDbLine
  8
0
 62
256
370
-1
  6
ByLayer
 10
41.4320000000000022
 20
40.3710000000000022
 30
0.0
 11
41.4669999999999987
 21
40.1899999999999977
 31
0.0
  0
LINE
  5
359
100
AcDbEntity
100
AcDbLine
  8
0
 62
256
370
-1
  6
ByLayer
 10
41.4669999999999987
 20
40.1899999999999977
 30
0.0
 11
41.4780000000000015
 21
40.0050000000000026
 31
0.0
  0
LINE
  5
35A
100
AcDbEntity
100
AcDbLine
  8
0
 62
256
370
-1
  6
ByLayer
 10
41.4780000000000015
 20
40.0050000000000026
 30
0.0
 11
41.4669999999999987
 21
39.8200000000000003
 31
0.0
  0
LINE
  5
35B
100
AcDbEntity
100
AcDbLine
  8
0
 62
256
370
-1
  6
ByLayer
 10
41.4669999999999987
 20
39.8200000000000003
 30
0.0
 11
41.4320000000000022
 21
39.6390000000000029
 31
0.0
  0
LINE
  5
35C
100
AcDbEntity
100
AcDbLine
  8
0
 62
256
370
-1
  6
ByLayer
 10
41.4320000000000022
 20
39.6390000000000029
 30
0.0
 11
41.375
 21
39.463000000000001
 31
0.0
  0
LINE
  5
35D
100
AcDbEntity
100
AcDbLine
  8
0
 62
256
370
-1
  6
ByLayer
 10
41.375
 20
39.463000000000001
 30
0.0
 11
41.2959999999999994
 21
39.2950000000000017
 31
0.0
  0
LINE
  5
35E
100
AcDbEntity
100
AcDbLine
  8
0
 62
256
370
-1
  6
ByLayer
 10
41.2959999999999994
 20
39.2950000000000017
 30
0.0
 11
41.1970000000000027
 21
39.1390000000000029
 31
0.0
  0
LINE
  5
35F
100
AcDbEntity
100
AcDbLine
  8
0
 62
256
370
-1
  6
ByLayer
 10
41.1970000000000027
 20
39.1390000000000029
 30
0.0
 11
41.0790000000000006
 21
38.9969999999999999
 31
0.0
  0
LINE
  5
360
100
AcDbEntity
100
AcDbLine
  8
0
 62
256
370
-1
  6
ByLayer
 10
41.0790000000000006
 20
38.9969999999999999
 30
0.0
 11
40.9440000000000026
 21
38.8699999999999974
 31
0.0
  0
LINE
  5
361
100
AcDbEntity
100
AcDbLine
  8
0
 62
256
370
-1
  6
ByLayer
 10
40.9440000000000026
 20
38.8699999999999974
 30
0.0
 11
40.7939999999999969
 21
38.7610000000000028
 31
0.0
  0
LINE
  5
362
100
AcDbEntity
100
AcDbLine
  8
0
 62
256
370
-1
  6
ByLayer
 10
40.7939999999999969
 20
38.7610000000000028
 30
0.0
 11
40.6319999999999979
 21
38.671999999999997
 31
0.0
  0
LINE
  5
363
100
AcDbEntity
100
AcDbLine
  8
0
 62
256
370
-1
  6
ByLayer
 10
40.6319999999999979
 20
38.671999999999997
 30
0.0
 11
40.4600000000000009
 21
38.6039999999999992
 31
0.0
  0
LINE
  5
364
100
AcDbEntity
100
AcDbLine
  8
0
 62
256
370
-1
  6
ByLayer
 10
40.4600000000000009
 20
38.6039999999999992
 30
0.0
 11
40.2809999999999988
 21
38.5579999999999998
 31
0.0
  0
LINE
  5
365
100
AcDbEntity
100
AcDbLine
  8
0
 62
256
370
-1
  6
ByLayer
 10
40.2809999999999988
 20
38.5579999999999998
 30
0.0
 11
40.097999999999999
 21
38.5349999999999966
 31
0.0
  0
LINE
  5
366
100
AcDbEntity
100
AcDbLine
  8
0
 62
256
370
-1
  6
ByLayer
 10
40.097999999999999
 20
38.5349999999999966
 30
0.0
 11
39.911999999999999
 21
38.5349999999999966
 31
0.0
  0
LINE
  5
367
100
AcDbEntity
100
AcDbLine
  8
0
 62
256
370
-1
  6
ByLayer
 10
39.911999999999999
 20
38.5349999999999966
 30
0.0
 11
39.7289999999999992
 21
38.5579999999999998
 31
0.0
  0
LINE
  5
368
100
AcDbEntity
100
AcDbLine
  8
0
 62
256
370
-1
  6
ByLayer
 10
39.7289999999999992
 20
38.5579999999999998
 30
0.0
 11
39.5499999999999972
 21
38.6039999999999992
 31
0.0
  0
LINE
  5
369
100
AcDbEntity
100
AcDbLine
  8
0
 62
256
370
-1
  6
ByLayer
 10
39.5499999999999972
 20
38.6039999999999992
 30
0.0
 11
39.3780000000000001
 21
38.671999999999997
 31
0.0
  0
LINE
  5
36A
100
AcDbEntity
100
AcDbLine
  8
0
 62
256
370
-1
  6
ByLayer
 10
39.3780000000000001
 20
38.671999999999997
 30
0.0
 11
39.2160000000000011
 21
38.7610000000000028
 31
0.0
  0
LINE
  5
36B
100
AcDbEntity
100
AcDbLine
  8
0
 62
256
370
-1
  6
ByLayer
 10
39.2160000000000011
 20
38.7610000000000028
 30
0.0
 11
39.0660000000000025
 21
38.8699999999999974
 31
0.0
  0
LINE
  5
36C
100
AcDbEntity
100
AcDbLine
  8
0
 62
256
370
-1
  6
ByLayer
 10
39.0660000000000025
 20
38.8699999999999974
 30
0.0
 11
38.9309999999999974
 21
38.9969999999999999
 31
0.0
  0
LINE
  5
36D
100
AcDbEntity
100
AcDbLine
  8
0
 62
256
370
-1
  6
ByLayer
 10
38.9309999999999974
 20
38.9969999999999999
 30
0.0
 11
38.8130000000000024
 21
39.1390000000000029
 31
0.0
  0
LINE
  5
36E
100
AcDbEntity
100
AcDbLine
  8
0
 62
256
370
-1
  6
ByLayer
 10
38.8130000000000024
 20
39.1390000000000029
 30
0.0
 11
38.7139999999999986
 21
39.2950000000000017
 31
0.0
  0
LINE
  5
36F
100
AcDbEntity
100
AcDbLine
  8
0
 62
256
370
-1
  6
ByLayer
 10
38.7139999999999986
 20
39.2950000000000017
 30
0.0
 11
38.634999999999998
 21
39.463000000000001
 31
0.0
  0
LINE
  5
370
100
AcDbEntity
100
AcDbLine
  8
0
 62
256
370
-1
  6
ByLayer
 10
38.634999999999998
 20
39.463000000000001
 30
0.0
 11
38.578000000000003
 21
39.6390000000000029
 31
0.0
  0
LINE
  5
371
100
AcDbEntity
100
AcDbLine
  8
0
 62
256
370
-1
  6
ByLayer
 10
38.578000000000003
 20
39.6390000000000029
 30
0.0
 11
38.5429999999999993
 21
39.8200000000000003
 31
0.0
  0
LINE
  5
372
100
AcDbEntity
100
AcDbLine
  8
0
 62
256
370
-1
  6
ByLayer
 10
38.5429999999999993
 20
39.8200000000000003
 30
0.0
 11
38.5319999999999965
 21
40.0050000000000026
 31
0.0
  0
LINE
  5
373
100
AcDbEntity
100
AcDbLine
  8
0
 62
256
370
-1
  6
ByLayer
 10
44.4500000000000028
 20
-215.3000000000000114
 30
0.0
 11
44.4500000000000028
 21
-196.25
 31
0.0
  0
LINE
  5
374
100
AcDbEntity
100
AcDbLine
  8
0
 62
256
370
-1
  6
ByLayer
 10
44.4500000000000028
 20
-196.25
 30
0.0
 11
47.4500000000000028
 21
-196.25
 31
0.0
  0
LINE
  5
375
100
AcDbEntity
100
AcDbLine
  8
0
 62
256
370
-1
  6
ByLayer
 10
47.4500000000000028
 20
-196.25
 30
0.0
 11
47.4500000000000028
 21
-215.3000000000000114
 31
0.0
  0
LINE
  5
376
100
AcDbEntity
100
AcDbLine
  8
0
 62
256
370
-1
  6
ByLayer
 10
47.4500000000000028
 20
-215.3000000000000114
 30
0.0
 11
44.4500000000000028
 21
-215.3000000000000114
 31
0.0
  0
LINE
  5
377
100
AcDbEntity
100
AcDbLine
  8
0
 62
256
370
-1
  6
ByLayer
 10
44.4500000000000028
 20
-167.8499999999999943
 30
0.0
 11
44.4500000000000028
 21
-148.8000000000000114
 31
0.0
  0
LINE
  5
378
100
AcDbEntity
100
AcDbLine
  8
0
 62
256
370
-1
  6
ByLayer
 10
44.4500000000000028
 20
-148.8000000000000114
 30
0.0
 11
47.4500000000000028
 21
-148.8000000000000114
 31
0.0
  0
LINE
  5
379
100
AcDbEntity
100
AcDbLine
  8
0
 62
256
370
-1
  6
ByLayer
 10
47.4500000000000028
 20
-148.8000000000000114
 30
0.0
 11
47.4500000000000028
 21
-167.8499999999999943
 31
0.0
  0
LINE
  5
37A
100
AcDbEntity
100
AcDbLine
  8
0
 62
256
370
-1
  6
ByLayer
 10
47.4500000000000028
 20
-167.8499999999999943
 30
0.0
 11
44.4500000000000028
 21
-167.8499999999999943
 31
0.0
  0
LINE
  5
37B
100
AcDbEntity
100
AcDbLine
  8
0
 62
256
370
-1
  6
ByLayer
 10
44.4500000000000028
 20
-33.25
 30
0.0
 11
44.4500000000000028
 21
-14.1999999999999993
 31
0.0
  0
LINE
  5
37C
100
AcDbEntity
100
AcDbLine
  8
0
 62
256
370
-1
  6
ByLayer
 10
44.4500000000000028
 20
-14.1999999999999993
 30
0.0
 11
47.4500000000000028
 21
-14.1999999999999993
 31
0.0
  0
LINE
  5
37D
100
AcDbEntity
100
AcDbLine
  8
0
 62
256
370
-1
  6
ByLayer
 10
47.4500000000000028
 20
-14.1999999999999993
 30
0.0
 11
47.4500000000000028
 21
-33.25
 31
0.0
  0
LINE
  5
37E
100
AcDbEntity
100
AcDbLine
  8
0
 62
256
370
-1
  6
ByLayer
 10
47.4500000000000028
 20
-33.25
 30
0.0
 11
44.4500000000000028
 21
-33.25
 31
0.0
  0
LINE
  5
37F
100
AcDbEntity
100
AcDbLine
  8
0
 62
256
370
-1
  6
ByLayer
 10
44.4500000000000028
 20
14.1999999999999993
 30
0.0
 11
44.4500000000000028
 21
33.25
 31
0.0
  0
LINE
  5
380
100
AcDbEntity
100
AcDbLine
  8
0
 62
256
370
-1
  6
ByLayer
 10
44.4500000000000028
 20
33.25
 30
0.0
 11
47.4500000000000028
 21
33.25
 31
0.0
  0
LINE
  5
381
100
AcDbEntity
100
AcDbLine
  8
0
 62
256
370
-1
  6
ByLayer
 10
47.4500000000000028
 20
33.25
 30
0.0
 11
47.4500000000000028
 21
14.1999999999999993
 31
0.0
  0
LINE
  5
382
100
AcDbEntity
100
AcDbLine
  8
0
 62
256
370
-1
  6
ByLayer
 10
47.4500000000000028
 20
14.1999999999999993
 30
0.0
 11
44.4500000000000028
 21
14.1999999999999993
 31
0.0
  0
LINE
  5
383
100
AcDbEntity
100
AcDbLine
  8
0
 62
256
370
-1
  6
ByLayer
 10
47.9769999999999968
 20
-231.5
 30
0.0
 11
47.9879999999999995
 21
-231.3149999999999977
 31
0.0
  0
LINE
  5
384
100
AcDbEntity
100
AcDbLine
  8
0
 62
256
370
-1
  6
ByLayer
 10
47.9879999999999995
 20
-231.3149999999999977
 30
0.0
 11
48.0230000000000032
 21
-231.1339999999999861
 31
0.0
  0
LINE
  5
385
100
AcDbEntity
100
AcDbLine
  8
0
 62
256
370
-1
  6
ByLayer
 10
48.0230000000000032
 20
-231.1339999999999861
 30
0.0
 11
48.0799999999999983
 21
-230.9579999999999984
 31
0.0
  0
LINE
  5
386
100
AcDbEntity
100
AcDbLine
  8
0
 62
256
370
-1
  6
ByLayer
 10
48.0799999999999983
 20
-230.9579999999999984
 30
0.0
 11
48.1589999999999989
 21
-230.789999999999992
 31
0.0
  0
LINE
  5
387
100
AcDbEntity
100
AcDbLine
  8
0
 62
256
370
-1
  6
ByLayer
 10
48.1589999999999989
 20
-230.789999999999992
 30
0.0
 11
48.2580000000000027
 21
-230.6339999999999861
 31
0.0
  0
LINE
  5
388
100
AcDbEntity
100
AcDbLine
  8
0
 62
256
370
-1
  6
ByLayer
 10
48.2580000000000027
 20
-230.6339999999999861
 30
0.0
 11
48.3759999999999977
 21
-230.4919999999999902
 31
0.0
  0
LINE
  5
389
100
AcDbEntity
100
AcDbLine
  8
0
 62
256
370
-1
  6
ByLayer
 10
48.3759999999999977
 20
-230.4919999999999902
 30
0.0
 11
48.5110000000000028
 21
-230.3650000000000091
 31
0.0
  0
LINE
  5
38A
100
AcDbEntity
100
AcDbLine
  8
0
 62
256
370
-1
  6
ByLayer
 10
48.5110000000000028
 20
-230.3650000000000091
 30
0.0
 11
48.6610000000000014
 21
-230.2560000000000002
 31
0.0
  0
LINE
  5
38B
100
AcDbEntity
100
AcDbLine
  8
0
 62
256
370
-1
  6
ByLayer
 10
48.6610000000000014
 20
-230.2560000000000002
 30
0.0
 11
48.8230000000000004
 21
-230.1670000000000016
 31
0.0
  0
LINE
  5
38C
100
AcDbEntity
100
AcDbLine
  8
0
 62
256
370
-1
  6
ByLayer
 10
48.8230000000000004
 20
-230.1670000000000016
 30
0.0
 11
48.9949999999999974
 21
-230.0989999999999895
 31
0.0
  0
LINE
  5
38D
100
AcDbEntity
100
AcDbLine
  8
0
 62
256
370
-1
  6
ByLayer
 10
48.9949999999999974
 20
-230.0989999999999895
 30
0.0
 11
49.1739999999999995
 21
-230.0529999999999973
 31
0.0
  0
LINE
  5
38E
100
AcDbEntity
100
AcDbLine
  8
0
 62
256
370
-1
  6
ByLayer
 10
49.1739999999999995
 20
-230.0529999999999973
 30
0.0
 11
49.3569999999999993
 21
-230.0300000000000011
 31
0.0
  0
LINE
  5
38F
100
AcDbEntity
100
AcDbLine
  8
0
 62
256
370
-1
  6
ByLayer
 10
49.3569999999999993
 20
-230.0300000000000011
 30
0.0
 11
49.5429999999999993
 21
-230.0300000000000011
 31
0.0
  0
LINE
  5
390
100
AcDbEntity
100
AcDbLine
  8
0
 62
256
370
-1
  6
ByLayer
 10
49.5429999999999993
 20
-230.0300000000000011
 30
0.0
 11
49.7259999999999991
 21
-230.0529999999999973
 31
0.0
  0
LINE
  5
391
100
AcDbEntity
100
AcDbLine
  8
0
 62
256
370
-1
  6
ByLayer
 10
49.7259999999999991
 20
-230.0529999999999973
 30
0.0
 11
49.9050000000000011
 21
-230.0989999999999895
 31
0.0
  0
LINE
  5
392
100
AcDbEntity
100
AcDbLine
  8
0
 62
256
370
-1
  6
ByLayer
 10
49.9050000000000011
 20
-230.0989999999999895
 30
0.0
 11
50.0769999999999982
 21
-230.1670000000000016
 31
0.0
  0
LINE
  5
393
100
AcDbEntity
100
AcDbLine
  8
0
 62
256
370
-1
  6
ByLayer
 10
50.0769999999999982
 20
-230.1670000000000016
 30
0.0
 11
50.2389999999999972
 21
-230.2560000000000002
 31
0.0
  0
LINE
  5
394
100
AcDbEntity
100
AcDbLine
  8
0
 62
256
370
-1
  6
ByLayer
 10
50.2389999999999972
 20
-230.2560000000000002
 30
0.0
 11
50.3890000000000029
 21
-230.3650000000000091
 31
0.0
  0
LINE
  5
395
100
AcDbEntity
100
AcDbLine
  8
0
 62
256
370
-1
  6
ByLayer
 10
50.3890000000000029
 20
-230.3650000000000091
 30
0.0
 11
50.5240000000000009
 21
-230.4919999999999902
 31
0.0
  0
LINE
  5
396
100
AcDbEntity
100
AcDbLine
  8
0
 62
256
370
-1
  6
ByLayer
 10
50.5240000000000009
 20
-230.4919999999999902
 30
0.0
 11
50.642000000000003
 21
-230.6339999999999861
 31
0.0
  0
LINE
  5
397
100
AcDbEntity
100
AcDbLine
  8
0
 62
256
370
-1
  6
ByLayer
 10
50.642000000000003
 20
-230.6339999999999861
 30
0.0
 11
50.7409999999999997
 21
-230.789999999999992
 31
0.0
  0
LINE
  5
398
100
AcDbEntity
100
AcDbLine
  8
0
 62
256
370
-1
  6
ByLayer
 10
50.7409999999999997
 20
-230.789999999999992
 30
0.0
 11
50.8200000000000003
 21
-230.9579999999999984
 31
0.0
  0
LINE
  5
399
100
AcDbEntity
100
AcDbLine
  8
0
 62
256
370
-1
  6
ByLayer
 10
50.8200000000000003
 20
-230.9579999999999984
 30
0.0
 11
50.8770000000000024
 21
-231.1339999999999861
 31
0.0
  0
LINE
  5
39A
100
AcDbEntity
100
AcDbLine
  8
0
 62
256
370
-1
  6
ByLayer
 10
50.8770000000000024
 20
-231.1339999999999861
 30
0.0
 11
50.911999999999999
 21
-231.3149999999999977
 31
0.0
  0
LINE
  5
39B
100
AcDbEntity
100
AcDbLine
  8
0
 62
256
370
-1
  6
ByLayer
 10
50.911999999999999
 20
-231.3149999999999977
 30
0.0
 11
50.9230000000000018
 21
-231.5
 31
0.0
  0
LINE
  5
39C
100
AcDbEntity
100
AcDbLine
  8
0
 62
256
370
-1
  6
ByLayer
 10
50.9230000000000018
 20
-231.5
 30
0.0
 11
50.911999999999999
 21
-231.6850000000000023
 31
0.0
  0
LINE
  5
39D
100
AcDbEntity
100
AcDbLine
  8
0
 62
256
370
-1
  6
ByLayer
 10
50.911999999999999
 20
-231.6850000000000023
 30
0.0
 11
50.8770000000000024
 21
-231.8660000000000139
 31
0.0
  0
LINE
  5
39E
100
AcDbEntity
100
AcDbLine
  8
0
 62
256
370
-1
  6
ByLayer
 10
50.8770000000000024
 20
-231.8660000000000139
 30
0.0
 11
50.8200000000000003
 21
-232.0420000000000016
 31
0.0
  0
LINE
  5
39F
100
AcDbEntity
100
AcDbLine
  8
0
 62
256
370
-1
  6
ByLayer
 10
50.8200000000000003
 20
-232.0420000000000016
 30
0.0
 11
50.7409999999999997
 21
-232.210000000000008
 31
0.0
  0
LINE
  5
3A0
100
AcDbEntity
100
AcDbLine
  8
0
 62
256
370
-1
  6
ByLayer
 10
50.7409999999999997
 20
-232.210000000000008
 30
0.0
 11
50.642000000000003
 21
-232.3660000000000139
 31
0.0
  0
LINE
  5
3A1
100
AcDbEntity
100
AcDbLine
  8
0
 62
256
370
-1
  6
ByLayer
 10
50.642000000000003
 20
-232.3660000000000139
 30
0.0
 11
50.5240000000000009
 21
-232.5080000000000098
 31
0.0
  0
LINE
  5
3A2
100
AcDbEntity
100
AcDbLine
  8
0
 62
256
370
-1
  6
ByLayer
 10
50.5240000000000009
 20
-232.5080000000000098
 30
0.0
 11
50.3890000000000029
 21
-232.6349999999999909
 31
0.0
  0
LINE
  5
3A3
100
AcDbEntity
100
AcDbLine
  8
0
 62
256
370
-1
  6
ByLayer
 10
50.3890000000000029
 20
-232.6349999999999909
 30
0.0
 11
50.2389999999999972
 21
-232.7439999999999998
 31
0.0
  0
LINE
  5
3A4
100
AcDbEntity
100
AcDbLine
  8
0
 62
256
370
-1
  6
ByLayer
 10
50.2389999999999972
 20
-232.7439999999999998
 30
0.0
 11
50.0769999999999982
 21
-232.8329999999999984
 31
0.0
  0
LINE
  5
3A5
100
AcDbEntity
100
AcDbLine
  8
0
 62
256
370
-1
  6
ByLayer
 10
50.0769999999999982
 20
-232.8329999999999984
 30
0.0
 11
49.9050000000000011
 21
-232.9010000000000105
 31
0.0
  0
LINE
  5
3A6
100
AcDbEntity
100
AcDbLine
  8
0
 62
256
370
-1
  6
ByLayer
 10
49.9050000000000011
 20
-232.9010000000000105
 30
0.0
 11
49.7259999999999991
 21
-232.9470000000000027
 31
0.0
  0
LINE
  5
3A7
100
AcDbEntity
100
AcDbLine
  8
0
 62
256
370
-1
  6
ByLayer
 10
49.7259999999999991
 20
-232.9470000000000027
 30
0.0
 11
49.5429999999999993
 21
-232.9699999999999989
 31
0.0
  0
LINE
  5
3A8
100
AcDbEntity
100
AcDbLine
  8
0
 62
256
370
-1
  6
ByLayer
 10
49.5429999999999993
 20
-232.9699999999999989
 30
0.0
 11
49.3569999999999993
 21
-232.9699999999999989
 31
0.0
  0
LINE
  5
3A9
100
AcDbEntity
100
AcDbLine
  8
0
 62
256
370
-1
  6
ByLayer
 10
49.3569999999999993
 20
-232.9699999999999989
 30
0.0
 11
49.1739999999999995
 21
-232.9470000000000027
 31
0.0
  0
LINE
  5
3AA
100
AcDbEntity
100
AcDbLine
  8
0
 62
256
370
-1
  6
ByLayer
 10
49.1739999999999995
 20
-232.9470000000000027
 30
0.0
 11
48.9949999999999974
 21
-232.9010000000000105
 31
0.0
  0
LINE
  5
3AB
100
AcDbEntity
100
AcDbLine
  8
0
 62
256
370
-1
  6
ByLayer
 10
48.9949999999999974
 20
-232.9010000000000105
 30
0.0
 11
48.8230000000000004
 21
-232.8329999999999984
 31
0.0
  0
LINE
  5
3AC
100
AcDbEntity
100
AcDbLine
  8
0
 62
256
370
-1
  6
ByLayer
 10
48.8230000000000004
 20
-232.8329999999999984
 30
0.0
 11
48.6610000000000014
 21
-232.7439999999999998
 31
0.0
  0
LINE
  5
3AD
100
AcDbEntity
100
AcDbLine
  8
0
 62
256
370
-1
  6
ByLayer
 10
48.6610000000000014
 20
-232.7439999999999998
 30
0.0
 11
48.5110000000000028
 21
-232.6349999999999909
 31
0.0
  0
LINE
  5
3AE
100
AcDbEntity
100
AcDbLine
  8
0
 62
256
370
-1
  6
ByLayer
 10
48.5110000000000028
 20
-232.6349999999999909
 30
0.0
 11
48.3759999999999977
 21
-232.5080000000000098
 31
0.0
  0
LINE
  5
3AF
100
AcDbEntity
100
AcDbLine
  8
0
 62
256
370
-1
  6
ByLayer
 10
48.3759999999999977
 20
-232.5080000000000098
 30
0.0
 11
48.2580000000000027
 21
-232.3660000000000139
 31
0.0
  0
LINE
  5
3B0
100
AcDbEntity
100
AcDbLine
  8
0
 62
256
370
-1
  6
ByLayer
 10
48.2580000000000027
 20
-232.3660000000000139
 30
0.0
 11
48.1589999999999989
 21
-232.210000000000008
 31
0.0
  0
LINE
  5
3B1
100
AcDbEntity
100
AcDbLine
  8
0
 62
256
370
-1
  6
ByLayer
 10
48.1589999999999989
 20
-232.210000000000008
 30
0.0
 11
48.0799999999999983
 21
-232.0420000000000016
 31
0.0
  0
LINE
  5
3B2
100
AcDbEntity
100
AcDbLine
  8
0
 62
256
370
-1
  6
ByLayer
 10
48.0799999999999983
 20
-232.0420000000000016
 30
0.0
 11
48.0230000000000032
 21
-231.8660000000000139
 31
0.0
  0
LINE
  5
3B3
100
AcDbEntity
100
AcDbLine
  8
0
 62
256
370
-1
  6
ByLayer
 10
48.0230000000000032
 20
-231.8660000000000139
 30
0.0
 11
47.9879999999999995
 21
-231.6850000000000023
 31
0.0
  0
LINE
  5
3B4
100
AcDbEntity
100
AcDbLine
  8
0
 62
256
370
-1
  6
ByLayer
 10
47.9879999999999995
 20
-231.6850000000000023
 30
0.0
 11
47.9769999999999968
 21
-231.5
 31
0.0
  0
LINE
  5
3B5
100
AcDbEntity
100
AcDbLine
  8
0
 62
256
370
-1
  6
ByLayer
 10
47.9769999999999968
 20
-132.5999999999999943
 30
0.0
 11
47.9879999999999995
 21
-132.414999999999992
 31
0.0
  0
LINE
  5
3B6
100
AcDbEntity
100
AcDbLine
  8
0
 62
256
370
-1
  6
ByLayer
 10
47.9879999999999995
 20
-132.414999999999992
 30
0.0
 11
48.0230000000000032
 21
-132.2340000000000089
 31
0.0
  0
LINE
  5
3B7
100
AcDbEntity
100
AcDbLine
  8
0
 62
256
370
-1
  6
ByLayer
 10
48.0230000000000032
 20
-132.2340000000000089
 30
0.0
 11
48.0799999999999983
 21
-132.0579999999999927
 31
0.0
  0
LINE
  5
3B8
100
AcDbEntity
100
AcDbLine
  8
0
 62
256
370
-1
  6
ByLayer
 10
48.0799999999999983
 20
-132.0579999999999927
 30
0.0
 11
48.1589999999999989
 21
-131.8899999999999864
 31
0.0
  0
LINE
  5
3B9
100
AcDbEntity
100
AcDbLine
  8
0
 62
256
370
-1
  6
ByLayer
 10
48.1589999999999989
 20
-131.8899999999999864
 30
0.0
 11
48.2580000000000027
 21
-131.7340000000000089
 31
0.0
  0
LINE
  5
3BA
100
AcDbEntity
100
AcDbLine
  8
0
 62
256
370
-1
  6
ByLayer
 10
48.2580000000000027
 20
-131.7340000000000089
 30
0.0
 11
48.3759999999999977
 21
-131.592000000000013
 31
0.0
  0
LINE
  5
3BB
100
AcDbEntity
100
AcDbLine
  8
0
 62
256
370
-1
  6
ByLayer
 10
48.3759999999999977
 20
-131.592000000000013
 30
0.0
 11
48.5110000000000028
 21
-131.4650000000000034
 31
0.0
  0
LINE
  5
3BC
100
AcDbEntity
100
AcDbLine
  8
0
 62
256
370
-1
  6
ByLayer
 10
48.5110000000000028
 20
-131.4650000000000034
 30
0.0
 11
48.6610000000000014
 21
-131.3559999999999945
 31
0.0
  0
LINE
  5
3BD
100
AcDbEntity
100
AcDbLine
  8
0
 62
256
370
-1
  6
ByLayer
 10
48.6610000000000014
 20
-131.3559999999999945
 30
0.0
 11
48.8230000000000004
 21
-131.2669999999999959
 31
0.0
  0
LINE
  5
3BE
100
AcDbEntity
100
AcDbLine
  8
0
 62
256
370
-1
  6
ByLayer
 10
48.8230000000000004
 20
-131.2669999999999959
 30
0.0
 11
48.9949999999999974
 21
-131.1990000000000123
 31
0.0
  0
LINE
  5
3BF
100
AcDbEntity
100
AcDbLine
  8
0
 62
256
370
-1
  6
ByLayer
 10
48.9949999999999974
 20
-131.1990000000000123
 30
0.0
 11
49.1739999999999995
 21
-131.1529999999999916
 31
0.0
  0
LINE
  5
3C0
100
AcDbEntity
100
AcDbLine
  8
0
 62
256
370
-1
  6
ByLayer
 10
49.1739999999999995
 20
-131.1529999999999916
 30
0.0
 11
49.3569999999999993
 21
-131.1299999999999955
 31
0.0
  0
LINE
  5
3C1
100
AcDbEntity
100
AcDbLine
  8
0
 62
256
370
-1
  6
ByLayer
 10
49.3569999999999993
 20
-131.1299999999999955
 30
0.0
 11
49.5429999999999993
 21
-131.1299999999999955
 31
0.0
  0
LINE
  5
3C2
100
AcDbEntity
100
AcDbLine
  8
0
 62
256
370
-1
  6
ByLayer
 10
49.5429999999999993
 20
-131.1299999999999955
 30
0.0
 11
49.7259999999999991
 21
-131.1529999999999916
 31
0.0
  0
LINE
  5
3C3
100
AcDbEntity
100
AcDbLine
  8
0
 62
256
370
-1
  6
ByLayer
 10
49.7259999999999991
 20
-131.1529999999999916
 30
0.0
 11
49.9050000000000011
 21
-131.1990000000000123
 31
0.0
  0
LINE
  5
3C4
100
AcDbEntity
100
AcDbLine
  8
0
 62
256
370
-1
  6
ByLayer
 10
49.9050000000000011
 20
-131.1990000000000123
 30
0.0
 11
50.0769999999999982
 21
-131.2669999999999959
 31
0.0
  0
LINE
  5
3C5
100
AcDbEntity
100
AcDbLine
  8
0
 62
256
370
-1
  6
ByLayer
 10
50.0769999999999982
 20
-131.2669999999999959
 30
0.0
 11
50.2389999999999972
 21
-131.3559999999999945
 31
0.0
  0
LINE
  5
3C6
100
AcDbEntity
100
AcDbLine
  8
0
 62
256
370
-1
  6
ByLayer
 10
50.2389999999999972
 20
-131.3559999999999945
 30
0.0
 11
50.3890000000000029
 21
-131.4650000000000034
 31
0.0
  0
LINE
  5
3C7
100
AcDbEntity
100
AcDbLine
  8
0
 62
256
370
-1
  6
ByLayer
 10
50.3890000000000029
 20
-131.4650000000000034
 30
0.0
 11
50.5240000000000009
 21
-131.592000000000013
 31
0.0
  0
LINE
  5
3C8
100
AcDbEntity
100
AcDbLine
  8
0
 62
256
370
-1
  6
ByLayer
 10
50.5240000000000009
 20
-131.592000000000013
 30
0.0
 11
50.642000000000003
 21
-131.7340000000000089
 31
0.0
  0
LINE
  5
3C9
100
AcDbEntity
100
AcDbLine
  8
0
 62
256
370
-1
  6
ByLayer
 10
50.642000000000003
 20
-131.7340000000000089
 30
0.0
 11
50.7409999999999997
 21
-131.8899999999999864
 31
0.0
  0
LINE
  5
3CA
100
AcDbEntity
100
AcDbLine
  8
0
 62
256
370
-1
  6
ByLayer
 10
50.7409999999999997
 20
-131.8899999999999864
 30
0.0
 11
50.8200000000000003
 21
-132.0579999999999927
 31
0.0
  0
LINE
  5
3CB
100
AcDbEntity
100
AcDbLine
  8
0
 62
256
370
-1
  6
ByLayer
 10
50.8200000000000003
 20
-132.0579999999999927
 30
0.0
 11
50.8770000000000024
 21
-132.2340000000000089
 31
0.0
  0
LINE
  5
3CC
100
AcDbEntity
100
AcDbLine
  8
0
 62
256
370
-1
  6
ByLayer
 10
50.8770000000000024
 20
-132.2340000000000089
 30
0.0
 11
50.911999999999999
 21
-132.414999999999992
 31
0.0
  0
LINE
  5
3CD
100
AcDbEntity
100
AcDbLine
  8
0
 62
256
370
-1
  6
ByLayer
 10
50.911999999999999
 20
-132.414999999999992
 30
0.0
 11
50.9230000000000018
 21
-132.5999999999999943
 31
0.0
  0
LINE
  5
3CE
100
AcDbEntity
100
AcDbLine
  8
0
 62
256
370
-1
  6
ByLayer
 10
50.9230000000000018
 20
-132.5999999999999943
 30
0.0
 11
50.911999999999999
 21
-132.7849999999999966
 31
0.0
  0
LINE
  5
3CF
100
AcDbEntity
100
AcDbLine
  8
0
 62
256
370
-1
  6
ByLayer
 10
50.911999999999999
 20
-132.7849999999999966
 30
0.0
 11
50.8770000000000024
 21
-132.9660000000000082
 31
0.0
  0
LINE
  5
3D0
100
AcDbEntity
100
AcDbLine
  8
0
 62
256
370
-1
  6
ByLayer
 10
50.8770000000000024
 20
-132.9660000000000082
 30
0.0
 11
50.8200000000000003
 21
-133.1419999999999959
 31
0.0
  0
LINE
  5
3D1
100
AcDbEntity
100
AcDbLine
  8
0
 62
256
370
-1
  6
ByLayer
 10
50.8200000000000003
 20
-133.1419999999999959
 30
0.0
 11
50.7409999999999997
 21
-133.3100000000000023
 31
0.0
  0
LINE
  5
3D2
100
AcDbEntity
100
AcDbLine
  8
0
 62
256
370
-1
  6
ByLayer
 10
50.7409999999999997
 20
-133.3100000000000023
 30
0.0
 11
50.642000000000003
 21
-133.4660000000000082
 31
0.0
  0
LINE
  5
3D3
100
AcDbEntity
100
AcDbLine
  8
0
 62
256
370
-1
  6
ByLayer
 10
50.642000000000003
 20
-133.4660000000000082
 30
0.0
 11
50.5240000000000009
 21
-133.6080000000000041
 31
0.0
  0
LINE
  5
3D4
100
AcDbEntity
100
AcDbLine
  8
0
 62
256
370
-1
  6
ByLayer
 10
50.5240000000000009
 20
-133.6080000000000041
 30
0.0
 11
50.3890000000000029
 21
-133.7350000000000136
 31
0.0
  0
LINE
  5
3D5
100
AcDbEntity
100
AcDbLine
  8
0
 62
256
370
-1
  6
ByLayer
 10
50.3890000000000029
 20
-133.7350000000000136
 30
0.0
 11
50.2389999999999972
 21
-133.8439999999999941
 31
0.0
  0
LINE
  5
3D6
100
AcDbEntity
100
AcDbLine
  8
0
 62
256
370
-1
  6
ByLayer
 10
50.2389999999999972
 20
-133.8439999999999941
 30
0.0
 11
50.0769999999999982
 21
-133.9329999999999927
 31
0.0
  0
LINE
  5
3D7
100
AcDbEntity
100
AcDbLine
  8
0
 62
256
370
-1
  6
ByLayer
 10
50.0769999999999982
 20
-133.9329999999999927
 30
0.0
 11
49.9050000000000011
 21
-134.0010000000000048
 31
0.0
  0
LINE
  5
3D8
100
AcDbEntity
100
AcDbLine
  8
0
 62
256
370
-1
  6
ByLayer
 10
49.9050000000000011
 20
-134.0010000000000048
 30
0.0
 11
49.7259999999999991
 21
-134.046999999999997
 31
0.0
  0
LINE
  5
3D9
100
AcDbEntity
100
AcDbLine
  8
0
 62
256
370
-1
  6
ByLayer
 10
49.7259999999999991
 20
-134.046999999999997
 30
0.0
 11
49.5429999999999993
 21
-134.0699999999999932
 31
0.0
  0
LINE
  5
3DA
100
AcDbEntity
100
AcDbLine
  8
0
 62
256
370
-1
  6
ByLayer
 10
49.5429999999999993
 20
-134.0699999999999932
 30
0.0
 11
49.3569999999999993
 21
-134.0699999999999932
 31
0.0
  0
LINE
  5
3DB
100
AcDbEntity
100
AcDbLine
  8
0
 62
256
370
-1
  6
ByLayer
 10
49.3569999999999993
 20
-134.0699999999999932
 30
0.0
 11
49.1739999999999995
 21
-134.046999999999997
 31
0.0
  0
LINE
  5
3DC
100
AcDbEntity
100
AcDbLine
  8
0
 62
256
370
-1
  6
ByLayer
 10
49.1739999999999995
 20
-134.046999999999997
 30
0.0
 11
48.9949999999999974
 21
-134.0010000000000048
 31
0.0
  0
LINE
  5
3DD
100
AcDbEntity
100
AcDbLine
  8
0
 62
256
370
-1
  6
ByLayer
 10
48.9949999999999974
 20
-134.0010000000000048
 30
0.0
 11
48.8230000000000004
 21
-133.9329999999999927
 31
0.0
  0
LINE
  5
3DE
100
AcDbEntity
100
AcDbLine
  8
0
 62
256
370
-1
  6
ByLayer
 10
48.8230000000000004
 20
-133.9329999999999927
 30
0.0
 11
48.6610000000000014
 21
-133.8439999999999941
 31
0.0
  0
LINE
  5
3DF
100
AcDbEntity
100
AcDbLine
  8
0
 62
256
370
-1
  6
ByLayer
 10
48.6610000000000014
 20
-133.8439999999999941
 30
0.0
 11
48.5110000000000028
 21
-133.7350000000000136
 31
0.0
  0
LINE
  5
3E0
100
AcDbEntity
100
AcDbLine
  8
0
 62
256
370
-1
  6
ByLayer
 10
48.5110000000000028
 20
-133.7350000000000136
 30
0.0
 11
48.3759999999999977
 21
-133.6080000000000041
 31
0.0
  0
LINE
  5
3E1
100
AcDbEntity
100
AcDbLine
  8
0
 62
256
370
-1
  6
ByLayer
 10
48.3759999999999977
 20
-133.6080000000000041
 30
0.0
 11
48.2580000000000027
 21
-133.4660000000000082
 31
0.0
  0
LINE
  5
3E2
100
AcDbEntity
100
AcDbLine
  8
0
 62
256
370
-1
  6
ByLayer
 10
48.2580000000000027
 20
-133.4660000000000082
 30
0.0
 11
48.1589999999999989
 21
-133.3100000000000023
 31
0.0
  0
LINE
  5
3E3
100
AcDbEntity
100
AcDbLine
  8
0
 62
256
370
-1
  6
ByLayer
 10
48.1589999999999989
 20
-133.3100000000000023
 30
0.0
 11
48.0799999999999983
 21
-133.1419999999999959
 31
0.0
  0
LINE
  5
3E4
100
AcDbEntity
100
AcDbLine
  8
0
 62
256
370
-1
  6
ByLayer
 10
48.0799999999999983
 20
-133.1419999999999959
 30
0.0
 11
48.0230000000000032
 21
-132.9660000000000082
 31
0.0
  0
LINE
  5
3E5
100
AcDbEntity
100
AcDbLine
  8
0
 62
256
370
-1
  6
ByLayer
 10
48.0230000000000032
 20
-132.9660000000000082
 30
0.0
 11
47.9879999999999995
 21
-132.7849999999999966
 31
0.0
  0
LINE
  5
3E6
100
AcDbEntity
100
AcDbLine
  8
0
 62
256
370
-1
  6
ByLayer
 10
47.9879999999999995
 20
-132.7849999999999966
 30
0.0
 11
47.9769999999999968
 21
-132.5999999999999943
 31
0.0
  0
LINE
  5
3E7
100
AcDbEntity
100
AcDbLine
  8
0
 62
256
370
-1
  6
ByLayer
 10
65.7999999999999972
 20
-33.25
 30
0.0
 11
65.7999999999999972
 21
-14.1999999999999993
 31
0.0
  0
LINE
  5
3E8
100
AcDbEntity
100
AcDbLine
  8
0
 62
256
370
-1
  6
ByLayer
 10
65.7999999999999972
 20
-14.1999999999999993
 30
0.0
 11
68.7999999999999972
 21
-14.1999999999999993
 31
0.0
  0
LINE
  5
3E9
100
AcDbEntity
100
AcDbLine
  8
0
 62
256
370
-1
  6
ByLayer
 10
68.7999999999999972
 20
-14.1999999999999993
 30
0.0
 11
68.7999999999999972
 21
14.1999999999999993
 31
0.0
  0
LINE
  5
3EA
100
AcDbEntity
100
AcDbLine
  8
0
 62
256
370
-1
  6
ByLayer
 10
68.7999999999999972
 20
14.1999999999999993
 30
0.0
 11
65.7999999999999972
 21
14.1999999999999993
 31
0.0
  0
LINE
  5
3EB
100
AcDbEntity
100
AcDbLine
  8
0
 62
256
370
-1
  6
ByLayer
 10
65.7999999999999972
 20
14.1999999999999993
 30
0.0
 11
65.7999999999999972
 21
33.25
 31
0.0
  0
LINE
  5
3EC
100
AcDbEntity
100
AcDbLine
  8
0
 62
256
370
-1
  6
ByLayer
 10
65.7999999999999972
 20
33.25
 30
0.0
 11
68.7999999999999972
 21
33.25
 31
0.0
  0
LINE
  5
3ED
100
AcDbEntity
100
AcDbLine
  8
0
 62
256
370
-1
  6
ByLayer
 10
68.7999999999999972
 20
33.25
 30
0.0
 11
68.7999999999999972
 21
47.4500000000000028
 31
0.0
  0
LINE
  5
3EE
100
AcDbEntity
100
AcDbLine
  8
0
 62
256
370
-1
  6
ByLayer
 10
68.7999999999999972
 20
47.4500000000000028
 30
0.0
 11
84.6749999999999972
 21
47.4500000000000028
 31
0.0
  0
LINE
  5
3EF
100
AcDbEntity
100
AcDbLine
  8
0
 62
256
370
-1
  6
ByLayer
 10
84.6749999999999972
 20
47.4500000000000028
 30
0.0
 11
84.6749999999999972
 21
44.4500000000000028
 31
0.0
  0
LINE
  5
3F0
100
AcDbEntity
100
AcDbLine
  8
0
 62
256
370
-1
  6
ByLayer
 10
84.6749999999999972
 20
44.4500000000000028
 30
0.0
 11
97.375
 21
44.4500000000000028
 31
0.0
  0
LINE
  5
3F1
100
AcDbEntity
100
AcDbLine
  8
0
 62
256
370
-1
  6
ByLayer
 10
97.375
 20
44.4500000000000028
 30
0.0
 11
97.375
 21
47.4500000000000028
 31
0.0
  0
LINE
  5
3F2
100
AcDbEntity
100
AcDbLine
  8
0
 62
256
370
-1
  6
ByLayer
 10
97.375
 20
47.4500000000000028
 30
0.0
 11
113.25
 21
47.4500000000000028
 31
0.0
  0
LINE
  5
3F3
100
AcDbEntity
100
AcDbLine
  8
0
 62
256
370
-1
  6
ByLayer
 10
113.25
 20
47.4500000000000028
 30
0.0
 11
113.25
 21
33.25
 31
0.0
  0
LINE
  5
3F4
100
AcDbEntity
100
AcDbLine
  8
0
 62
256
370
-1
  6
ByLayer
 10
113.25
 20
33.25
 30
0.0
 11
116.25
 21
33.25
 31
0.0
  0
LINE
  5
3F5
100
AcDbEntity
100
AcDbLine
  8
0
 62
256
370
-1
  6
ByLayer
 10
116.25
 20
33.25
 30
0.0
 11
116.25
 21
14.1999999999999993
 31
0.0
  0
LINE
  5
3F6
100
AcDbEntity
100
AcDbLine
  8
0
 62
256
370
-1
  6
ByLayer
 10
116.25
 20
14.1999999999999993
 30
0.0
 11
113.25
 21
14.1999999999999993
 31
0.0
  0
LINE
  5
3F7
100
AcDbEntity
100
AcDbLine
  8
0
 62
256
370
-1
  6
ByLayer
 10
113.25
 20
14.1999999999999993
 30
0.0
 11
113.25
 21
-14.1999999999999993
 31
0.0
  0
LINE
  5
3F8
100
AcDbEntity
100
AcDbLine
  8
0
 62
256
370
-1
  6
ByLayer
 10
113.25
 20
-14.1999999999999993
 30
0.0
 11
116.25
 21
-14.1999999999999993
 31
0.0
  0
LINE
  5
3F9
100
AcDbEntity
100
AcDbLine
  8
0
 62
256
370
-1
  6
ByLayer
 10
116.25
 20
-14.1999999999999993
 30
0.0
 11
116.25
 21
-33.25
 31
0.0
  0
LINE
  5
3FA
100
AcDbEntity
100
AcDbLine
  8
0
 62
256
370
-1
  6
ByLayer
 10
116.25
 20
-33.25
 30
0.0
 11
113.25
 21
-33.25
 31
0.0
  0
LINE
  5
3FB
100
AcDbEntity
100
AcDbLine
  8
0
 62
256
370
-1
  6
ByLayer
 10
113.25
 20
-33.25
 30
0.0
 11
113.25
 21
-47.4500000000000028
 31
0.0
  0
LINE
  5
3FC
100
AcDbEntity
100
AcDbLine
  8
0
 62
256
370
-1
  6
ByLayer
 10
113.25
 20
-47.4500000000000028
 30
0.0
 11
97.375
 21
-47.4500000000000028
 31
0.0
  0
LINE
  5
3FD
100
AcDbEntity
100
AcDbLine
  8
0
 62
256
370
-1
  6
ByLayer
 10
97.375
 20
-47.4500000000000028
 30
0.0
 11
97.375
 21
-44.4500000000000028
 31
0.0
  0
LINE
  5
3FE
100
AcDbEntity
100
AcDbLine
  8
0
 62
256
370
-1
  6
ByLayer
 10
97.375
 20
-44.4500000000000028
 30
0.0
 11
84.6749999999999972
 21
-44.4500000000000028
 31
0.0
  0
LINE
  5
3FF
100
AcDbEntity
100
AcDbLine
  8
0
 62
256
370
-1
  6
ByLayer
 10
84.6749999999999972
 20
-44.4500000000000028
 30
0.0
 11
84.6749999999999972
 21
-47.4500000000000028
 31
0.0
  0
LINE
  5
400
100
AcDbEntity
100
AcDbLine
  8
0
 62
256
370
-1
  6
ByLayer
 10
84.6749999999999972
 20
-47.4500000000000028
 30
0.0
 11
68.7999999999999972
 21
-47.4500000000000028
 31
0.0
  0
LINE
  5
401
100
AcDbEntity
100
AcDbLine
  8
0
 62
256
370
-1
  6
ByLayer
 10
68.7999999999999972
 20
-47.4500000000000028
 30
0.0
 11
68.7999999999999972
 21
-33.25
 31
0.0
  0
LINE
  5
402
100
AcDbEntity
100
AcDbLine
  8
0
 62
256
370
-1
  6
ByLayer
 10
68.7999999999999972
 20
-33.25
 30
0.0
 11
65.7999999999999972
 21
-33.25
 31
0.0
  0
ENDSEC
  0
SECTION
  2
OBJECTS
  0
DICTIONARY
  5
C
100
AcDbDictionary
280
0
281
1
  3
ACAD_GROUP
350
D
  3
ACAD_LAYOUT
350
1A
  3
ACAD_MLINESTYLE
350
17
  3
ACAD_PLOTSETTINGS
350
19
  3
ACAD_PLOTSTYLENAME
350
E
  3
AcDbVariableDictionary
350
403
  0
DICTIONARY
  5
D
100
AcDbDictionary
280
0
281
1
  0
ACDBDICTIONARYWDFLT
  5
E
100
AcDbDictionary
281
1
  3
Normal
350
F
100
AcDbDictionaryWithDefault
340
F
  0
ACDBPLACEHOLDER
  5
F
  0
DICTIONARY
  5
17
100
AcDbDictionary
280
0
281
1
  3
Standard
350
18
  0
MLINESTYLE
  5
18
100
AcDbMlineStyle
  2
STANDARD
 70
0
  3

 62
256
 51
90.0
 52
90.0
 71
2
 49
0.5
 62
256
  6
BYLAYER
 49
-0.5
 62
256
  6
BYLAYER
  0
DICTIONARY
  5
19
100
AcDbDictionary
280
0
281
1
  0
DICTIONARY
  5
1A
100
AcDbDictionary
281
1
  3
Layout1
350
1E
  3
Layout2
350
26
  3
Model
350
22
  0
LAYOUT
  5
1E
100
AcDbPlotSettings
  1

  2
C:\Program Files\AutoCAD 2002\plotters\DWF ePlot (optimized for plotting).pc3
  4

  6

 40
0.0
 41
0.0
 42
0.0
 43
0.0
 44
0.0
 45
0.0
 46
0.0
 47
0.0
 48
0.0
 49
0.0
140
0.0
141
0.0
142
1.0
143
1.0
 70
688
 72
0
 73
0
 74
5
  7

 75
16
147
1.0
148
0.0
149
0.0
100
AcDbLayout
  1
Layout1
 70
1
 71
1
 10
0.0
 20
0.0
 11
420.0
 21
297.0
 12
0.0
 22
0.0
 32
0.0
 14
100000000000000000000.0
 24
100000000000000000000.0
 34
100000000000000000000.0
 15
-100000000000000000000.0
 25
-100000000000000000000.0
 35
-100000000000000000000.0
146
0.0
 13
0.0
 23
0.0
 33
0.0
 16
1.0
 26
0.0
 36
0.0
 17
0.0
 27
1.0
 37
0.0
 76
0
330
1B
  0
LAYOUT
  5
22
100
AcDbPlotSettings
  1

  2
C:\Program Files\AutoCAD 2002\plotters\DWF ePlot (optimized for plotting).pc3
  4

  6

 40
0.0
 41
0.0
 42
0.0
 43
0.0
 44
0.0
 45
0.0
 46
0.0
 47
0.0
 48
0.0
 49
0.0
140
0.0
141
0.0
142
1.0
143
1.0
 70
1712
 72
0
 73
0
 74
0
  7

 75
0
147
1.0
148
0.0
149
0.0
100
AcDbLayout
  1
Model
 70
1
 71
0
 10
0.0
 20
0.0
 11
12.0
 21
9.0
 12
0.0
 22
0.0
 32
0.0
 14
0.0
 24
0.0
 34
0.0
 15
0.0
 25
0.0
 35
0.0
146
0.0
 13
0.0
 23
0.0
 33
0.0
 16
1.0
 26
0.0
 36
0.0
 17
0.0
 27
1.0
 37
0.0
 76
0
330
1F
  0
LAYOUT
  5
26
100
AcDbPlotSettings
  1

  2
C:\Program Files\AutoCAD 2002\plotters\DWF ePlot (optimized for plotting).pc3
  4

  6

 40
0.0
 41
0.0
 42
0.0
 43
0.0
 44
0.0
 45
0.0
 46
0.0
 47
0.0
 48
0.0
 49
0.0
140
0.0
141
0.0
142
1.0
143
1.0
 70
688
 72
0
 73
0
 74
5
  7

 75
16
147
1.0
148
0.0
149
0.0
100
AcDbLayout
  1
Layout2
 70
1
 71
2
 10
0.0
 20
0.0
 11
12.0
 21
9.0
 12
0.0
 22
0.0
 32
0.0
 14
0.0
 24
0.0
 34
0.0
 15
0.0
 25
0.0
 35
0.0
146
0.0
 13
0.0
 23
0.0
 33
0.0
 16
1.0
 26
0.0
 36
0.0
 17
0.0
 27
1.0
 37
0.0
 76
0
330
23
  0
DICTIONARY
  5
403
100
AcDbDictionary
281
1
  3
DIMASSOC
350
405
  3
HIDETEXT
350
404
  0
DICTIONARYVAR
  5
404
100
DictionaryVariables
280
0
  1
2
  0
DICTIONARYVAR
  5
405
100
DictionaryVariables
280
0
  1
1
  0
ENDSEC
  0
EOF
